%
M48
M72
T01C0.0150
T02C0.0200
T03C0.0400
%
T01
X4850Y5350
X5350Y6850
X5850Y7259
X6350Y7850
X5850Y8850
X7050Y9900
X6850Y10350
X8650Y9550
X9650Y9550
X8850Y8350
X9350Y7850
X10850Y8350
X11350Y8850
X11850Y8350
X11850Y7350
X11350Y6350
X9850Y6300
X9350Y6200
X8350Y6200
X7850Y5850
X6850Y5350
X10350Y4850
X12700Y4850
X13350Y5850
X14150Y7500
X13400Y9350
X16550Y9850
X18550Y8850
X19050Y7850
X18550Y7259
X18050Y6850
X17550Y5350
X19550Y5350
X20550Y5850
X21050Y6200
X22050Y6200
X22550Y6300
X24050Y6350
X24550Y7350
X24550Y8350
X24050Y8850
X23550Y8350
X22350Y9550
X21350Y9550
X21550Y8350
X22050Y7850
X19750Y9900
X19550Y10350
X23050Y15050
X22550Y16500
X22050Y16400
X21050Y16400
X20550Y16050
X19550Y15550
X17550Y15550
X18050Y17050
X18550Y17459
X19050Y18050
X18550Y19050
X19750Y20100
X19550Y20550
X21350Y19750
X22350Y19750
X21550Y18550
X22050Y18050
X23550Y18550
X24050Y19050
X24550Y18550
X24550Y17550
X24050Y16550
X25400Y15050
X26050Y16050
X26850Y17700
X26100Y19550
X29250Y20050
X31250Y19050
X31750Y18050
X31250Y17459
X30750Y17050
X30250Y15550
X32250Y15550
X33250Y16050
X33750Y16400
X34750Y16400
X35250Y16500
X35750Y15050
X36750Y16550
X37250Y17550
X37250Y18550
X36750Y19050
X36250Y18550
X35050Y19750
X34050Y19750
X34250Y18550
X34750Y18050
X32450Y20100
X32250Y20550
X35750Y25250
X35250Y26700
X34750Y26600
X33750Y26600
X33250Y26250
X32250Y25750
X30250Y25750
X30750Y27250
X31250Y27659
X31750Y28250
X31250Y29250
X32450Y30300
X32250Y30750
X34050Y29950
X35050Y29950
X34250Y28750
X34750Y28250
X36250Y28750
X36750Y29250
X37250Y28750
X37250Y27750
X36750Y26750
X38100Y25250
X38750Y26250
X39550Y27900
X38800Y29750
X29250Y30250
X26850Y27900
X26050Y26250
X25400Y25250
X24050Y26750
X24550Y27750
X24550Y28750
X24050Y29250
X23550Y28750
X22350Y29950
X21350Y29950
X21550Y28750
X22050Y28250
X22550Y26700
X22050Y26600
X21050Y26600
X20550Y26250
X19550Y25750
X17550Y25750
X18050Y27250
X18550Y27659
X19050Y28250
X18550Y29250
X19750Y30300
X19550Y30750
X16550Y30250
X14150Y27900
X13350Y26250
X12700Y25250
X11350Y26750
X11850Y27750
X11850Y28750
X11350Y29250
X10850Y28750
X9350Y28250
X8850Y28750
X8650Y29950
X9650Y29950
X7050Y30300
X6850Y30750
X5850Y29250
X6350Y28250
X5850Y27659
X5350Y27250
X4850Y25750
X6850Y25750
X7850Y26250
X8350Y26600
X9350Y26600
X9850Y26700
X10350Y25250
X13400Y29750
X3850Y30250
X6850Y20550
X7050Y20100
X5850Y19050
X6350Y18050
X5850Y17459
X5350Y17050
X4850Y15550
X6850Y15550
X7850Y16050
X8350Y16400
X9350Y16400
X9850Y16500
X10350Y15050
X11350Y16550
X11850Y17550
X11850Y18550
X11350Y19050
X10850Y18550
X9350Y18050
X8850Y18550
X8650Y19750
X9650Y19750
X13400Y19550
X14150Y17700
X13350Y16050
X12700Y15050
X16550Y20050
X23050Y25250
X26100Y29750
X38800Y19550
X39550Y17700
X38750Y16050
X38100Y15050
X32250Y10350
X32450Y9900
X31250Y8850
X31750Y7850
X31250Y7259
X30750Y6850
X30250Y5350
X32250Y5350
X33250Y5850
X33750Y6200
X34750Y6200
X35250Y6300
X36750Y6350
X37250Y7350
X37250Y8350
X36750Y8850
X36250Y8350
X35050Y9550
X34050Y9550
X34250Y8350
X34750Y7850
X35750Y4850
X38100Y4850
X38750Y5850
X39550Y7500
X38800Y9350
X29250Y9850
X26850Y7500
X26050Y5850
X25400Y4850
X23050Y4850
X26100Y9350
X3850Y9850
X3850Y20050
T02
X8100Y20050
X8100Y21050
X9100Y21050
X9100Y20050
X10100Y20050
X10100Y21050
X10100Y30250
X10100Y31250
X9100Y31250
X8100Y31250
X8100Y30250
X9100Y30250
X20800Y30250
X20800Y31250
X21800Y31250
X22800Y31250
X22800Y30250
X21800Y30250
X21800Y21050
X21800Y20050
X22800Y20050
X22800Y21050
X20800Y21050
X20800Y20050
X20800Y10850
X20800Y9850
X21800Y9850
X22800Y9850
X22800Y10850
X21800Y10850
X33500Y10850
X33500Y9850
X34500Y9850
X35500Y9850
X35500Y10850
X34500Y10850
X34500Y20050
X34500Y21050
X35500Y21050
X35500Y20050
X33500Y20050
X33500Y21050
X33500Y30250
X33500Y31250
X34500Y31250
X35500Y31250
X35500Y30250
X34500Y30250
X10100Y10850
X10100Y9850
X9100Y9850
X8100Y9850
X8100Y10850
X9100Y10850
T03
X9350Y12350
X8350Y12350
X7350Y12350
X6350Y12350
X5350Y12350
X6850Y13550
X7850Y13550
X8850Y13550
X9850Y13550
X10850Y13550
X11850Y13550
X11350Y12350
X12350Y12350
X13350Y12350
X10350Y12350
X18050Y12350
X19050Y12350
X20050Y12350
X21050Y12350
X22050Y12350
X23050Y12350
X24050Y12350
X25050Y12350
X26050Y12350
X24550Y13550
X23550Y13550
X22550Y13550
X21550Y13550
X20550Y13550
X19550Y13550
X19050Y22550
X18050Y22550
X19550Y23750
X20550Y23750
X21550Y23750
X22550Y23750
X23550Y23750
X24550Y23750
X24050Y22550
X25050Y22550
X26050Y22550
X23050Y22550
X22050Y22550
X21050Y22550
X20050Y22550
X13350Y22550
X12350Y22550
X11350Y22550
X10350Y22550
X9350Y22550
X8350Y22550
X7350Y22550
X6350Y22550
X5350Y22550
X6850Y23750
X7850Y23750
X8850Y23750
X9850Y23750
X10850Y23750
X11850Y23750
X11350Y32750
X12350Y32750
X13350Y32750
X10350Y32750
X9350Y32750
X8350Y32750
X7350Y32750
X6350Y32750
X5350Y32750
X18050Y32750
X19050Y32750
X20050Y32750
X21050Y32750
X22050Y32750
X23050Y32750
X24050Y32750
X25050Y32750
X26050Y32750
X30750Y32750
X31750Y32750
X32750Y32750
X33750Y32750
X34750Y32750
X35750Y32750
X36750Y32750
X37750Y32750
X38750Y32750
X37250Y23750
X36250Y23750
X35250Y23750
X34250Y23750
X33250Y23750
X32250Y23750
X31750Y22550
X30750Y22550
X32750Y22550
X33750Y22550
X34750Y22550
X35750Y22550
X36750Y22550
X37750Y22550
X38750Y22550
X37250Y13550
X36250Y13550
X35250Y13550
X34250Y13550
X33250Y13550
X32250Y13550
X31750Y12350
X30750Y12350
X32750Y12350
X33750Y12350
X34750Y12350
X35750Y12350
X36750Y12350
X37750Y12350
X38750Y12350
X37250Y3350
X36250Y3350
X35250Y3350
X34250Y3350
X33250Y3350
X32250Y3350
X24550Y3350
X23550Y3350
X22550Y3350
X21550Y3350
X20550Y3350
X19550Y3350
X11850Y3350
X10850Y3350
X9850Y3350
X8850Y3350
X7850Y3350
X6850Y3350
M30
