G75*
%MOIN*%
%OFA0B0*%
%FSLAX25Y25*%
%IPPOS*%
%LPD*%
%AMOC8*
5,1,8,0,0,1.08239X$1,22.5*
%
%ADD10C,0.00800*%
%ADD11C,0.01500*%
%ADD12C,0.01100*%
%ADD13C,0.01000*%
%ADD14C,0.00000*%
D10*
X0044962Y0033933D02*
X0044962Y0133933D01*
X0144962Y0133933D01*
X0144962Y0033933D01*
X0044962Y0033933D01*
X0146962Y0033933D02*
X0146962Y0133933D01*
X0246962Y0133933D01*
X0246962Y0033933D01*
X0146962Y0033933D01*
X0248962Y0033933D02*
X0248962Y0133933D01*
X0348962Y0133933D01*
X0348962Y0033933D01*
X0248962Y0033933D01*
X0248962Y0135933D02*
X0248962Y0235933D01*
X0348962Y0235933D01*
X0348962Y0135933D01*
X0248962Y0135933D01*
X0246962Y0135933D02*
X0246962Y0235933D01*
X0146962Y0235933D01*
X0146962Y0135933D01*
X0246962Y0135933D01*
X0144962Y0135933D02*
X0144962Y0235933D01*
X0044962Y0235933D01*
X0044962Y0135933D01*
X0144962Y0135933D01*
X0144962Y0237933D02*
X0044962Y0237933D01*
X0044962Y0337933D01*
X0144962Y0337933D01*
X0144962Y0237933D01*
X0146962Y0237933D02*
X0146962Y0337933D01*
X0246962Y0337933D01*
X0246962Y0237933D01*
X0146962Y0237933D01*
X0248962Y0237933D02*
X0248962Y0337933D01*
X0348962Y0337933D01*
X0348962Y0237933D01*
X0248962Y0237933D01*
D11*
X0400962Y0236933D02*
X0017962Y0236933D01*
X0017962Y0134933D02*
X0400962Y0134933D01*
X0400962Y0032933D02*
X0017962Y0032933D01*
X0043962Y0006933D02*
X0043962Y0389933D01*
X0017962Y0338933D02*
X0400962Y0338933D01*
X0349962Y0389933D02*
X0349962Y0006933D01*
X0247962Y0006933D02*
X0247962Y0389933D01*
X0145962Y0389933D02*
X0145962Y0006933D01*
D12*
X0413753Y0033916D02*
X0415064Y0029983D01*
X0416375Y0033916D01*
X0419046Y0032278D02*
X0422979Y0032278D01*
X0426347Y0032278D02*
X0427986Y0031622D01*
X0427987Y0031622D02*
X0428039Y0031599D01*
X0428090Y0031572D01*
X0428139Y0031542D01*
X0428186Y0031509D01*
X0428231Y0031473D01*
X0428273Y0031433D01*
X0428312Y0031391D01*
X0428348Y0031347D01*
X0428381Y0031300D01*
X0428411Y0031250D01*
X0428438Y0031199D01*
X0428461Y0031147D01*
X0428480Y0031093D01*
X0428496Y0031037D01*
X0428508Y0030981D01*
X0428516Y0030924D01*
X0428520Y0030867D01*
X0428521Y0030809D01*
X0428517Y0030752D01*
X0428510Y0030695D01*
X0428498Y0030638D01*
X0428483Y0030583D01*
X0428465Y0030528D01*
X0428442Y0030475D01*
X0428416Y0030424D01*
X0428387Y0030375D01*
X0428354Y0030327D01*
X0428318Y0030282D01*
X0428280Y0030240D01*
X0428238Y0030200D01*
X0428194Y0030163D01*
X0428147Y0030129D01*
X0428099Y0030098D01*
X0428048Y0030071D01*
X0427996Y0030047D01*
X0427942Y0030027D01*
X0427887Y0030011D01*
X0427831Y0029998D01*
X0427774Y0029989D01*
X0427716Y0029984D01*
X0427659Y0029983D01*
X0428150Y0033588D02*
X0428043Y0033634D01*
X0427934Y0033677D01*
X0427824Y0033717D01*
X0427712Y0033753D01*
X0427600Y0033785D01*
X0427486Y0033814D01*
X0427372Y0033840D01*
X0427257Y0033861D01*
X0427142Y0033880D01*
X0427025Y0033894D01*
X0426909Y0033905D01*
X0426792Y0033912D01*
X0426675Y0033916D01*
X0426675Y0033917D02*
X0426618Y0033916D01*
X0426560Y0033911D01*
X0426503Y0033902D01*
X0426447Y0033889D01*
X0426392Y0033873D01*
X0426338Y0033853D01*
X0426286Y0033829D01*
X0426235Y0033802D01*
X0426187Y0033771D01*
X0426140Y0033737D01*
X0426096Y0033700D01*
X0426054Y0033660D01*
X0426016Y0033618D01*
X0425980Y0033573D01*
X0425947Y0033525D01*
X0425918Y0033476D01*
X0425892Y0033425D01*
X0425869Y0033372D01*
X0425851Y0033317D01*
X0425836Y0033262D01*
X0425824Y0033205D01*
X0425817Y0033148D01*
X0425813Y0033091D01*
X0425814Y0033033D01*
X0425818Y0032976D01*
X0425826Y0032919D01*
X0425838Y0032863D01*
X0425854Y0032807D01*
X0425873Y0032753D01*
X0425896Y0032701D01*
X0425923Y0032650D01*
X0425953Y0032600D01*
X0425986Y0032553D01*
X0426022Y0032509D01*
X0426061Y0032467D01*
X0426103Y0032427D01*
X0426148Y0032391D01*
X0426195Y0032358D01*
X0426244Y0032328D01*
X0426295Y0032301D01*
X0426347Y0032278D01*
X0425856Y0030311D02*
X0425990Y0030265D01*
X0426125Y0030222D01*
X0426261Y0030183D01*
X0426398Y0030147D01*
X0426535Y0030115D01*
X0426674Y0030086D01*
X0426813Y0030060D01*
X0426953Y0030039D01*
X0427094Y0030020D01*
X0427234Y0030006D01*
X0427376Y0029995D01*
X0427517Y0029987D01*
X0427659Y0029984D01*
X0431200Y0030966D02*
X0431200Y0032933D01*
X0431202Y0032995D01*
X0431208Y0033056D01*
X0431217Y0033117D01*
X0431231Y0033177D01*
X0431248Y0033237D01*
X0431269Y0033295D01*
X0431294Y0033352D01*
X0431322Y0033407D01*
X0431353Y0033460D01*
X0431388Y0033511D01*
X0431426Y0033560D01*
X0431466Y0033606D01*
X0431510Y0033650D01*
X0431556Y0033690D01*
X0431605Y0033728D01*
X0431656Y0033763D01*
X0431709Y0033794D01*
X0431764Y0033822D01*
X0431821Y0033847D01*
X0431879Y0033868D01*
X0431939Y0033885D01*
X0431999Y0033899D01*
X0432060Y0033908D01*
X0432121Y0033914D01*
X0432183Y0033916D01*
X0433494Y0033916D01*
X0435907Y0032605D02*
X0435907Y0031294D01*
X0435909Y0031223D01*
X0435915Y0031152D01*
X0435924Y0031082D01*
X0435938Y0031012D01*
X0435955Y0030943D01*
X0435976Y0030875D01*
X0436000Y0030809D01*
X0436028Y0030744D01*
X0436060Y0030680D01*
X0436095Y0030618D01*
X0436133Y0030558D01*
X0436174Y0030501D01*
X0436219Y0030445D01*
X0436266Y0030392D01*
X0436316Y0030342D01*
X0436369Y0030295D01*
X0436425Y0030250D01*
X0436482Y0030209D01*
X0436542Y0030171D01*
X0436604Y0030136D01*
X0436668Y0030104D01*
X0436733Y0030076D01*
X0436799Y0030052D01*
X0436867Y0030031D01*
X0436936Y0030014D01*
X0437006Y0030000D01*
X0437076Y0029991D01*
X0437147Y0029985D01*
X0437218Y0029983D01*
X0437289Y0029985D01*
X0437360Y0029991D01*
X0437430Y0030000D01*
X0437500Y0030014D01*
X0437569Y0030031D01*
X0437637Y0030052D01*
X0437703Y0030076D01*
X0437768Y0030104D01*
X0437832Y0030136D01*
X0437894Y0030171D01*
X0437954Y0030209D01*
X0438011Y0030250D01*
X0438067Y0030295D01*
X0438120Y0030342D01*
X0438170Y0030392D01*
X0438217Y0030445D01*
X0438262Y0030501D01*
X0438303Y0030558D01*
X0438341Y0030618D01*
X0438376Y0030680D01*
X0438408Y0030744D01*
X0438436Y0030809D01*
X0438460Y0030875D01*
X0438481Y0030943D01*
X0438498Y0031012D01*
X0438512Y0031082D01*
X0438521Y0031152D01*
X0438527Y0031223D01*
X0438529Y0031294D01*
X0438530Y0031294D02*
X0438530Y0032605D01*
X0438529Y0032605D02*
X0438527Y0032676D01*
X0438521Y0032747D01*
X0438512Y0032817D01*
X0438498Y0032887D01*
X0438481Y0032956D01*
X0438460Y0033024D01*
X0438436Y0033090D01*
X0438408Y0033155D01*
X0438376Y0033219D01*
X0438341Y0033281D01*
X0438303Y0033341D01*
X0438262Y0033398D01*
X0438217Y0033454D01*
X0438170Y0033507D01*
X0438120Y0033557D01*
X0438067Y0033604D01*
X0438011Y0033649D01*
X0437954Y0033690D01*
X0437894Y0033728D01*
X0437832Y0033763D01*
X0437768Y0033795D01*
X0437703Y0033823D01*
X0437637Y0033847D01*
X0437569Y0033868D01*
X0437500Y0033885D01*
X0437430Y0033899D01*
X0437360Y0033908D01*
X0437289Y0033914D01*
X0437218Y0033916D01*
X0437147Y0033914D01*
X0437076Y0033908D01*
X0437006Y0033899D01*
X0436936Y0033885D01*
X0436867Y0033868D01*
X0436799Y0033847D01*
X0436733Y0033823D01*
X0436668Y0033795D01*
X0436604Y0033763D01*
X0436542Y0033728D01*
X0436482Y0033690D01*
X0436425Y0033649D01*
X0436369Y0033604D01*
X0436316Y0033557D01*
X0436266Y0033507D01*
X0436219Y0033454D01*
X0436174Y0033398D01*
X0436133Y0033341D01*
X0436095Y0033281D01*
X0436060Y0033219D01*
X0436028Y0033155D01*
X0436000Y0033090D01*
X0435976Y0033024D01*
X0435955Y0032956D01*
X0435938Y0032887D01*
X0435924Y0032817D01*
X0435915Y0032747D01*
X0435909Y0032676D01*
X0435907Y0032605D01*
X0433494Y0029983D02*
X0432183Y0029983D01*
X0432121Y0029985D01*
X0432060Y0029991D01*
X0431999Y0030000D01*
X0431939Y0030014D01*
X0431879Y0030031D01*
X0431821Y0030052D01*
X0431764Y0030077D01*
X0431709Y0030105D01*
X0431656Y0030136D01*
X0431605Y0030171D01*
X0431556Y0030209D01*
X0431510Y0030249D01*
X0431466Y0030293D01*
X0431426Y0030339D01*
X0431388Y0030388D01*
X0431353Y0030439D01*
X0431322Y0030492D01*
X0431294Y0030547D01*
X0431269Y0030604D01*
X0431248Y0030662D01*
X0431231Y0030722D01*
X0431217Y0030782D01*
X0431208Y0030843D01*
X0431202Y0030904D01*
X0431200Y0030966D01*
X0441496Y0029983D02*
X0441496Y0033916D01*
X0443463Y0033916D01*
X0443463Y0033261D01*
X0445549Y0032605D02*
X0445549Y0030966D01*
X0445551Y0030904D01*
X0445557Y0030843D01*
X0445566Y0030782D01*
X0445580Y0030722D01*
X0445597Y0030662D01*
X0445618Y0030604D01*
X0445643Y0030547D01*
X0445671Y0030492D01*
X0445702Y0030439D01*
X0445737Y0030388D01*
X0445775Y0030339D01*
X0445815Y0030293D01*
X0445859Y0030249D01*
X0445905Y0030209D01*
X0445954Y0030171D01*
X0446005Y0030136D01*
X0446058Y0030105D01*
X0446113Y0030077D01*
X0446170Y0030052D01*
X0446228Y0030031D01*
X0446288Y0030014D01*
X0446348Y0030000D01*
X0446409Y0029991D01*
X0446470Y0029985D01*
X0446532Y0029983D01*
X0448171Y0029983D01*
X0448171Y0031950D02*
X0445549Y0031950D01*
X0445549Y0032605D02*
X0445551Y0032676D01*
X0445557Y0032747D01*
X0445566Y0032817D01*
X0445580Y0032887D01*
X0445597Y0032956D01*
X0445618Y0033024D01*
X0445642Y0033090D01*
X0445670Y0033155D01*
X0445702Y0033219D01*
X0445737Y0033281D01*
X0445775Y0033341D01*
X0445816Y0033398D01*
X0445861Y0033454D01*
X0445908Y0033507D01*
X0445958Y0033557D01*
X0446011Y0033604D01*
X0446067Y0033649D01*
X0446124Y0033690D01*
X0446184Y0033728D01*
X0446246Y0033763D01*
X0446310Y0033795D01*
X0446375Y0033823D01*
X0446441Y0033847D01*
X0446509Y0033868D01*
X0446578Y0033885D01*
X0446648Y0033899D01*
X0446718Y0033908D01*
X0446789Y0033914D01*
X0446860Y0033916D01*
X0446931Y0033914D01*
X0447002Y0033908D01*
X0447072Y0033899D01*
X0447142Y0033885D01*
X0447211Y0033868D01*
X0447279Y0033847D01*
X0447345Y0033823D01*
X0447410Y0033795D01*
X0447474Y0033763D01*
X0447536Y0033728D01*
X0447596Y0033690D01*
X0447653Y0033649D01*
X0447709Y0033604D01*
X0447762Y0033557D01*
X0447812Y0033507D01*
X0447859Y0033454D01*
X0447904Y0033398D01*
X0447945Y0033341D01*
X0447983Y0033281D01*
X0448018Y0033219D01*
X0448050Y0033155D01*
X0448078Y0033090D01*
X0448102Y0033024D01*
X0448123Y0032956D01*
X0448140Y0032887D01*
X0448154Y0032817D01*
X0448163Y0032747D01*
X0448169Y0032676D01*
X0448171Y0032605D01*
X0448171Y0031950D01*
X0448171Y0131983D02*
X0446532Y0131983D01*
X0446470Y0131985D01*
X0446409Y0131991D01*
X0446348Y0132000D01*
X0446288Y0132014D01*
X0446228Y0132031D01*
X0446170Y0132052D01*
X0446113Y0132077D01*
X0446058Y0132105D01*
X0446005Y0132136D01*
X0445954Y0132171D01*
X0445905Y0132209D01*
X0445859Y0132249D01*
X0445815Y0132293D01*
X0445775Y0132339D01*
X0445737Y0132388D01*
X0445702Y0132439D01*
X0445671Y0132492D01*
X0445643Y0132547D01*
X0445618Y0132604D01*
X0445597Y0132662D01*
X0445580Y0132722D01*
X0445566Y0132782D01*
X0445557Y0132843D01*
X0445551Y0132904D01*
X0445549Y0132966D01*
X0445549Y0134605D01*
X0445549Y0133950D02*
X0448171Y0133950D01*
X0448171Y0134605D01*
X0448169Y0134676D01*
X0448163Y0134747D01*
X0448154Y0134817D01*
X0448140Y0134887D01*
X0448123Y0134956D01*
X0448102Y0135024D01*
X0448078Y0135090D01*
X0448050Y0135155D01*
X0448018Y0135219D01*
X0447983Y0135281D01*
X0447945Y0135341D01*
X0447904Y0135398D01*
X0447859Y0135454D01*
X0447812Y0135507D01*
X0447762Y0135557D01*
X0447709Y0135604D01*
X0447653Y0135649D01*
X0447596Y0135690D01*
X0447536Y0135728D01*
X0447474Y0135763D01*
X0447410Y0135795D01*
X0447345Y0135823D01*
X0447279Y0135847D01*
X0447211Y0135868D01*
X0447142Y0135885D01*
X0447072Y0135899D01*
X0447002Y0135908D01*
X0446931Y0135914D01*
X0446860Y0135916D01*
X0446789Y0135914D01*
X0446718Y0135908D01*
X0446648Y0135899D01*
X0446578Y0135885D01*
X0446509Y0135868D01*
X0446441Y0135847D01*
X0446375Y0135823D01*
X0446310Y0135795D01*
X0446246Y0135763D01*
X0446184Y0135728D01*
X0446124Y0135690D01*
X0446067Y0135649D01*
X0446011Y0135604D01*
X0445958Y0135557D01*
X0445908Y0135507D01*
X0445861Y0135454D01*
X0445816Y0135398D01*
X0445775Y0135341D01*
X0445737Y0135281D01*
X0445702Y0135219D01*
X0445670Y0135155D01*
X0445642Y0135090D01*
X0445618Y0135024D01*
X0445597Y0134956D01*
X0445580Y0134887D01*
X0445566Y0134817D01*
X0445557Y0134747D01*
X0445551Y0134676D01*
X0445549Y0134605D01*
X0443463Y0135261D02*
X0443463Y0135916D01*
X0441496Y0135916D01*
X0441496Y0131983D01*
X0438530Y0133294D02*
X0438530Y0134605D01*
X0438529Y0134605D02*
X0438527Y0134676D01*
X0438521Y0134747D01*
X0438512Y0134817D01*
X0438498Y0134887D01*
X0438481Y0134956D01*
X0438460Y0135024D01*
X0438436Y0135090D01*
X0438408Y0135155D01*
X0438376Y0135219D01*
X0438341Y0135281D01*
X0438303Y0135341D01*
X0438262Y0135398D01*
X0438217Y0135454D01*
X0438170Y0135507D01*
X0438120Y0135557D01*
X0438067Y0135604D01*
X0438011Y0135649D01*
X0437954Y0135690D01*
X0437894Y0135728D01*
X0437832Y0135763D01*
X0437768Y0135795D01*
X0437703Y0135823D01*
X0437637Y0135847D01*
X0437569Y0135868D01*
X0437500Y0135885D01*
X0437430Y0135899D01*
X0437360Y0135908D01*
X0437289Y0135914D01*
X0437218Y0135916D01*
X0437147Y0135914D01*
X0437076Y0135908D01*
X0437006Y0135899D01*
X0436936Y0135885D01*
X0436867Y0135868D01*
X0436799Y0135847D01*
X0436733Y0135823D01*
X0436668Y0135795D01*
X0436604Y0135763D01*
X0436542Y0135728D01*
X0436482Y0135690D01*
X0436425Y0135649D01*
X0436369Y0135604D01*
X0436316Y0135557D01*
X0436266Y0135507D01*
X0436219Y0135454D01*
X0436174Y0135398D01*
X0436133Y0135341D01*
X0436095Y0135281D01*
X0436060Y0135219D01*
X0436028Y0135155D01*
X0436000Y0135090D01*
X0435976Y0135024D01*
X0435955Y0134956D01*
X0435938Y0134887D01*
X0435924Y0134817D01*
X0435915Y0134747D01*
X0435909Y0134676D01*
X0435907Y0134605D01*
X0435907Y0133294D01*
X0435909Y0133223D01*
X0435915Y0133152D01*
X0435924Y0133082D01*
X0435938Y0133012D01*
X0435955Y0132943D01*
X0435976Y0132875D01*
X0436000Y0132809D01*
X0436028Y0132744D01*
X0436060Y0132680D01*
X0436095Y0132618D01*
X0436133Y0132558D01*
X0436174Y0132501D01*
X0436219Y0132445D01*
X0436266Y0132392D01*
X0436316Y0132342D01*
X0436369Y0132295D01*
X0436425Y0132250D01*
X0436482Y0132209D01*
X0436542Y0132171D01*
X0436604Y0132136D01*
X0436668Y0132104D01*
X0436733Y0132076D01*
X0436799Y0132052D01*
X0436867Y0132031D01*
X0436936Y0132014D01*
X0437006Y0132000D01*
X0437076Y0131991D01*
X0437147Y0131985D01*
X0437218Y0131983D01*
X0437289Y0131985D01*
X0437360Y0131991D01*
X0437430Y0132000D01*
X0437500Y0132014D01*
X0437569Y0132031D01*
X0437637Y0132052D01*
X0437703Y0132076D01*
X0437768Y0132104D01*
X0437832Y0132136D01*
X0437894Y0132171D01*
X0437954Y0132209D01*
X0438011Y0132250D01*
X0438067Y0132295D01*
X0438120Y0132342D01*
X0438170Y0132392D01*
X0438217Y0132445D01*
X0438262Y0132501D01*
X0438303Y0132558D01*
X0438341Y0132618D01*
X0438376Y0132680D01*
X0438408Y0132744D01*
X0438436Y0132809D01*
X0438460Y0132875D01*
X0438481Y0132943D01*
X0438498Y0133012D01*
X0438512Y0133082D01*
X0438521Y0133152D01*
X0438527Y0133223D01*
X0438529Y0133294D01*
X0433494Y0131983D02*
X0432183Y0131983D01*
X0432121Y0131985D01*
X0432060Y0131991D01*
X0431999Y0132000D01*
X0431939Y0132014D01*
X0431879Y0132031D01*
X0431821Y0132052D01*
X0431764Y0132077D01*
X0431709Y0132105D01*
X0431656Y0132136D01*
X0431605Y0132171D01*
X0431556Y0132209D01*
X0431510Y0132249D01*
X0431466Y0132293D01*
X0431426Y0132339D01*
X0431388Y0132388D01*
X0431353Y0132439D01*
X0431322Y0132492D01*
X0431294Y0132547D01*
X0431269Y0132604D01*
X0431248Y0132662D01*
X0431231Y0132722D01*
X0431217Y0132782D01*
X0431208Y0132843D01*
X0431202Y0132904D01*
X0431200Y0132966D01*
X0431200Y0134933D01*
X0431202Y0134995D01*
X0431208Y0135056D01*
X0431217Y0135117D01*
X0431231Y0135177D01*
X0431248Y0135237D01*
X0431269Y0135295D01*
X0431294Y0135352D01*
X0431322Y0135407D01*
X0431353Y0135460D01*
X0431388Y0135511D01*
X0431426Y0135560D01*
X0431466Y0135606D01*
X0431510Y0135650D01*
X0431556Y0135690D01*
X0431605Y0135728D01*
X0431656Y0135763D01*
X0431709Y0135794D01*
X0431764Y0135822D01*
X0431821Y0135847D01*
X0431879Y0135868D01*
X0431939Y0135885D01*
X0431999Y0135899D01*
X0432060Y0135908D01*
X0432121Y0135914D01*
X0432183Y0135916D01*
X0433494Y0135916D01*
X0427986Y0133622D02*
X0426347Y0134278D01*
X0426295Y0134301D01*
X0426244Y0134328D01*
X0426195Y0134358D01*
X0426148Y0134391D01*
X0426103Y0134427D01*
X0426061Y0134467D01*
X0426022Y0134509D01*
X0425986Y0134553D01*
X0425953Y0134600D01*
X0425923Y0134650D01*
X0425896Y0134701D01*
X0425873Y0134753D01*
X0425854Y0134807D01*
X0425838Y0134863D01*
X0425826Y0134919D01*
X0425818Y0134976D01*
X0425814Y0135033D01*
X0425813Y0135091D01*
X0425817Y0135148D01*
X0425824Y0135205D01*
X0425836Y0135262D01*
X0425851Y0135317D01*
X0425869Y0135372D01*
X0425892Y0135425D01*
X0425918Y0135476D01*
X0425947Y0135525D01*
X0425980Y0135573D01*
X0426016Y0135618D01*
X0426054Y0135660D01*
X0426096Y0135700D01*
X0426140Y0135737D01*
X0426187Y0135771D01*
X0426235Y0135802D01*
X0426286Y0135829D01*
X0426338Y0135853D01*
X0426392Y0135873D01*
X0426447Y0135889D01*
X0426503Y0135902D01*
X0426560Y0135911D01*
X0426618Y0135916D01*
X0426675Y0135917D01*
X0425856Y0132311D02*
X0425990Y0132265D01*
X0426125Y0132222D01*
X0426261Y0132183D01*
X0426398Y0132147D01*
X0426535Y0132115D01*
X0426674Y0132086D01*
X0426813Y0132060D01*
X0426953Y0132039D01*
X0427094Y0132020D01*
X0427234Y0132006D01*
X0427376Y0131995D01*
X0427517Y0131987D01*
X0427659Y0131984D01*
X0427659Y0131983D02*
X0427716Y0131984D01*
X0427774Y0131989D01*
X0427831Y0131998D01*
X0427887Y0132011D01*
X0427942Y0132027D01*
X0427996Y0132047D01*
X0428048Y0132071D01*
X0428099Y0132098D01*
X0428147Y0132129D01*
X0428194Y0132163D01*
X0428238Y0132200D01*
X0428280Y0132240D01*
X0428318Y0132282D01*
X0428354Y0132327D01*
X0428387Y0132375D01*
X0428416Y0132424D01*
X0428442Y0132475D01*
X0428465Y0132528D01*
X0428483Y0132583D01*
X0428498Y0132638D01*
X0428510Y0132695D01*
X0428517Y0132752D01*
X0428521Y0132809D01*
X0428520Y0132867D01*
X0428516Y0132924D01*
X0428508Y0132981D01*
X0428496Y0133037D01*
X0428480Y0133093D01*
X0428461Y0133147D01*
X0428438Y0133199D01*
X0428411Y0133250D01*
X0428381Y0133300D01*
X0428348Y0133347D01*
X0428312Y0133391D01*
X0428273Y0133433D01*
X0428231Y0133473D01*
X0428186Y0133509D01*
X0428139Y0133542D01*
X0428090Y0133572D01*
X0428039Y0133599D01*
X0427987Y0133622D01*
X0428150Y0135588D02*
X0428043Y0135634D01*
X0427934Y0135677D01*
X0427824Y0135717D01*
X0427712Y0135753D01*
X0427600Y0135785D01*
X0427486Y0135814D01*
X0427372Y0135840D01*
X0427257Y0135861D01*
X0427142Y0135880D01*
X0427025Y0135894D01*
X0426909Y0135905D01*
X0426792Y0135912D01*
X0426675Y0135916D01*
X0422979Y0134278D02*
X0419046Y0134278D01*
X0416375Y0135916D02*
X0415064Y0131983D01*
X0413753Y0135916D01*
X0415064Y0233983D02*
X0416375Y0237916D01*
X0413753Y0237916D02*
X0415064Y0233983D01*
X0419046Y0236278D02*
X0422979Y0236278D01*
X0426347Y0236278D02*
X0427986Y0235622D01*
X0427987Y0235622D02*
X0428039Y0235599D01*
X0428090Y0235572D01*
X0428139Y0235542D01*
X0428186Y0235509D01*
X0428231Y0235473D01*
X0428273Y0235433D01*
X0428312Y0235391D01*
X0428348Y0235347D01*
X0428381Y0235300D01*
X0428411Y0235250D01*
X0428438Y0235199D01*
X0428461Y0235147D01*
X0428480Y0235093D01*
X0428496Y0235037D01*
X0428508Y0234981D01*
X0428516Y0234924D01*
X0428520Y0234867D01*
X0428521Y0234809D01*
X0428517Y0234752D01*
X0428510Y0234695D01*
X0428498Y0234638D01*
X0428483Y0234583D01*
X0428465Y0234528D01*
X0428442Y0234475D01*
X0428416Y0234424D01*
X0428387Y0234375D01*
X0428354Y0234327D01*
X0428318Y0234282D01*
X0428280Y0234240D01*
X0428238Y0234200D01*
X0428194Y0234163D01*
X0428147Y0234129D01*
X0428099Y0234098D01*
X0428048Y0234071D01*
X0427996Y0234047D01*
X0427942Y0234027D01*
X0427887Y0234011D01*
X0427831Y0233998D01*
X0427774Y0233989D01*
X0427716Y0233984D01*
X0427659Y0233983D01*
X0428150Y0237588D02*
X0428043Y0237634D01*
X0427934Y0237677D01*
X0427824Y0237717D01*
X0427712Y0237753D01*
X0427600Y0237785D01*
X0427486Y0237814D01*
X0427372Y0237840D01*
X0427257Y0237861D01*
X0427142Y0237880D01*
X0427025Y0237894D01*
X0426909Y0237905D01*
X0426792Y0237912D01*
X0426675Y0237916D01*
X0426675Y0237917D02*
X0426618Y0237916D01*
X0426560Y0237911D01*
X0426503Y0237902D01*
X0426447Y0237889D01*
X0426392Y0237873D01*
X0426338Y0237853D01*
X0426286Y0237829D01*
X0426235Y0237802D01*
X0426187Y0237771D01*
X0426140Y0237737D01*
X0426096Y0237700D01*
X0426054Y0237660D01*
X0426016Y0237618D01*
X0425980Y0237573D01*
X0425947Y0237525D01*
X0425918Y0237476D01*
X0425892Y0237425D01*
X0425869Y0237372D01*
X0425851Y0237317D01*
X0425836Y0237262D01*
X0425824Y0237205D01*
X0425817Y0237148D01*
X0425813Y0237091D01*
X0425814Y0237033D01*
X0425818Y0236976D01*
X0425826Y0236919D01*
X0425838Y0236863D01*
X0425854Y0236807D01*
X0425873Y0236753D01*
X0425896Y0236701D01*
X0425923Y0236650D01*
X0425953Y0236600D01*
X0425986Y0236553D01*
X0426022Y0236509D01*
X0426061Y0236467D01*
X0426103Y0236427D01*
X0426148Y0236391D01*
X0426195Y0236358D01*
X0426244Y0236328D01*
X0426295Y0236301D01*
X0426347Y0236278D01*
X0425856Y0234311D02*
X0425990Y0234265D01*
X0426125Y0234222D01*
X0426261Y0234183D01*
X0426398Y0234147D01*
X0426535Y0234115D01*
X0426674Y0234086D01*
X0426813Y0234060D01*
X0426953Y0234039D01*
X0427094Y0234020D01*
X0427234Y0234006D01*
X0427376Y0233995D01*
X0427517Y0233987D01*
X0427659Y0233984D01*
X0431200Y0234966D02*
X0431200Y0236933D01*
X0431202Y0236995D01*
X0431208Y0237056D01*
X0431217Y0237117D01*
X0431231Y0237177D01*
X0431248Y0237237D01*
X0431269Y0237295D01*
X0431294Y0237352D01*
X0431322Y0237407D01*
X0431353Y0237460D01*
X0431388Y0237511D01*
X0431426Y0237560D01*
X0431466Y0237606D01*
X0431510Y0237650D01*
X0431556Y0237690D01*
X0431605Y0237728D01*
X0431656Y0237763D01*
X0431709Y0237794D01*
X0431764Y0237822D01*
X0431821Y0237847D01*
X0431879Y0237868D01*
X0431939Y0237885D01*
X0431999Y0237899D01*
X0432060Y0237908D01*
X0432121Y0237914D01*
X0432183Y0237916D01*
X0433494Y0237916D01*
X0435907Y0236605D02*
X0435907Y0235294D01*
X0435909Y0235223D01*
X0435915Y0235152D01*
X0435924Y0235082D01*
X0435938Y0235012D01*
X0435955Y0234943D01*
X0435976Y0234875D01*
X0436000Y0234809D01*
X0436028Y0234744D01*
X0436060Y0234680D01*
X0436095Y0234618D01*
X0436133Y0234558D01*
X0436174Y0234501D01*
X0436219Y0234445D01*
X0436266Y0234392D01*
X0436316Y0234342D01*
X0436369Y0234295D01*
X0436425Y0234250D01*
X0436482Y0234209D01*
X0436542Y0234171D01*
X0436604Y0234136D01*
X0436668Y0234104D01*
X0436733Y0234076D01*
X0436799Y0234052D01*
X0436867Y0234031D01*
X0436936Y0234014D01*
X0437006Y0234000D01*
X0437076Y0233991D01*
X0437147Y0233985D01*
X0437218Y0233983D01*
X0437289Y0233985D01*
X0437360Y0233991D01*
X0437430Y0234000D01*
X0437500Y0234014D01*
X0437569Y0234031D01*
X0437637Y0234052D01*
X0437703Y0234076D01*
X0437768Y0234104D01*
X0437832Y0234136D01*
X0437894Y0234171D01*
X0437954Y0234209D01*
X0438011Y0234250D01*
X0438067Y0234295D01*
X0438120Y0234342D01*
X0438170Y0234392D01*
X0438217Y0234445D01*
X0438262Y0234501D01*
X0438303Y0234558D01*
X0438341Y0234618D01*
X0438376Y0234680D01*
X0438408Y0234744D01*
X0438436Y0234809D01*
X0438460Y0234875D01*
X0438481Y0234943D01*
X0438498Y0235012D01*
X0438512Y0235082D01*
X0438521Y0235152D01*
X0438527Y0235223D01*
X0438529Y0235294D01*
X0438530Y0235294D02*
X0438530Y0236605D01*
X0438529Y0236605D02*
X0438527Y0236676D01*
X0438521Y0236747D01*
X0438512Y0236817D01*
X0438498Y0236887D01*
X0438481Y0236956D01*
X0438460Y0237024D01*
X0438436Y0237090D01*
X0438408Y0237155D01*
X0438376Y0237219D01*
X0438341Y0237281D01*
X0438303Y0237341D01*
X0438262Y0237398D01*
X0438217Y0237454D01*
X0438170Y0237507D01*
X0438120Y0237557D01*
X0438067Y0237604D01*
X0438011Y0237649D01*
X0437954Y0237690D01*
X0437894Y0237728D01*
X0437832Y0237763D01*
X0437768Y0237795D01*
X0437703Y0237823D01*
X0437637Y0237847D01*
X0437569Y0237868D01*
X0437500Y0237885D01*
X0437430Y0237899D01*
X0437360Y0237908D01*
X0437289Y0237914D01*
X0437218Y0237916D01*
X0437147Y0237914D01*
X0437076Y0237908D01*
X0437006Y0237899D01*
X0436936Y0237885D01*
X0436867Y0237868D01*
X0436799Y0237847D01*
X0436733Y0237823D01*
X0436668Y0237795D01*
X0436604Y0237763D01*
X0436542Y0237728D01*
X0436482Y0237690D01*
X0436425Y0237649D01*
X0436369Y0237604D01*
X0436316Y0237557D01*
X0436266Y0237507D01*
X0436219Y0237454D01*
X0436174Y0237398D01*
X0436133Y0237341D01*
X0436095Y0237281D01*
X0436060Y0237219D01*
X0436028Y0237155D01*
X0436000Y0237090D01*
X0435976Y0237024D01*
X0435955Y0236956D01*
X0435938Y0236887D01*
X0435924Y0236817D01*
X0435915Y0236747D01*
X0435909Y0236676D01*
X0435907Y0236605D01*
X0433494Y0233983D02*
X0432183Y0233983D01*
X0432121Y0233985D01*
X0432060Y0233991D01*
X0431999Y0234000D01*
X0431939Y0234014D01*
X0431879Y0234031D01*
X0431821Y0234052D01*
X0431764Y0234077D01*
X0431709Y0234105D01*
X0431656Y0234136D01*
X0431605Y0234171D01*
X0431556Y0234209D01*
X0431510Y0234249D01*
X0431466Y0234293D01*
X0431426Y0234339D01*
X0431388Y0234388D01*
X0431353Y0234439D01*
X0431322Y0234492D01*
X0431294Y0234547D01*
X0431269Y0234604D01*
X0431248Y0234662D01*
X0431231Y0234722D01*
X0431217Y0234782D01*
X0431208Y0234843D01*
X0431202Y0234904D01*
X0431200Y0234966D01*
X0441496Y0233983D02*
X0441496Y0237916D01*
X0443463Y0237916D01*
X0443463Y0237261D01*
X0445549Y0236605D02*
X0445549Y0234966D01*
X0445551Y0234904D01*
X0445557Y0234843D01*
X0445566Y0234782D01*
X0445580Y0234722D01*
X0445597Y0234662D01*
X0445618Y0234604D01*
X0445643Y0234547D01*
X0445671Y0234492D01*
X0445702Y0234439D01*
X0445737Y0234388D01*
X0445775Y0234339D01*
X0445815Y0234293D01*
X0445859Y0234249D01*
X0445905Y0234209D01*
X0445954Y0234171D01*
X0446005Y0234136D01*
X0446058Y0234105D01*
X0446113Y0234077D01*
X0446170Y0234052D01*
X0446228Y0234031D01*
X0446288Y0234014D01*
X0446348Y0234000D01*
X0446409Y0233991D01*
X0446470Y0233985D01*
X0446532Y0233983D01*
X0448171Y0233983D01*
X0448171Y0235950D02*
X0445549Y0235950D01*
X0445549Y0236605D02*
X0445551Y0236676D01*
X0445557Y0236747D01*
X0445566Y0236817D01*
X0445580Y0236887D01*
X0445597Y0236956D01*
X0445618Y0237024D01*
X0445642Y0237090D01*
X0445670Y0237155D01*
X0445702Y0237219D01*
X0445737Y0237281D01*
X0445775Y0237341D01*
X0445816Y0237398D01*
X0445861Y0237454D01*
X0445908Y0237507D01*
X0445958Y0237557D01*
X0446011Y0237604D01*
X0446067Y0237649D01*
X0446124Y0237690D01*
X0446184Y0237728D01*
X0446246Y0237763D01*
X0446310Y0237795D01*
X0446375Y0237823D01*
X0446441Y0237847D01*
X0446509Y0237868D01*
X0446578Y0237885D01*
X0446648Y0237899D01*
X0446718Y0237908D01*
X0446789Y0237914D01*
X0446860Y0237916D01*
X0446931Y0237914D01*
X0447002Y0237908D01*
X0447072Y0237899D01*
X0447142Y0237885D01*
X0447211Y0237868D01*
X0447279Y0237847D01*
X0447345Y0237823D01*
X0447410Y0237795D01*
X0447474Y0237763D01*
X0447536Y0237728D01*
X0447596Y0237690D01*
X0447653Y0237649D01*
X0447709Y0237604D01*
X0447762Y0237557D01*
X0447812Y0237507D01*
X0447859Y0237454D01*
X0447904Y0237398D01*
X0447945Y0237341D01*
X0447983Y0237281D01*
X0448018Y0237219D01*
X0448050Y0237155D01*
X0448078Y0237090D01*
X0448102Y0237024D01*
X0448123Y0236956D01*
X0448140Y0236887D01*
X0448154Y0236817D01*
X0448163Y0236747D01*
X0448169Y0236676D01*
X0448171Y0236605D01*
X0448171Y0235950D01*
X0448171Y0335983D02*
X0446532Y0335983D01*
X0446470Y0335985D01*
X0446409Y0335991D01*
X0446348Y0336000D01*
X0446288Y0336014D01*
X0446228Y0336031D01*
X0446170Y0336052D01*
X0446113Y0336077D01*
X0446058Y0336105D01*
X0446005Y0336136D01*
X0445954Y0336171D01*
X0445905Y0336209D01*
X0445859Y0336249D01*
X0445815Y0336293D01*
X0445775Y0336339D01*
X0445737Y0336388D01*
X0445702Y0336439D01*
X0445671Y0336492D01*
X0445643Y0336547D01*
X0445618Y0336604D01*
X0445597Y0336662D01*
X0445580Y0336722D01*
X0445566Y0336782D01*
X0445557Y0336843D01*
X0445551Y0336904D01*
X0445549Y0336966D01*
X0445549Y0338605D01*
X0445549Y0337950D02*
X0448171Y0337950D01*
X0448171Y0338605D01*
X0448169Y0338676D01*
X0448163Y0338747D01*
X0448154Y0338817D01*
X0448140Y0338887D01*
X0448123Y0338956D01*
X0448102Y0339024D01*
X0448078Y0339090D01*
X0448050Y0339155D01*
X0448018Y0339219D01*
X0447983Y0339281D01*
X0447945Y0339341D01*
X0447904Y0339398D01*
X0447859Y0339454D01*
X0447812Y0339507D01*
X0447762Y0339557D01*
X0447709Y0339604D01*
X0447653Y0339649D01*
X0447596Y0339690D01*
X0447536Y0339728D01*
X0447474Y0339763D01*
X0447410Y0339795D01*
X0447345Y0339823D01*
X0447279Y0339847D01*
X0447211Y0339868D01*
X0447142Y0339885D01*
X0447072Y0339899D01*
X0447002Y0339908D01*
X0446931Y0339914D01*
X0446860Y0339916D01*
X0446789Y0339914D01*
X0446718Y0339908D01*
X0446648Y0339899D01*
X0446578Y0339885D01*
X0446509Y0339868D01*
X0446441Y0339847D01*
X0446375Y0339823D01*
X0446310Y0339795D01*
X0446246Y0339763D01*
X0446184Y0339728D01*
X0446124Y0339690D01*
X0446067Y0339649D01*
X0446011Y0339604D01*
X0445958Y0339557D01*
X0445908Y0339507D01*
X0445861Y0339454D01*
X0445816Y0339398D01*
X0445775Y0339341D01*
X0445737Y0339281D01*
X0445702Y0339219D01*
X0445670Y0339155D01*
X0445642Y0339090D01*
X0445618Y0339024D01*
X0445597Y0338956D01*
X0445580Y0338887D01*
X0445566Y0338817D01*
X0445557Y0338747D01*
X0445551Y0338676D01*
X0445549Y0338605D01*
X0443463Y0339261D02*
X0443463Y0339916D01*
X0441496Y0339916D01*
X0441496Y0335983D01*
X0438530Y0337294D02*
X0438530Y0338605D01*
X0438529Y0338605D02*
X0438527Y0338676D01*
X0438521Y0338747D01*
X0438512Y0338817D01*
X0438498Y0338887D01*
X0438481Y0338956D01*
X0438460Y0339024D01*
X0438436Y0339090D01*
X0438408Y0339155D01*
X0438376Y0339219D01*
X0438341Y0339281D01*
X0438303Y0339341D01*
X0438262Y0339398D01*
X0438217Y0339454D01*
X0438170Y0339507D01*
X0438120Y0339557D01*
X0438067Y0339604D01*
X0438011Y0339649D01*
X0437954Y0339690D01*
X0437894Y0339728D01*
X0437832Y0339763D01*
X0437768Y0339795D01*
X0437703Y0339823D01*
X0437637Y0339847D01*
X0437569Y0339868D01*
X0437500Y0339885D01*
X0437430Y0339899D01*
X0437360Y0339908D01*
X0437289Y0339914D01*
X0437218Y0339916D01*
X0437147Y0339914D01*
X0437076Y0339908D01*
X0437006Y0339899D01*
X0436936Y0339885D01*
X0436867Y0339868D01*
X0436799Y0339847D01*
X0436733Y0339823D01*
X0436668Y0339795D01*
X0436604Y0339763D01*
X0436542Y0339728D01*
X0436482Y0339690D01*
X0436425Y0339649D01*
X0436369Y0339604D01*
X0436316Y0339557D01*
X0436266Y0339507D01*
X0436219Y0339454D01*
X0436174Y0339398D01*
X0436133Y0339341D01*
X0436095Y0339281D01*
X0436060Y0339219D01*
X0436028Y0339155D01*
X0436000Y0339090D01*
X0435976Y0339024D01*
X0435955Y0338956D01*
X0435938Y0338887D01*
X0435924Y0338817D01*
X0435915Y0338747D01*
X0435909Y0338676D01*
X0435907Y0338605D01*
X0435907Y0337294D01*
X0435909Y0337223D01*
X0435915Y0337152D01*
X0435924Y0337082D01*
X0435938Y0337012D01*
X0435955Y0336943D01*
X0435976Y0336875D01*
X0436000Y0336809D01*
X0436028Y0336744D01*
X0436060Y0336680D01*
X0436095Y0336618D01*
X0436133Y0336558D01*
X0436174Y0336501D01*
X0436219Y0336445D01*
X0436266Y0336392D01*
X0436316Y0336342D01*
X0436369Y0336295D01*
X0436425Y0336250D01*
X0436482Y0336209D01*
X0436542Y0336171D01*
X0436604Y0336136D01*
X0436668Y0336104D01*
X0436733Y0336076D01*
X0436799Y0336052D01*
X0436867Y0336031D01*
X0436936Y0336014D01*
X0437006Y0336000D01*
X0437076Y0335991D01*
X0437147Y0335985D01*
X0437218Y0335983D01*
X0437289Y0335985D01*
X0437360Y0335991D01*
X0437430Y0336000D01*
X0437500Y0336014D01*
X0437569Y0336031D01*
X0437637Y0336052D01*
X0437703Y0336076D01*
X0437768Y0336104D01*
X0437832Y0336136D01*
X0437894Y0336171D01*
X0437954Y0336209D01*
X0438011Y0336250D01*
X0438067Y0336295D01*
X0438120Y0336342D01*
X0438170Y0336392D01*
X0438217Y0336445D01*
X0438262Y0336501D01*
X0438303Y0336558D01*
X0438341Y0336618D01*
X0438376Y0336680D01*
X0438408Y0336744D01*
X0438436Y0336809D01*
X0438460Y0336875D01*
X0438481Y0336943D01*
X0438498Y0337012D01*
X0438512Y0337082D01*
X0438521Y0337152D01*
X0438527Y0337223D01*
X0438529Y0337294D01*
X0433494Y0335983D02*
X0432183Y0335983D01*
X0432121Y0335985D01*
X0432060Y0335991D01*
X0431999Y0336000D01*
X0431939Y0336014D01*
X0431879Y0336031D01*
X0431821Y0336052D01*
X0431764Y0336077D01*
X0431709Y0336105D01*
X0431656Y0336136D01*
X0431605Y0336171D01*
X0431556Y0336209D01*
X0431510Y0336249D01*
X0431466Y0336293D01*
X0431426Y0336339D01*
X0431388Y0336388D01*
X0431353Y0336439D01*
X0431322Y0336492D01*
X0431294Y0336547D01*
X0431269Y0336604D01*
X0431248Y0336662D01*
X0431231Y0336722D01*
X0431217Y0336782D01*
X0431208Y0336843D01*
X0431202Y0336904D01*
X0431200Y0336966D01*
X0431200Y0338933D01*
X0431202Y0338995D01*
X0431208Y0339056D01*
X0431217Y0339117D01*
X0431231Y0339177D01*
X0431248Y0339237D01*
X0431269Y0339295D01*
X0431294Y0339352D01*
X0431322Y0339407D01*
X0431353Y0339460D01*
X0431388Y0339511D01*
X0431426Y0339560D01*
X0431466Y0339606D01*
X0431510Y0339650D01*
X0431556Y0339690D01*
X0431605Y0339728D01*
X0431656Y0339763D01*
X0431709Y0339794D01*
X0431764Y0339822D01*
X0431821Y0339847D01*
X0431879Y0339868D01*
X0431939Y0339885D01*
X0431999Y0339899D01*
X0432060Y0339908D01*
X0432121Y0339914D01*
X0432183Y0339916D01*
X0433494Y0339916D01*
X0427986Y0337622D02*
X0426347Y0338278D01*
X0426295Y0338301D01*
X0426244Y0338328D01*
X0426195Y0338358D01*
X0426148Y0338391D01*
X0426103Y0338427D01*
X0426061Y0338467D01*
X0426022Y0338509D01*
X0425986Y0338553D01*
X0425953Y0338600D01*
X0425923Y0338650D01*
X0425896Y0338701D01*
X0425873Y0338753D01*
X0425854Y0338807D01*
X0425838Y0338863D01*
X0425826Y0338919D01*
X0425818Y0338976D01*
X0425814Y0339033D01*
X0425813Y0339091D01*
X0425817Y0339148D01*
X0425824Y0339205D01*
X0425836Y0339262D01*
X0425851Y0339317D01*
X0425869Y0339372D01*
X0425892Y0339425D01*
X0425918Y0339476D01*
X0425947Y0339525D01*
X0425980Y0339573D01*
X0426016Y0339618D01*
X0426054Y0339660D01*
X0426096Y0339700D01*
X0426140Y0339737D01*
X0426187Y0339771D01*
X0426235Y0339802D01*
X0426286Y0339829D01*
X0426338Y0339853D01*
X0426392Y0339873D01*
X0426447Y0339889D01*
X0426503Y0339902D01*
X0426560Y0339911D01*
X0426618Y0339916D01*
X0426675Y0339917D01*
X0425856Y0336311D02*
X0425990Y0336265D01*
X0426125Y0336222D01*
X0426261Y0336183D01*
X0426398Y0336147D01*
X0426535Y0336115D01*
X0426674Y0336086D01*
X0426813Y0336060D01*
X0426953Y0336039D01*
X0427094Y0336020D01*
X0427234Y0336006D01*
X0427376Y0335995D01*
X0427517Y0335987D01*
X0427659Y0335984D01*
X0427659Y0335983D02*
X0427716Y0335984D01*
X0427774Y0335989D01*
X0427831Y0335998D01*
X0427887Y0336011D01*
X0427942Y0336027D01*
X0427996Y0336047D01*
X0428048Y0336071D01*
X0428099Y0336098D01*
X0428147Y0336129D01*
X0428194Y0336163D01*
X0428238Y0336200D01*
X0428280Y0336240D01*
X0428318Y0336282D01*
X0428354Y0336327D01*
X0428387Y0336375D01*
X0428416Y0336424D01*
X0428442Y0336475D01*
X0428465Y0336528D01*
X0428483Y0336583D01*
X0428498Y0336638D01*
X0428510Y0336695D01*
X0428517Y0336752D01*
X0428521Y0336809D01*
X0428520Y0336867D01*
X0428516Y0336924D01*
X0428508Y0336981D01*
X0428496Y0337037D01*
X0428480Y0337093D01*
X0428461Y0337147D01*
X0428438Y0337199D01*
X0428411Y0337250D01*
X0428381Y0337300D01*
X0428348Y0337347D01*
X0428312Y0337391D01*
X0428273Y0337433D01*
X0428231Y0337473D01*
X0428186Y0337509D01*
X0428139Y0337542D01*
X0428090Y0337572D01*
X0428039Y0337599D01*
X0427987Y0337622D01*
X0428150Y0339588D02*
X0428043Y0339634D01*
X0427934Y0339677D01*
X0427824Y0339717D01*
X0427712Y0339753D01*
X0427600Y0339785D01*
X0427486Y0339814D01*
X0427372Y0339840D01*
X0427257Y0339861D01*
X0427142Y0339880D01*
X0427025Y0339894D01*
X0426909Y0339905D01*
X0426792Y0339912D01*
X0426675Y0339916D01*
X0422979Y0338278D02*
X0419046Y0338278D01*
X0416375Y0339916D02*
X0415064Y0335983D01*
X0413753Y0339916D01*
X0367171Y0395983D02*
X0365532Y0395983D01*
X0365470Y0395985D01*
X0365409Y0395991D01*
X0365348Y0396000D01*
X0365288Y0396014D01*
X0365228Y0396031D01*
X0365170Y0396052D01*
X0365113Y0396077D01*
X0365058Y0396105D01*
X0365005Y0396136D01*
X0364954Y0396171D01*
X0364905Y0396209D01*
X0364859Y0396249D01*
X0364815Y0396293D01*
X0364775Y0396339D01*
X0364737Y0396388D01*
X0364702Y0396439D01*
X0364671Y0396492D01*
X0364643Y0396547D01*
X0364618Y0396604D01*
X0364597Y0396662D01*
X0364580Y0396722D01*
X0364566Y0396782D01*
X0364557Y0396843D01*
X0364551Y0396904D01*
X0364549Y0396966D01*
X0364549Y0398605D01*
X0364549Y0397950D02*
X0367171Y0397950D01*
X0367171Y0398605D01*
X0367169Y0398676D01*
X0367163Y0398747D01*
X0367154Y0398817D01*
X0367140Y0398887D01*
X0367123Y0398956D01*
X0367102Y0399024D01*
X0367078Y0399090D01*
X0367050Y0399155D01*
X0367018Y0399219D01*
X0366983Y0399281D01*
X0366945Y0399341D01*
X0366904Y0399398D01*
X0366859Y0399454D01*
X0366812Y0399507D01*
X0366762Y0399557D01*
X0366709Y0399604D01*
X0366653Y0399649D01*
X0366596Y0399690D01*
X0366536Y0399728D01*
X0366474Y0399763D01*
X0366410Y0399795D01*
X0366345Y0399823D01*
X0366279Y0399847D01*
X0366211Y0399868D01*
X0366142Y0399885D01*
X0366072Y0399899D01*
X0366002Y0399908D01*
X0365931Y0399914D01*
X0365860Y0399916D01*
X0365789Y0399914D01*
X0365718Y0399908D01*
X0365648Y0399899D01*
X0365578Y0399885D01*
X0365509Y0399868D01*
X0365441Y0399847D01*
X0365375Y0399823D01*
X0365310Y0399795D01*
X0365246Y0399763D01*
X0365184Y0399728D01*
X0365124Y0399690D01*
X0365067Y0399649D01*
X0365011Y0399604D01*
X0364958Y0399557D01*
X0364908Y0399507D01*
X0364861Y0399454D01*
X0364816Y0399398D01*
X0364775Y0399341D01*
X0364737Y0399281D01*
X0364702Y0399219D01*
X0364670Y0399155D01*
X0364642Y0399090D01*
X0364618Y0399024D01*
X0364597Y0398956D01*
X0364580Y0398887D01*
X0364566Y0398817D01*
X0364557Y0398747D01*
X0364551Y0398676D01*
X0364549Y0398605D01*
X0362463Y0399261D02*
X0362463Y0399916D01*
X0360496Y0399916D01*
X0360496Y0395983D01*
X0357530Y0397294D02*
X0357530Y0398605D01*
X0357529Y0398605D02*
X0357527Y0398676D01*
X0357521Y0398747D01*
X0357512Y0398817D01*
X0357498Y0398887D01*
X0357481Y0398956D01*
X0357460Y0399024D01*
X0357436Y0399090D01*
X0357408Y0399155D01*
X0357376Y0399219D01*
X0357341Y0399281D01*
X0357303Y0399341D01*
X0357262Y0399398D01*
X0357217Y0399454D01*
X0357170Y0399507D01*
X0357120Y0399557D01*
X0357067Y0399604D01*
X0357011Y0399649D01*
X0356954Y0399690D01*
X0356894Y0399728D01*
X0356832Y0399763D01*
X0356768Y0399795D01*
X0356703Y0399823D01*
X0356637Y0399847D01*
X0356569Y0399868D01*
X0356500Y0399885D01*
X0356430Y0399899D01*
X0356360Y0399908D01*
X0356289Y0399914D01*
X0356218Y0399916D01*
X0356147Y0399914D01*
X0356076Y0399908D01*
X0356006Y0399899D01*
X0355936Y0399885D01*
X0355867Y0399868D01*
X0355799Y0399847D01*
X0355733Y0399823D01*
X0355668Y0399795D01*
X0355604Y0399763D01*
X0355542Y0399728D01*
X0355482Y0399690D01*
X0355425Y0399649D01*
X0355369Y0399604D01*
X0355316Y0399557D01*
X0355266Y0399507D01*
X0355219Y0399454D01*
X0355174Y0399398D01*
X0355133Y0399341D01*
X0355095Y0399281D01*
X0355060Y0399219D01*
X0355028Y0399155D01*
X0355000Y0399090D01*
X0354976Y0399024D01*
X0354955Y0398956D01*
X0354938Y0398887D01*
X0354924Y0398817D01*
X0354915Y0398747D01*
X0354909Y0398676D01*
X0354907Y0398605D01*
X0354907Y0397294D01*
X0354909Y0397223D01*
X0354915Y0397152D01*
X0354924Y0397082D01*
X0354938Y0397012D01*
X0354955Y0396943D01*
X0354976Y0396875D01*
X0355000Y0396809D01*
X0355028Y0396744D01*
X0355060Y0396680D01*
X0355095Y0396618D01*
X0355133Y0396558D01*
X0355174Y0396501D01*
X0355219Y0396445D01*
X0355266Y0396392D01*
X0355316Y0396342D01*
X0355369Y0396295D01*
X0355425Y0396250D01*
X0355482Y0396209D01*
X0355542Y0396171D01*
X0355604Y0396136D01*
X0355668Y0396104D01*
X0355733Y0396076D01*
X0355799Y0396052D01*
X0355867Y0396031D01*
X0355936Y0396014D01*
X0356006Y0396000D01*
X0356076Y0395991D01*
X0356147Y0395985D01*
X0356218Y0395983D01*
X0356289Y0395985D01*
X0356360Y0395991D01*
X0356430Y0396000D01*
X0356500Y0396014D01*
X0356569Y0396031D01*
X0356637Y0396052D01*
X0356703Y0396076D01*
X0356768Y0396104D01*
X0356832Y0396136D01*
X0356894Y0396171D01*
X0356954Y0396209D01*
X0357011Y0396250D01*
X0357067Y0396295D01*
X0357120Y0396342D01*
X0357170Y0396392D01*
X0357217Y0396445D01*
X0357262Y0396501D01*
X0357303Y0396558D01*
X0357341Y0396618D01*
X0357376Y0396680D01*
X0357408Y0396744D01*
X0357436Y0396809D01*
X0357460Y0396875D01*
X0357481Y0396943D01*
X0357498Y0397012D01*
X0357512Y0397082D01*
X0357521Y0397152D01*
X0357527Y0397223D01*
X0357529Y0397294D01*
X0352494Y0395983D02*
X0351183Y0395983D01*
X0351121Y0395985D01*
X0351060Y0395991D01*
X0350999Y0396000D01*
X0350939Y0396014D01*
X0350879Y0396031D01*
X0350821Y0396052D01*
X0350764Y0396077D01*
X0350709Y0396105D01*
X0350656Y0396136D01*
X0350605Y0396171D01*
X0350556Y0396209D01*
X0350510Y0396249D01*
X0350466Y0396293D01*
X0350426Y0396339D01*
X0350388Y0396388D01*
X0350353Y0396439D01*
X0350322Y0396492D01*
X0350294Y0396547D01*
X0350269Y0396604D01*
X0350248Y0396662D01*
X0350231Y0396722D01*
X0350217Y0396782D01*
X0350208Y0396843D01*
X0350202Y0396904D01*
X0350200Y0396966D01*
X0350200Y0398933D01*
X0350202Y0398995D01*
X0350208Y0399056D01*
X0350217Y0399117D01*
X0350231Y0399177D01*
X0350248Y0399237D01*
X0350269Y0399295D01*
X0350294Y0399352D01*
X0350322Y0399407D01*
X0350353Y0399460D01*
X0350388Y0399511D01*
X0350426Y0399560D01*
X0350466Y0399606D01*
X0350510Y0399650D01*
X0350556Y0399690D01*
X0350605Y0399728D01*
X0350656Y0399763D01*
X0350709Y0399794D01*
X0350764Y0399822D01*
X0350821Y0399847D01*
X0350879Y0399868D01*
X0350939Y0399885D01*
X0350999Y0399899D01*
X0351060Y0399908D01*
X0351121Y0399914D01*
X0351183Y0399916D01*
X0352494Y0399916D01*
X0346986Y0397622D02*
X0345347Y0398278D01*
X0345295Y0398301D01*
X0345244Y0398328D01*
X0345195Y0398358D01*
X0345148Y0398391D01*
X0345103Y0398427D01*
X0345061Y0398467D01*
X0345022Y0398509D01*
X0344986Y0398553D01*
X0344953Y0398600D01*
X0344923Y0398650D01*
X0344896Y0398701D01*
X0344873Y0398753D01*
X0344854Y0398807D01*
X0344838Y0398863D01*
X0344826Y0398919D01*
X0344818Y0398976D01*
X0344814Y0399033D01*
X0344813Y0399091D01*
X0344817Y0399148D01*
X0344824Y0399205D01*
X0344836Y0399262D01*
X0344851Y0399317D01*
X0344869Y0399372D01*
X0344892Y0399425D01*
X0344918Y0399476D01*
X0344947Y0399525D01*
X0344980Y0399573D01*
X0345016Y0399618D01*
X0345054Y0399660D01*
X0345096Y0399700D01*
X0345140Y0399737D01*
X0345187Y0399771D01*
X0345235Y0399802D01*
X0345286Y0399829D01*
X0345338Y0399853D01*
X0345392Y0399873D01*
X0345447Y0399889D01*
X0345503Y0399902D01*
X0345560Y0399911D01*
X0345618Y0399916D01*
X0345675Y0399917D01*
X0344856Y0396311D02*
X0344990Y0396265D01*
X0345125Y0396222D01*
X0345261Y0396183D01*
X0345398Y0396147D01*
X0345535Y0396115D01*
X0345674Y0396086D01*
X0345813Y0396060D01*
X0345953Y0396039D01*
X0346094Y0396020D01*
X0346234Y0396006D01*
X0346376Y0395995D01*
X0346517Y0395987D01*
X0346659Y0395984D01*
X0346659Y0395983D02*
X0346716Y0395984D01*
X0346774Y0395989D01*
X0346831Y0395998D01*
X0346887Y0396011D01*
X0346942Y0396027D01*
X0346996Y0396047D01*
X0347048Y0396071D01*
X0347099Y0396098D01*
X0347147Y0396129D01*
X0347194Y0396163D01*
X0347238Y0396200D01*
X0347280Y0396240D01*
X0347318Y0396282D01*
X0347354Y0396327D01*
X0347387Y0396375D01*
X0347416Y0396424D01*
X0347442Y0396475D01*
X0347465Y0396528D01*
X0347483Y0396583D01*
X0347498Y0396638D01*
X0347510Y0396695D01*
X0347517Y0396752D01*
X0347521Y0396809D01*
X0347520Y0396867D01*
X0347516Y0396924D01*
X0347508Y0396981D01*
X0347496Y0397037D01*
X0347480Y0397093D01*
X0347461Y0397147D01*
X0347438Y0397199D01*
X0347411Y0397250D01*
X0347381Y0397300D01*
X0347348Y0397347D01*
X0347312Y0397391D01*
X0347273Y0397433D01*
X0347231Y0397473D01*
X0347186Y0397509D01*
X0347139Y0397542D01*
X0347090Y0397572D01*
X0347039Y0397599D01*
X0346987Y0397622D01*
X0347150Y0399588D02*
X0347043Y0399634D01*
X0346934Y0399677D01*
X0346824Y0399717D01*
X0346712Y0399753D01*
X0346600Y0399785D01*
X0346486Y0399814D01*
X0346372Y0399840D01*
X0346257Y0399861D01*
X0346142Y0399880D01*
X0346025Y0399894D01*
X0345909Y0399905D01*
X0345792Y0399912D01*
X0345675Y0399916D01*
X0341979Y0398278D02*
X0338046Y0398278D01*
X0335375Y0399916D02*
X0334064Y0395983D01*
X0332753Y0399916D01*
X0265171Y0398605D02*
X0265171Y0397950D01*
X0262549Y0397950D01*
X0262549Y0398605D02*
X0262549Y0396966D01*
X0262551Y0396904D01*
X0262557Y0396843D01*
X0262566Y0396782D01*
X0262580Y0396722D01*
X0262597Y0396662D01*
X0262618Y0396604D01*
X0262643Y0396547D01*
X0262671Y0396492D01*
X0262702Y0396439D01*
X0262737Y0396388D01*
X0262775Y0396339D01*
X0262815Y0396293D01*
X0262859Y0396249D01*
X0262905Y0396209D01*
X0262954Y0396171D01*
X0263005Y0396136D01*
X0263058Y0396105D01*
X0263113Y0396077D01*
X0263170Y0396052D01*
X0263228Y0396031D01*
X0263288Y0396014D01*
X0263348Y0396000D01*
X0263409Y0395991D01*
X0263470Y0395985D01*
X0263532Y0395983D01*
X0265171Y0395983D01*
X0265171Y0398605D02*
X0265169Y0398676D01*
X0265163Y0398747D01*
X0265154Y0398817D01*
X0265140Y0398887D01*
X0265123Y0398956D01*
X0265102Y0399024D01*
X0265078Y0399090D01*
X0265050Y0399155D01*
X0265018Y0399219D01*
X0264983Y0399281D01*
X0264945Y0399341D01*
X0264904Y0399398D01*
X0264859Y0399454D01*
X0264812Y0399507D01*
X0264762Y0399557D01*
X0264709Y0399604D01*
X0264653Y0399649D01*
X0264596Y0399690D01*
X0264536Y0399728D01*
X0264474Y0399763D01*
X0264410Y0399795D01*
X0264345Y0399823D01*
X0264279Y0399847D01*
X0264211Y0399868D01*
X0264142Y0399885D01*
X0264072Y0399899D01*
X0264002Y0399908D01*
X0263931Y0399914D01*
X0263860Y0399916D01*
X0263789Y0399914D01*
X0263718Y0399908D01*
X0263648Y0399899D01*
X0263578Y0399885D01*
X0263509Y0399868D01*
X0263441Y0399847D01*
X0263375Y0399823D01*
X0263310Y0399795D01*
X0263246Y0399763D01*
X0263184Y0399728D01*
X0263124Y0399690D01*
X0263067Y0399649D01*
X0263011Y0399604D01*
X0262958Y0399557D01*
X0262908Y0399507D01*
X0262861Y0399454D01*
X0262816Y0399398D01*
X0262775Y0399341D01*
X0262737Y0399281D01*
X0262702Y0399219D01*
X0262670Y0399155D01*
X0262642Y0399090D01*
X0262618Y0399024D01*
X0262597Y0398956D01*
X0262580Y0398887D01*
X0262566Y0398817D01*
X0262557Y0398747D01*
X0262551Y0398676D01*
X0262549Y0398605D01*
X0260463Y0399261D02*
X0260463Y0399916D01*
X0258496Y0399916D01*
X0258496Y0395983D01*
X0255530Y0397294D02*
X0255530Y0398605D01*
X0255529Y0398605D02*
X0255527Y0398676D01*
X0255521Y0398747D01*
X0255512Y0398817D01*
X0255498Y0398887D01*
X0255481Y0398956D01*
X0255460Y0399024D01*
X0255436Y0399090D01*
X0255408Y0399155D01*
X0255376Y0399219D01*
X0255341Y0399281D01*
X0255303Y0399341D01*
X0255262Y0399398D01*
X0255217Y0399454D01*
X0255170Y0399507D01*
X0255120Y0399557D01*
X0255067Y0399604D01*
X0255011Y0399649D01*
X0254954Y0399690D01*
X0254894Y0399728D01*
X0254832Y0399763D01*
X0254768Y0399795D01*
X0254703Y0399823D01*
X0254637Y0399847D01*
X0254569Y0399868D01*
X0254500Y0399885D01*
X0254430Y0399899D01*
X0254360Y0399908D01*
X0254289Y0399914D01*
X0254218Y0399916D01*
X0254147Y0399914D01*
X0254076Y0399908D01*
X0254006Y0399899D01*
X0253936Y0399885D01*
X0253867Y0399868D01*
X0253799Y0399847D01*
X0253733Y0399823D01*
X0253668Y0399795D01*
X0253604Y0399763D01*
X0253542Y0399728D01*
X0253482Y0399690D01*
X0253425Y0399649D01*
X0253369Y0399604D01*
X0253316Y0399557D01*
X0253266Y0399507D01*
X0253219Y0399454D01*
X0253174Y0399398D01*
X0253133Y0399341D01*
X0253095Y0399281D01*
X0253060Y0399219D01*
X0253028Y0399155D01*
X0253000Y0399090D01*
X0252976Y0399024D01*
X0252955Y0398956D01*
X0252938Y0398887D01*
X0252924Y0398817D01*
X0252915Y0398747D01*
X0252909Y0398676D01*
X0252907Y0398605D01*
X0252907Y0397294D01*
X0252909Y0397223D01*
X0252915Y0397152D01*
X0252924Y0397082D01*
X0252938Y0397012D01*
X0252955Y0396943D01*
X0252976Y0396875D01*
X0253000Y0396809D01*
X0253028Y0396744D01*
X0253060Y0396680D01*
X0253095Y0396618D01*
X0253133Y0396558D01*
X0253174Y0396501D01*
X0253219Y0396445D01*
X0253266Y0396392D01*
X0253316Y0396342D01*
X0253369Y0396295D01*
X0253425Y0396250D01*
X0253482Y0396209D01*
X0253542Y0396171D01*
X0253604Y0396136D01*
X0253668Y0396104D01*
X0253733Y0396076D01*
X0253799Y0396052D01*
X0253867Y0396031D01*
X0253936Y0396014D01*
X0254006Y0396000D01*
X0254076Y0395991D01*
X0254147Y0395985D01*
X0254218Y0395983D01*
X0254289Y0395985D01*
X0254360Y0395991D01*
X0254430Y0396000D01*
X0254500Y0396014D01*
X0254569Y0396031D01*
X0254637Y0396052D01*
X0254703Y0396076D01*
X0254768Y0396104D01*
X0254832Y0396136D01*
X0254894Y0396171D01*
X0254954Y0396209D01*
X0255011Y0396250D01*
X0255067Y0396295D01*
X0255120Y0396342D01*
X0255170Y0396392D01*
X0255217Y0396445D01*
X0255262Y0396501D01*
X0255303Y0396558D01*
X0255341Y0396618D01*
X0255376Y0396680D01*
X0255408Y0396744D01*
X0255436Y0396809D01*
X0255460Y0396875D01*
X0255481Y0396943D01*
X0255498Y0397012D01*
X0255512Y0397082D01*
X0255521Y0397152D01*
X0255527Y0397223D01*
X0255529Y0397294D01*
X0250494Y0395983D02*
X0249183Y0395983D01*
X0249121Y0395985D01*
X0249060Y0395991D01*
X0248999Y0396000D01*
X0248939Y0396014D01*
X0248879Y0396031D01*
X0248821Y0396052D01*
X0248764Y0396077D01*
X0248709Y0396105D01*
X0248656Y0396136D01*
X0248605Y0396171D01*
X0248556Y0396209D01*
X0248510Y0396249D01*
X0248466Y0396293D01*
X0248426Y0396339D01*
X0248388Y0396388D01*
X0248353Y0396439D01*
X0248322Y0396492D01*
X0248294Y0396547D01*
X0248269Y0396604D01*
X0248248Y0396662D01*
X0248231Y0396722D01*
X0248217Y0396782D01*
X0248208Y0396843D01*
X0248202Y0396904D01*
X0248200Y0396966D01*
X0248200Y0398933D01*
X0248202Y0398995D01*
X0248208Y0399056D01*
X0248217Y0399117D01*
X0248231Y0399177D01*
X0248248Y0399237D01*
X0248269Y0399295D01*
X0248294Y0399352D01*
X0248322Y0399407D01*
X0248353Y0399460D01*
X0248388Y0399511D01*
X0248426Y0399560D01*
X0248466Y0399606D01*
X0248510Y0399650D01*
X0248556Y0399690D01*
X0248605Y0399728D01*
X0248656Y0399763D01*
X0248709Y0399794D01*
X0248764Y0399822D01*
X0248821Y0399847D01*
X0248879Y0399868D01*
X0248939Y0399885D01*
X0248999Y0399899D01*
X0249060Y0399908D01*
X0249121Y0399914D01*
X0249183Y0399916D01*
X0250494Y0399916D01*
X0244986Y0397622D02*
X0243347Y0398278D01*
X0243295Y0398301D01*
X0243244Y0398328D01*
X0243195Y0398358D01*
X0243148Y0398391D01*
X0243103Y0398427D01*
X0243061Y0398467D01*
X0243022Y0398509D01*
X0242986Y0398553D01*
X0242953Y0398600D01*
X0242923Y0398650D01*
X0242896Y0398701D01*
X0242873Y0398753D01*
X0242854Y0398807D01*
X0242838Y0398863D01*
X0242826Y0398919D01*
X0242818Y0398976D01*
X0242814Y0399033D01*
X0242813Y0399091D01*
X0242817Y0399148D01*
X0242824Y0399205D01*
X0242836Y0399262D01*
X0242851Y0399317D01*
X0242869Y0399372D01*
X0242892Y0399425D01*
X0242918Y0399476D01*
X0242947Y0399525D01*
X0242980Y0399573D01*
X0243016Y0399618D01*
X0243054Y0399660D01*
X0243096Y0399700D01*
X0243140Y0399737D01*
X0243187Y0399771D01*
X0243235Y0399802D01*
X0243286Y0399829D01*
X0243338Y0399853D01*
X0243392Y0399873D01*
X0243447Y0399889D01*
X0243503Y0399902D01*
X0243560Y0399911D01*
X0243618Y0399916D01*
X0243675Y0399917D01*
X0242856Y0396311D02*
X0242990Y0396265D01*
X0243125Y0396222D01*
X0243261Y0396183D01*
X0243398Y0396147D01*
X0243535Y0396115D01*
X0243674Y0396086D01*
X0243813Y0396060D01*
X0243953Y0396039D01*
X0244094Y0396020D01*
X0244234Y0396006D01*
X0244376Y0395995D01*
X0244517Y0395987D01*
X0244659Y0395984D01*
X0244659Y0395983D02*
X0244716Y0395984D01*
X0244774Y0395989D01*
X0244831Y0395998D01*
X0244887Y0396011D01*
X0244942Y0396027D01*
X0244996Y0396047D01*
X0245048Y0396071D01*
X0245099Y0396098D01*
X0245147Y0396129D01*
X0245194Y0396163D01*
X0245238Y0396200D01*
X0245280Y0396240D01*
X0245318Y0396282D01*
X0245354Y0396327D01*
X0245387Y0396375D01*
X0245416Y0396424D01*
X0245442Y0396475D01*
X0245465Y0396528D01*
X0245483Y0396583D01*
X0245498Y0396638D01*
X0245510Y0396695D01*
X0245517Y0396752D01*
X0245521Y0396809D01*
X0245520Y0396867D01*
X0245516Y0396924D01*
X0245508Y0396981D01*
X0245496Y0397037D01*
X0245480Y0397093D01*
X0245461Y0397147D01*
X0245438Y0397199D01*
X0245411Y0397250D01*
X0245381Y0397300D01*
X0245348Y0397347D01*
X0245312Y0397391D01*
X0245273Y0397433D01*
X0245231Y0397473D01*
X0245186Y0397509D01*
X0245139Y0397542D01*
X0245090Y0397572D01*
X0245039Y0397599D01*
X0244987Y0397622D01*
X0245150Y0399588D02*
X0245043Y0399634D01*
X0244934Y0399677D01*
X0244824Y0399717D01*
X0244712Y0399753D01*
X0244600Y0399785D01*
X0244486Y0399814D01*
X0244372Y0399840D01*
X0244257Y0399861D01*
X0244142Y0399880D01*
X0244025Y0399894D01*
X0243909Y0399905D01*
X0243792Y0399912D01*
X0243675Y0399916D01*
X0239979Y0398278D02*
X0236046Y0398278D01*
X0233375Y0399916D02*
X0232064Y0395983D01*
X0230753Y0399916D01*
X0163171Y0398605D02*
X0163171Y0397950D01*
X0160549Y0397950D01*
X0160549Y0398605D02*
X0160549Y0396966D01*
X0160551Y0396904D01*
X0160557Y0396843D01*
X0160566Y0396782D01*
X0160580Y0396722D01*
X0160597Y0396662D01*
X0160618Y0396604D01*
X0160643Y0396547D01*
X0160671Y0396492D01*
X0160702Y0396439D01*
X0160737Y0396388D01*
X0160775Y0396339D01*
X0160815Y0396293D01*
X0160859Y0396249D01*
X0160905Y0396209D01*
X0160954Y0396171D01*
X0161005Y0396136D01*
X0161058Y0396105D01*
X0161113Y0396077D01*
X0161170Y0396052D01*
X0161228Y0396031D01*
X0161288Y0396014D01*
X0161348Y0396000D01*
X0161409Y0395991D01*
X0161470Y0395985D01*
X0161532Y0395983D01*
X0163171Y0395983D01*
X0163171Y0398605D02*
X0163169Y0398676D01*
X0163163Y0398747D01*
X0163154Y0398817D01*
X0163140Y0398887D01*
X0163123Y0398956D01*
X0163102Y0399024D01*
X0163078Y0399090D01*
X0163050Y0399155D01*
X0163018Y0399219D01*
X0162983Y0399281D01*
X0162945Y0399341D01*
X0162904Y0399398D01*
X0162859Y0399454D01*
X0162812Y0399507D01*
X0162762Y0399557D01*
X0162709Y0399604D01*
X0162653Y0399649D01*
X0162596Y0399690D01*
X0162536Y0399728D01*
X0162474Y0399763D01*
X0162410Y0399795D01*
X0162345Y0399823D01*
X0162279Y0399847D01*
X0162211Y0399868D01*
X0162142Y0399885D01*
X0162072Y0399899D01*
X0162002Y0399908D01*
X0161931Y0399914D01*
X0161860Y0399916D01*
X0161789Y0399914D01*
X0161718Y0399908D01*
X0161648Y0399899D01*
X0161578Y0399885D01*
X0161509Y0399868D01*
X0161441Y0399847D01*
X0161375Y0399823D01*
X0161310Y0399795D01*
X0161246Y0399763D01*
X0161184Y0399728D01*
X0161124Y0399690D01*
X0161067Y0399649D01*
X0161011Y0399604D01*
X0160958Y0399557D01*
X0160908Y0399507D01*
X0160861Y0399454D01*
X0160816Y0399398D01*
X0160775Y0399341D01*
X0160737Y0399281D01*
X0160702Y0399219D01*
X0160670Y0399155D01*
X0160642Y0399090D01*
X0160618Y0399024D01*
X0160597Y0398956D01*
X0160580Y0398887D01*
X0160566Y0398817D01*
X0160557Y0398747D01*
X0160551Y0398676D01*
X0160549Y0398605D01*
X0158463Y0399261D02*
X0158463Y0399916D01*
X0156496Y0399916D01*
X0156496Y0395983D01*
X0153530Y0397294D02*
X0153530Y0398605D01*
X0153529Y0398605D02*
X0153527Y0398676D01*
X0153521Y0398747D01*
X0153512Y0398817D01*
X0153498Y0398887D01*
X0153481Y0398956D01*
X0153460Y0399024D01*
X0153436Y0399090D01*
X0153408Y0399155D01*
X0153376Y0399219D01*
X0153341Y0399281D01*
X0153303Y0399341D01*
X0153262Y0399398D01*
X0153217Y0399454D01*
X0153170Y0399507D01*
X0153120Y0399557D01*
X0153067Y0399604D01*
X0153011Y0399649D01*
X0152954Y0399690D01*
X0152894Y0399728D01*
X0152832Y0399763D01*
X0152768Y0399795D01*
X0152703Y0399823D01*
X0152637Y0399847D01*
X0152569Y0399868D01*
X0152500Y0399885D01*
X0152430Y0399899D01*
X0152360Y0399908D01*
X0152289Y0399914D01*
X0152218Y0399916D01*
X0152147Y0399914D01*
X0152076Y0399908D01*
X0152006Y0399899D01*
X0151936Y0399885D01*
X0151867Y0399868D01*
X0151799Y0399847D01*
X0151733Y0399823D01*
X0151668Y0399795D01*
X0151604Y0399763D01*
X0151542Y0399728D01*
X0151482Y0399690D01*
X0151425Y0399649D01*
X0151369Y0399604D01*
X0151316Y0399557D01*
X0151266Y0399507D01*
X0151219Y0399454D01*
X0151174Y0399398D01*
X0151133Y0399341D01*
X0151095Y0399281D01*
X0151060Y0399219D01*
X0151028Y0399155D01*
X0151000Y0399090D01*
X0150976Y0399024D01*
X0150955Y0398956D01*
X0150938Y0398887D01*
X0150924Y0398817D01*
X0150915Y0398747D01*
X0150909Y0398676D01*
X0150907Y0398605D01*
X0150907Y0397294D01*
X0150909Y0397223D01*
X0150915Y0397152D01*
X0150924Y0397082D01*
X0150938Y0397012D01*
X0150955Y0396943D01*
X0150976Y0396875D01*
X0151000Y0396809D01*
X0151028Y0396744D01*
X0151060Y0396680D01*
X0151095Y0396618D01*
X0151133Y0396558D01*
X0151174Y0396501D01*
X0151219Y0396445D01*
X0151266Y0396392D01*
X0151316Y0396342D01*
X0151369Y0396295D01*
X0151425Y0396250D01*
X0151482Y0396209D01*
X0151542Y0396171D01*
X0151604Y0396136D01*
X0151668Y0396104D01*
X0151733Y0396076D01*
X0151799Y0396052D01*
X0151867Y0396031D01*
X0151936Y0396014D01*
X0152006Y0396000D01*
X0152076Y0395991D01*
X0152147Y0395985D01*
X0152218Y0395983D01*
X0152289Y0395985D01*
X0152360Y0395991D01*
X0152430Y0396000D01*
X0152500Y0396014D01*
X0152569Y0396031D01*
X0152637Y0396052D01*
X0152703Y0396076D01*
X0152768Y0396104D01*
X0152832Y0396136D01*
X0152894Y0396171D01*
X0152954Y0396209D01*
X0153011Y0396250D01*
X0153067Y0396295D01*
X0153120Y0396342D01*
X0153170Y0396392D01*
X0153217Y0396445D01*
X0153262Y0396501D01*
X0153303Y0396558D01*
X0153341Y0396618D01*
X0153376Y0396680D01*
X0153408Y0396744D01*
X0153436Y0396809D01*
X0153460Y0396875D01*
X0153481Y0396943D01*
X0153498Y0397012D01*
X0153512Y0397082D01*
X0153521Y0397152D01*
X0153527Y0397223D01*
X0153529Y0397294D01*
X0148494Y0395983D02*
X0147183Y0395983D01*
X0147121Y0395985D01*
X0147060Y0395991D01*
X0146999Y0396000D01*
X0146939Y0396014D01*
X0146879Y0396031D01*
X0146821Y0396052D01*
X0146764Y0396077D01*
X0146709Y0396105D01*
X0146656Y0396136D01*
X0146605Y0396171D01*
X0146556Y0396209D01*
X0146510Y0396249D01*
X0146466Y0396293D01*
X0146426Y0396339D01*
X0146388Y0396388D01*
X0146353Y0396439D01*
X0146322Y0396492D01*
X0146294Y0396547D01*
X0146269Y0396604D01*
X0146248Y0396662D01*
X0146231Y0396722D01*
X0146217Y0396782D01*
X0146208Y0396843D01*
X0146202Y0396904D01*
X0146200Y0396966D01*
X0146200Y0398933D01*
X0146202Y0398995D01*
X0146208Y0399056D01*
X0146217Y0399117D01*
X0146231Y0399177D01*
X0146248Y0399237D01*
X0146269Y0399295D01*
X0146294Y0399352D01*
X0146322Y0399407D01*
X0146353Y0399460D01*
X0146388Y0399511D01*
X0146426Y0399560D01*
X0146466Y0399606D01*
X0146510Y0399650D01*
X0146556Y0399690D01*
X0146605Y0399728D01*
X0146656Y0399763D01*
X0146709Y0399794D01*
X0146764Y0399822D01*
X0146821Y0399847D01*
X0146879Y0399868D01*
X0146939Y0399885D01*
X0146999Y0399899D01*
X0147060Y0399908D01*
X0147121Y0399914D01*
X0147183Y0399916D01*
X0148494Y0399916D01*
X0142986Y0397622D02*
X0141347Y0398278D01*
X0141295Y0398301D01*
X0141244Y0398328D01*
X0141195Y0398358D01*
X0141148Y0398391D01*
X0141103Y0398427D01*
X0141061Y0398467D01*
X0141022Y0398509D01*
X0140986Y0398553D01*
X0140953Y0398600D01*
X0140923Y0398650D01*
X0140896Y0398701D01*
X0140873Y0398753D01*
X0140854Y0398807D01*
X0140838Y0398863D01*
X0140826Y0398919D01*
X0140818Y0398976D01*
X0140814Y0399033D01*
X0140813Y0399091D01*
X0140817Y0399148D01*
X0140824Y0399205D01*
X0140836Y0399262D01*
X0140851Y0399317D01*
X0140869Y0399372D01*
X0140892Y0399425D01*
X0140918Y0399476D01*
X0140947Y0399525D01*
X0140980Y0399573D01*
X0141016Y0399618D01*
X0141054Y0399660D01*
X0141096Y0399700D01*
X0141140Y0399737D01*
X0141187Y0399771D01*
X0141235Y0399802D01*
X0141286Y0399829D01*
X0141338Y0399853D01*
X0141392Y0399873D01*
X0141447Y0399889D01*
X0141503Y0399902D01*
X0141560Y0399911D01*
X0141618Y0399916D01*
X0141675Y0399917D01*
X0140856Y0396311D02*
X0140990Y0396265D01*
X0141125Y0396222D01*
X0141261Y0396183D01*
X0141398Y0396147D01*
X0141535Y0396115D01*
X0141674Y0396086D01*
X0141813Y0396060D01*
X0141953Y0396039D01*
X0142094Y0396020D01*
X0142234Y0396006D01*
X0142376Y0395995D01*
X0142517Y0395987D01*
X0142659Y0395984D01*
X0142659Y0395983D02*
X0142716Y0395984D01*
X0142774Y0395989D01*
X0142831Y0395998D01*
X0142887Y0396011D01*
X0142942Y0396027D01*
X0142996Y0396047D01*
X0143048Y0396071D01*
X0143099Y0396098D01*
X0143147Y0396129D01*
X0143194Y0396163D01*
X0143238Y0396200D01*
X0143280Y0396240D01*
X0143318Y0396282D01*
X0143354Y0396327D01*
X0143387Y0396375D01*
X0143416Y0396424D01*
X0143442Y0396475D01*
X0143465Y0396528D01*
X0143483Y0396583D01*
X0143498Y0396638D01*
X0143510Y0396695D01*
X0143517Y0396752D01*
X0143521Y0396809D01*
X0143520Y0396867D01*
X0143516Y0396924D01*
X0143508Y0396981D01*
X0143496Y0397037D01*
X0143480Y0397093D01*
X0143461Y0397147D01*
X0143438Y0397199D01*
X0143411Y0397250D01*
X0143381Y0397300D01*
X0143348Y0397347D01*
X0143312Y0397391D01*
X0143273Y0397433D01*
X0143231Y0397473D01*
X0143186Y0397509D01*
X0143139Y0397542D01*
X0143090Y0397572D01*
X0143039Y0397599D01*
X0142987Y0397622D01*
X0143150Y0399588D02*
X0143043Y0399634D01*
X0142934Y0399677D01*
X0142824Y0399717D01*
X0142712Y0399753D01*
X0142600Y0399785D01*
X0142486Y0399814D01*
X0142372Y0399840D01*
X0142257Y0399861D01*
X0142142Y0399880D01*
X0142025Y0399894D01*
X0141909Y0399905D01*
X0141792Y0399912D01*
X0141675Y0399916D01*
X0137979Y0398278D02*
X0134046Y0398278D01*
X0131375Y0399916D02*
X0130064Y0395983D01*
X0128753Y0399916D01*
X0061171Y0398605D02*
X0061171Y0397950D01*
X0058549Y0397950D01*
X0058549Y0398605D02*
X0058549Y0396966D01*
X0058551Y0396904D01*
X0058557Y0396843D01*
X0058566Y0396782D01*
X0058580Y0396722D01*
X0058597Y0396662D01*
X0058618Y0396604D01*
X0058643Y0396547D01*
X0058671Y0396492D01*
X0058702Y0396439D01*
X0058737Y0396388D01*
X0058775Y0396339D01*
X0058815Y0396293D01*
X0058859Y0396249D01*
X0058905Y0396209D01*
X0058954Y0396171D01*
X0059005Y0396136D01*
X0059058Y0396105D01*
X0059113Y0396077D01*
X0059170Y0396052D01*
X0059228Y0396031D01*
X0059288Y0396014D01*
X0059348Y0396000D01*
X0059409Y0395991D01*
X0059470Y0395985D01*
X0059532Y0395983D01*
X0061171Y0395983D01*
X0061171Y0398605D02*
X0061169Y0398676D01*
X0061163Y0398747D01*
X0061154Y0398817D01*
X0061140Y0398887D01*
X0061123Y0398956D01*
X0061102Y0399024D01*
X0061078Y0399090D01*
X0061050Y0399155D01*
X0061018Y0399219D01*
X0060983Y0399281D01*
X0060945Y0399341D01*
X0060904Y0399398D01*
X0060859Y0399454D01*
X0060812Y0399507D01*
X0060762Y0399557D01*
X0060709Y0399604D01*
X0060653Y0399649D01*
X0060596Y0399690D01*
X0060536Y0399728D01*
X0060474Y0399763D01*
X0060410Y0399795D01*
X0060345Y0399823D01*
X0060279Y0399847D01*
X0060211Y0399868D01*
X0060142Y0399885D01*
X0060072Y0399899D01*
X0060002Y0399908D01*
X0059931Y0399914D01*
X0059860Y0399916D01*
X0059789Y0399914D01*
X0059718Y0399908D01*
X0059648Y0399899D01*
X0059578Y0399885D01*
X0059509Y0399868D01*
X0059441Y0399847D01*
X0059375Y0399823D01*
X0059310Y0399795D01*
X0059246Y0399763D01*
X0059184Y0399728D01*
X0059124Y0399690D01*
X0059067Y0399649D01*
X0059011Y0399604D01*
X0058958Y0399557D01*
X0058908Y0399507D01*
X0058861Y0399454D01*
X0058816Y0399398D01*
X0058775Y0399341D01*
X0058737Y0399281D01*
X0058702Y0399219D01*
X0058670Y0399155D01*
X0058642Y0399090D01*
X0058618Y0399024D01*
X0058597Y0398956D01*
X0058580Y0398887D01*
X0058566Y0398817D01*
X0058557Y0398747D01*
X0058551Y0398676D01*
X0058549Y0398605D01*
X0056463Y0399261D02*
X0056463Y0399916D01*
X0054496Y0399916D01*
X0054496Y0395983D01*
X0051530Y0397294D02*
X0051530Y0398605D01*
X0051529Y0398605D02*
X0051527Y0398676D01*
X0051521Y0398747D01*
X0051512Y0398817D01*
X0051498Y0398887D01*
X0051481Y0398956D01*
X0051460Y0399024D01*
X0051436Y0399090D01*
X0051408Y0399155D01*
X0051376Y0399219D01*
X0051341Y0399281D01*
X0051303Y0399341D01*
X0051262Y0399398D01*
X0051217Y0399454D01*
X0051170Y0399507D01*
X0051120Y0399557D01*
X0051067Y0399604D01*
X0051011Y0399649D01*
X0050954Y0399690D01*
X0050894Y0399728D01*
X0050832Y0399763D01*
X0050768Y0399795D01*
X0050703Y0399823D01*
X0050637Y0399847D01*
X0050569Y0399868D01*
X0050500Y0399885D01*
X0050430Y0399899D01*
X0050360Y0399908D01*
X0050289Y0399914D01*
X0050218Y0399916D01*
X0050147Y0399914D01*
X0050076Y0399908D01*
X0050006Y0399899D01*
X0049936Y0399885D01*
X0049867Y0399868D01*
X0049799Y0399847D01*
X0049733Y0399823D01*
X0049668Y0399795D01*
X0049604Y0399763D01*
X0049542Y0399728D01*
X0049482Y0399690D01*
X0049425Y0399649D01*
X0049369Y0399604D01*
X0049316Y0399557D01*
X0049266Y0399507D01*
X0049219Y0399454D01*
X0049174Y0399398D01*
X0049133Y0399341D01*
X0049095Y0399281D01*
X0049060Y0399219D01*
X0049028Y0399155D01*
X0049000Y0399090D01*
X0048976Y0399024D01*
X0048955Y0398956D01*
X0048938Y0398887D01*
X0048924Y0398817D01*
X0048915Y0398747D01*
X0048909Y0398676D01*
X0048907Y0398605D01*
X0048907Y0397294D01*
X0048909Y0397223D01*
X0048915Y0397152D01*
X0048924Y0397082D01*
X0048938Y0397012D01*
X0048955Y0396943D01*
X0048976Y0396875D01*
X0049000Y0396809D01*
X0049028Y0396744D01*
X0049060Y0396680D01*
X0049095Y0396618D01*
X0049133Y0396558D01*
X0049174Y0396501D01*
X0049219Y0396445D01*
X0049266Y0396392D01*
X0049316Y0396342D01*
X0049369Y0396295D01*
X0049425Y0396250D01*
X0049482Y0396209D01*
X0049542Y0396171D01*
X0049604Y0396136D01*
X0049668Y0396104D01*
X0049733Y0396076D01*
X0049799Y0396052D01*
X0049867Y0396031D01*
X0049936Y0396014D01*
X0050006Y0396000D01*
X0050076Y0395991D01*
X0050147Y0395985D01*
X0050218Y0395983D01*
X0050289Y0395985D01*
X0050360Y0395991D01*
X0050430Y0396000D01*
X0050500Y0396014D01*
X0050569Y0396031D01*
X0050637Y0396052D01*
X0050703Y0396076D01*
X0050768Y0396104D01*
X0050832Y0396136D01*
X0050894Y0396171D01*
X0050954Y0396209D01*
X0051011Y0396250D01*
X0051067Y0396295D01*
X0051120Y0396342D01*
X0051170Y0396392D01*
X0051217Y0396445D01*
X0051262Y0396501D01*
X0051303Y0396558D01*
X0051341Y0396618D01*
X0051376Y0396680D01*
X0051408Y0396744D01*
X0051436Y0396809D01*
X0051460Y0396875D01*
X0051481Y0396943D01*
X0051498Y0397012D01*
X0051512Y0397082D01*
X0051521Y0397152D01*
X0051527Y0397223D01*
X0051529Y0397294D01*
X0046494Y0395983D02*
X0045183Y0395983D01*
X0045121Y0395985D01*
X0045060Y0395991D01*
X0044999Y0396000D01*
X0044939Y0396014D01*
X0044879Y0396031D01*
X0044821Y0396052D01*
X0044764Y0396077D01*
X0044709Y0396105D01*
X0044656Y0396136D01*
X0044605Y0396171D01*
X0044556Y0396209D01*
X0044510Y0396249D01*
X0044466Y0396293D01*
X0044426Y0396339D01*
X0044388Y0396388D01*
X0044353Y0396439D01*
X0044322Y0396492D01*
X0044294Y0396547D01*
X0044269Y0396604D01*
X0044248Y0396662D01*
X0044231Y0396722D01*
X0044217Y0396782D01*
X0044208Y0396843D01*
X0044202Y0396904D01*
X0044200Y0396966D01*
X0044200Y0398933D01*
X0044202Y0398995D01*
X0044208Y0399056D01*
X0044217Y0399117D01*
X0044231Y0399177D01*
X0044248Y0399237D01*
X0044269Y0399295D01*
X0044294Y0399352D01*
X0044322Y0399407D01*
X0044353Y0399460D01*
X0044388Y0399511D01*
X0044426Y0399560D01*
X0044466Y0399606D01*
X0044510Y0399650D01*
X0044556Y0399690D01*
X0044605Y0399728D01*
X0044656Y0399763D01*
X0044709Y0399794D01*
X0044764Y0399822D01*
X0044821Y0399847D01*
X0044879Y0399868D01*
X0044939Y0399885D01*
X0044999Y0399899D01*
X0045060Y0399908D01*
X0045121Y0399914D01*
X0045183Y0399916D01*
X0046494Y0399916D01*
X0040986Y0397622D02*
X0039347Y0398278D01*
X0039295Y0398301D01*
X0039244Y0398328D01*
X0039195Y0398358D01*
X0039148Y0398391D01*
X0039103Y0398427D01*
X0039061Y0398467D01*
X0039022Y0398509D01*
X0038986Y0398553D01*
X0038953Y0398600D01*
X0038923Y0398650D01*
X0038896Y0398701D01*
X0038873Y0398753D01*
X0038854Y0398807D01*
X0038838Y0398863D01*
X0038826Y0398919D01*
X0038818Y0398976D01*
X0038814Y0399033D01*
X0038813Y0399091D01*
X0038817Y0399148D01*
X0038824Y0399205D01*
X0038836Y0399262D01*
X0038851Y0399317D01*
X0038869Y0399372D01*
X0038892Y0399425D01*
X0038918Y0399476D01*
X0038947Y0399525D01*
X0038980Y0399573D01*
X0039016Y0399618D01*
X0039054Y0399660D01*
X0039096Y0399700D01*
X0039140Y0399737D01*
X0039187Y0399771D01*
X0039235Y0399802D01*
X0039286Y0399829D01*
X0039338Y0399853D01*
X0039392Y0399873D01*
X0039447Y0399889D01*
X0039503Y0399902D01*
X0039560Y0399911D01*
X0039618Y0399916D01*
X0039675Y0399917D01*
X0038856Y0396311D02*
X0038990Y0396265D01*
X0039125Y0396222D01*
X0039261Y0396183D01*
X0039398Y0396147D01*
X0039535Y0396115D01*
X0039674Y0396086D01*
X0039813Y0396060D01*
X0039953Y0396039D01*
X0040094Y0396020D01*
X0040234Y0396006D01*
X0040376Y0395995D01*
X0040517Y0395987D01*
X0040659Y0395984D01*
X0040659Y0395983D02*
X0040716Y0395984D01*
X0040774Y0395989D01*
X0040831Y0395998D01*
X0040887Y0396011D01*
X0040942Y0396027D01*
X0040996Y0396047D01*
X0041048Y0396071D01*
X0041099Y0396098D01*
X0041147Y0396129D01*
X0041194Y0396163D01*
X0041238Y0396200D01*
X0041280Y0396240D01*
X0041318Y0396282D01*
X0041354Y0396327D01*
X0041387Y0396375D01*
X0041416Y0396424D01*
X0041442Y0396475D01*
X0041465Y0396528D01*
X0041483Y0396583D01*
X0041498Y0396638D01*
X0041510Y0396695D01*
X0041517Y0396752D01*
X0041521Y0396809D01*
X0041520Y0396867D01*
X0041516Y0396924D01*
X0041508Y0396981D01*
X0041496Y0397037D01*
X0041480Y0397093D01*
X0041461Y0397147D01*
X0041438Y0397199D01*
X0041411Y0397250D01*
X0041381Y0397300D01*
X0041348Y0397347D01*
X0041312Y0397391D01*
X0041273Y0397433D01*
X0041231Y0397473D01*
X0041186Y0397509D01*
X0041139Y0397542D01*
X0041090Y0397572D01*
X0041039Y0397599D01*
X0040987Y0397622D01*
X0041150Y0399588D02*
X0041043Y0399634D01*
X0040934Y0399677D01*
X0040824Y0399717D01*
X0040712Y0399753D01*
X0040600Y0399785D01*
X0040486Y0399814D01*
X0040372Y0399840D01*
X0040257Y0399861D01*
X0040142Y0399880D01*
X0040025Y0399894D01*
X0039909Y0399905D01*
X0039792Y0399912D01*
X0039675Y0399916D01*
X0035979Y0398278D02*
X0032046Y0398278D01*
X0029375Y0399916D02*
X0028064Y0395983D01*
X0026753Y0399916D01*
D13*
X0017962Y0031933D02*
X0017962Y0006933D01*
X0375962Y0006933D01*
X0375962Y0031933D01*
X0017962Y0031933D01*
X0017962Y0033933D02*
X0017962Y0337933D01*
X0042962Y0337933D01*
X0042962Y0033933D01*
X0017962Y0033933D01*
X0350962Y0033933D02*
X0350962Y0337933D01*
X0375962Y0337933D01*
X0375962Y0033933D01*
X0350962Y0033933D01*
X0375962Y0339933D02*
X0017962Y0339933D01*
X0017962Y0364933D01*
X0375962Y0364933D01*
X0375962Y0339933D01*
D14*
X0332462Y0327933D02*
X0332464Y0328094D01*
X0332470Y0328254D01*
X0332480Y0328415D01*
X0332494Y0328575D01*
X0332512Y0328735D01*
X0332533Y0328894D01*
X0332559Y0329053D01*
X0332589Y0329211D01*
X0332622Y0329368D01*
X0332660Y0329525D01*
X0332701Y0329680D01*
X0332746Y0329834D01*
X0332795Y0329987D01*
X0332848Y0330139D01*
X0332904Y0330290D01*
X0332965Y0330439D01*
X0333028Y0330587D01*
X0333096Y0330733D01*
X0333167Y0330877D01*
X0333241Y0331019D01*
X0333319Y0331160D01*
X0333401Y0331298D01*
X0333486Y0331435D01*
X0333574Y0331569D01*
X0333666Y0331701D01*
X0333761Y0331831D01*
X0333859Y0331959D01*
X0333960Y0332084D01*
X0334064Y0332206D01*
X0334171Y0332326D01*
X0334281Y0332443D01*
X0334394Y0332558D01*
X0334510Y0332669D01*
X0334629Y0332778D01*
X0334750Y0332883D01*
X0334874Y0332986D01*
X0335000Y0333086D01*
X0335128Y0333182D01*
X0335259Y0333275D01*
X0335393Y0333365D01*
X0335528Y0333452D01*
X0335666Y0333535D01*
X0335805Y0333615D01*
X0335947Y0333691D01*
X0336090Y0333764D01*
X0336235Y0333833D01*
X0336382Y0333899D01*
X0336530Y0333961D01*
X0336680Y0334019D01*
X0336831Y0334074D01*
X0336984Y0334125D01*
X0337138Y0334172D01*
X0337293Y0334215D01*
X0337449Y0334254D01*
X0337605Y0334290D01*
X0337763Y0334321D01*
X0337921Y0334349D01*
X0338080Y0334373D01*
X0338240Y0334393D01*
X0338400Y0334409D01*
X0338560Y0334421D01*
X0338721Y0334429D01*
X0338882Y0334433D01*
X0339042Y0334433D01*
X0339203Y0334429D01*
X0339364Y0334421D01*
X0339524Y0334409D01*
X0339684Y0334393D01*
X0339844Y0334373D01*
X0340003Y0334349D01*
X0340161Y0334321D01*
X0340319Y0334290D01*
X0340475Y0334254D01*
X0340631Y0334215D01*
X0340786Y0334172D01*
X0340940Y0334125D01*
X0341093Y0334074D01*
X0341244Y0334019D01*
X0341394Y0333961D01*
X0341542Y0333899D01*
X0341689Y0333833D01*
X0341834Y0333764D01*
X0341977Y0333691D01*
X0342119Y0333615D01*
X0342258Y0333535D01*
X0342396Y0333452D01*
X0342531Y0333365D01*
X0342665Y0333275D01*
X0342796Y0333182D01*
X0342924Y0333086D01*
X0343050Y0332986D01*
X0343174Y0332883D01*
X0343295Y0332778D01*
X0343414Y0332669D01*
X0343530Y0332558D01*
X0343643Y0332443D01*
X0343753Y0332326D01*
X0343860Y0332206D01*
X0343964Y0332084D01*
X0344065Y0331959D01*
X0344163Y0331831D01*
X0344258Y0331701D01*
X0344350Y0331569D01*
X0344438Y0331435D01*
X0344523Y0331298D01*
X0344605Y0331160D01*
X0344683Y0331019D01*
X0344757Y0330877D01*
X0344828Y0330733D01*
X0344896Y0330587D01*
X0344959Y0330439D01*
X0345020Y0330290D01*
X0345076Y0330139D01*
X0345129Y0329987D01*
X0345178Y0329834D01*
X0345223Y0329680D01*
X0345264Y0329525D01*
X0345302Y0329368D01*
X0345335Y0329211D01*
X0345365Y0329053D01*
X0345391Y0328894D01*
X0345412Y0328735D01*
X0345430Y0328575D01*
X0345444Y0328415D01*
X0345454Y0328254D01*
X0345460Y0328094D01*
X0345462Y0327933D01*
X0345460Y0327772D01*
X0345454Y0327612D01*
X0345444Y0327451D01*
X0345430Y0327291D01*
X0345412Y0327131D01*
X0345391Y0326972D01*
X0345365Y0326813D01*
X0345335Y0326655D01*
X0345302Y0326498D01*
X0345264Y0326341D01*
X0345223Y0326186D01*
X0345178Y0326032D01*
X0345129Y0325879D01*
X0345076Y0325727D01*
X0345020Y0325576D01*
X0344959Y0325427D01*
X0344896Y0325279D01*
X0344828Y0325133D01*
X0344757Y0324989D01*
X0344683Y0324847D01*
X0344605Y0324706D01*
X0344523Y0324568D01*
X0344438Y0324431D01*
X0344350Y0324297D01*
X0344258Y0324165D01*
X0344163Y0324035D01*
X0344065Y0323907D01*
X0343964Y0323782D01*
X0343860Y0323660D01*
X0343753Y0323540D01*
X0343643Y0323423D01*
X0343530Y0323308D01*
X0343414Y0323197D01*
X0343295Y0323088D01*
X0343174Y0322983D01*
X0343050Y0322880D01*
X0342924Y0322780D01*
X0342796Y0322684D01*
X0342665Y0322591D01*
X0342531Y0322501D01*
X0342396Y0322414D01*
X0342258Y0322331D01*
X0342119Y0322251D01*
X0341977Y0322175D01*
X0341834Y0322102D01*
X0341689Y0322033D01*
X0341542Y0321967D01*
X0341394Y0321905D01*
X0341244Y0321847D01*
X0341093Y0321792D01*
X0340940Y0321741D01*
X0340786Y0321694D01*
X0340631Y0321651D01*
X0340475Y0321612D01*
X0340319Y0321576D01*
X0340161Y0321545D01*
X0340003Y0321517D01*
X0339844Y0321493D01*
X0339684Y0321473D01*
X0339524Y0321457D01*
X0339364Y0321445D01*
X0339203Y0321437D01*
X0339042Y0321433D01*
X0338882Y0321433D01*
X0338721Y0321437D01*
X0338560Y0321445D01*
X0338400Y0321457D01*
X0338240Y0321473D01*
X0338080Y0321493D01*
X0337921Y0321517D01*
X0337763Y0321545D01*
X0337605Y0321576D01*
X0337449Y0321612D01*
X0337293Y0321651D01*
X0337138Y0321694D01*
X0336984Y0321741D01*
X0336831Y0321792D01*
X0336680Y0321847D01*
X0336530Y0321905D01*
X0336382Y0321967D01*
X0336235Y0322033D01*
X0336090Y0322102D01*
X0335947Y0322175D01*
X0335805Y0322251D01*
X0335666Y0322331D01*
X0335528Y0322414D01*
X0335393Y0322501D01*
X0335259Y0322591D01*
X0335128Y0322684D01*
X0335000Y0322780D01*
X0334874Y0322880D01*
X0334750Y0322983D01*
X0334629Y0323088D01*
X0334510Y0323197D01*
X0334394Y0323308D01*
X0334281Y0323423D01*
X0334171Y0323540D01*
X0334064Y0323660D01*
X0333960Y0323782D01*
X0333859Y0323907D01*
X0333761Y0324035D01*
X0333666Y0324165D01*
X0333574Y0324297D01*
X0333486Y0324431D01*
X0333401Y0324568D01*
X0333319Y0324706D01*
X0333241Y0324847D01*
X0333167Y0324989D01*
X0333096Y0325133D01*
X0333028Y0325279D01*
X0332965Y0325427D01*
X0332904Y0325576D01*
X0332848Y0325727D01*
X0332795Y0325879D01*
X0332746Y0326032D01*
X0332701Y0326186D01*
X0332660Y0326341D01*
X0332622Y0326498D01*
X0332589Y0326655D01*
X0332559Y0326813D01*
X0332533Y0326972D01*
X0332512Y0327131D01*
X0332494Y0327291D01*
X0332480Y0327451D01*
X0332470Y0327612D01*
X0332464Y0327772D01*
X0332462Y0327933D01*
X0252462Y0327933D02*
X0252464Y0328094D01*
X0252470Y0328254D01*
X0252480Y0328415D01*
X0252494Y0328575D01*
X0252512Y0328735D01*
X0252533Y0328894D01*
X0252559Y0329053D01*
X0252589Y0329211D01*
X0252622Y0329368D01*
X0252660Y0329525D01*
X0252701Y0329680D01*
X0252746Y0329834D01*
X0252795Y0329987D01*
X0252848Y0330139D01*
X0252904Y0330290D01*
X0252965Y0330439D01*
X0253028Y0330587D01*
X0253096Y0330733D01*
X0253167Y0330877D01*
X0253241Y0331019D01*
X0253319Y0331160D01*
X0253401Y0331298D01*
X0253486Y0331435D01*
X0253574Y0331569D01*
X0253666Y0331701D01*
X0253761Y0331831D01*
X0253859Y0331959D01*
X0253960Y0332084D01*
X0254064Y0332206D01*
X0254171Y0332326D01*
X0254281Y0332443D01*
X0254394Y0332558D01*
X0254510Y0332669D01*
X0254629Y0332778D01*
X0254750Y0332883D01*
X0254874Y0332986D01*
X0255000Y0333086D01*
X0255128Y0333182D01*
X0255259Y0333275D01*
X0255393Y0333365D01*
X0255528Y0333452D01*
X0255666Y0333535D01*
X0255805Y0333615D01*
X0255947Y0333691D01*
X0256090Y0333764D01*
X0256235Y0333833D01*
X0256382Y0333899D01*
X0256530Y0333961D01*
X0256680Y0334019D01*
X0256831Y0334074D01*
X0256984Y0334125D01*
X0257138Y0334172D01*
X0257293Y0334215D01*
X0257449Y0334254D01*
X0257605Y0334290D01*
X0257763Y0334321D01*
X0257921Y0334349D01*
X0258080Y0334373D01*
X0258240Y0334393D01*
X0258400Y0334409D01*
X0258560Y0334421D01*
X0258721Y0334429D01*
X0258882Y0334433D01*
X0259042Y0334433D01*
X0259203Y0334429D01*
X0259364Y0334421D01*
X0259524Y0334409D01*
X0259684Y0334393D01*
X0259844Y0334373D01*
X0260003Y0334349D01*
X0260161Y0334321D01*
X0260319Y0334290D01*
X0260475Y0334254D01*
X0260631Y0334215D01*
X0260786Y0334172D01*
X0260940Y0334125D01*
X0261093Y0334074D01*
X0261244Y0334019D01*
X0261394Y0333961D01*
X0261542Y0333899D01*
X0261689Y0333833D01*
X0261834Y0333764D01*
X0261977Y0333691D01*
X0262119Y0333615D01*
X0262258Y0333535D01*
X0262396Y0333452D01*
X0262531Y0333365D01*
X0262665Y0333275D01*
X0262796Y0333182D01*
X0262924Y0333086D01*
X0263050Y0332986D01*
X0263174Y0332883D01*
X0263295Y0332778D01*
X0263414Y0332669D01*
X0263530Y0332558D01*
X0263643Y0332443D01*
X0263753Y0332326D01*
X0263860Y0332206D01*
X0263964Y0332084D01*
X0264065Y0331959D01*
X0264163Y0331831D01*
X0264258Y0331701D01*
X0264350Y0331569D01*
X0264438Y0331435D01*
X0264523Y0331298D01*
X0264605Y0331160D01*
X0264683Y0331019D01*
X0264757Y0330877D01*
X0264828Y0330733D01*
X0264896Y0330587D01*
X0264959Y0330439D01*
X0265020Y0330290D01*
X0265076Y0330139D01*
X0265129Y0329987D01*
X0265178Y0329834D01*
X0265223Y0329680D01*
X0265264Y0329525D01*
X0265302Y0329368D01*
X0265335Y0329211D01*
X0265365Y0329053D01*
X0265391Y0328894D01*
X0265412Y0328735D01*
X0265430Y0328575D01*
X0265444Y0328415D01*
X0265454Y0328254D01*
X0265460Y0328094D01*
X0265462Y0327933D01*
X0265460Y0327772D01*
X0265454Y0327612D01*
X0265444Y0327451D01*
X0265430Y0327291D01*
X0265412Y0327131D01*
X0265391Y0326972D01*
X0265365Y0326813D01*
X0265335Y0326655D01*
X0265302Y0326498D01*
X0265264Y0326341D01*
X0265223Y0326186D01*
X0265178Y0326032D01*
X0265129Y0325879D01*
X0265076Y0325727D01*
X0265020Y0325576D01*
X0264959Y0325427D01*
X0264896Y0325279D01*
X0264828Y0325133D01*
X0264757Y0324989D01*
X0264683Y0324847D01*
X0264605Y0324706D01*
X0264523Y0324568D01*
X0264438Y0324431D01*
X0264350Y0324297D01*
X0264258Y0324165D01*
X0264163Y0324035D01*
X0264065Y0323907D01*
X0263964Y0323782D01*
X0263860Y0323660D01*
X0263753Y0323540D01*
X0263643Y0323423D01*
X0263530Y0323308D01*
X0263414Y0323197D01*
X0263295Y0323088D01*
X0263174Y0322983D01*
X0263050Y0322880D01*
X0262924Y0322780D01*
X0262796Y0322684D01*
X0262665Y0322591D01*
X0262531Y0322501D01*
X0262396Y0322414D01*
X0262258Y0322331D01*
X0262119Y0322251D01*
X0261977Y0322175D01*
X0261834Y0322102D01*
X0261689Y0322033D01*
X0261542Y0321967D01*
X0261394Y0321905D01*
X0261244Y0321847D01*
X0261093Y0321792D01*
X0260940Y0321741D01*
X0260786Y0321694D01*
X0260631Y0321651D01*
X0260475Y0321612D01*
X0260319Y0321576D01*
X0260161Y0321545D01*
X0260003Y0321517D01*
X0259844Y0321493D01*
X0259684Y0321473D01*
X0259524Y0321457D01*
X0259364Y0321445D01*
X0259203Y0321437D01*
X0259042Y0321433D01*
X0258882Y0321433D01*
X0258721Y0321437D01*
X0258560Y0321445D01*
X0258400Y0321457D01*
X0258240Y0321473D01*
X0258080Y0321493D01*
X0257921Y0321517D01*
X0257763Y0321545D01*
X0257605Y0321576D01*
X0257449Y0321612D01*
X0257293Y0321651D01*
X0257138Y0321694D01*
X0256984Y0321741D01*
X0256831Y0321792D01*
X0256680Y0321847D01*
X0256530Y0321905D01*
X0256382Y0321967D01*
X0256235Y0322033D01*
X0256090Y0322102D01*
X0255947Y0322175D01*
X0255805Y0322251D01*
X0255666Y0322331D01*
X0255528Y0322414D01*
X0255393Y0322501D01*
X0255259Y0322591D01*
X0255128Y0322684D01*
X0255000Y0322780D01*
X0254874Y0322880D01*
X0254750Y0322983D01*
X0254629Y0323088D01*
X0254510Y0323197D01*
X0254394Y0323308D01*
X0254281Y0323423D01*
X0254171Y0323540D01*
X0254064Y0323660D01*
X0253960Y0323782D01*
X0253859Y0323907D01*
X0253761Y0324035D01*
X0253666Y0324165D01*
X0253574Y0324297D01*
X0253486Y0324431D01*
X0253401Y0324568D01*
X0253319Y0324706D01*
X0253241Y0324847D01*
X0253167Y0324989D01*
X0253096Y0325133D01*
X0253028Y0325279D01*
X0252965Y0325427D01*
X0252904Y0325576D01*
X0252848Y0325727D01*
X0252795Y0325879D01*
X0252746Y0326032D01*
X0252701Y0326186D01*
X0252660Y0326341D01*
X0252622Y0326498D01*
X0252589Y0326655D01*
X0252559Y0326813D01*
X0252533Y0326972D01*
X0252512Y0327131D01*
X0252494Y0327291D01*
X0252480Y0327451D01*
X0252470Y0327612D01*
X0252464Y0327772D01*
X0252462Y0327933D01*
X0230462Y0327933D02*
X0230464Y0328094D01*
X0230470Y0328254D01*
X0230480Y0328415D01*
X0230494Y0328575D01*
X0230512Y0328735D01*
X0230533Y0328894D01*
X0230559Y0329053D01*
X0230589Y0329211D01*
X0230622Y0329368D01*
X0230660Y0329525D01*
X0230701Y0329680D01*
X0230746Y0329834D01*
X0230795Y0329987D01*
X0230848Y0330139D01*
X0230904Y0330290D01*
X0230965Y0330439D01*
X0231028Y0330587D01*
X0231096Y0330733D01*
X0231167Y0330877D01*
X0231241Y0331019D01*
X0231319Y0331160D01*
X0231401Y0331298D01*
X0231486Y0331435D01*
X0231574Y0331569D01*
X0231666Y0331701D01*
X0231761Y0331831D01*
X0231859Y0331959D01*
X0231960Y0332084D01*
X0232064Y0332206D01*
X0232171Y0332326D01*
X0232281Y0332443D01*
X0232394Y0332558D01*
X0232510Y0332669D01*
X0232629Y0332778D01*
X0232750Y0332883D01*
X0232874Y0332986D01*
X0233000Y0333086D01*
X0233128Y0333182D01*
X0233259Y0333275D01*
X0233393Y0333365D01*
X0233528Y0333452D01*
X0233666Y0333535D01*
X0233805Y0333615D01*
X0233947Y0333691D01*
X0234090Y0333764D01*
X0234235Y0333833D01*
X0234382Y0333899D01*
X0234530Y0333961D01*
X0234680Y0334019D01*
X0234831Y0334074D01*
X0234984Y0334125D01*
X0235138Y0334172D01*
X0235293Y0334215D01*
X0235449Y0334254D01*
X0235605Y0334290D01*
X0235763Y0334321D01*
X0235921Y0334349D01*
X0236080Y0334373D01*
X0236240Y0334393D01*
X0236400Y0334409D01*
X0236560Y0334421D01*
X0236721Y0334429D01*
X0236882Y0334433D01*
X0237042Y0334433D01*
X0237203Y0334429D01*
X0237364Y0334421D01*
X0237524Y0334409D01*
X0237684Y0334393D01*
X0237844Y0334373D01*
X0238003Y0334349D01*
X0238161Y0334321D01*
X0238319Y0334290D01*
X0238475Y0334254D01*
X0238631Y0334215D01*
X0238786Y0334172D01*
X0238940Y0334125D01*
X0239093Y0334074D01*
X0239244Y0334019D01*
X0239394Y0333961D01*
X0239542Y0333899D01*
X0239689Y0333833D01*
X0239834Y0333764D01*
X0239977Y0333691D01*
X0240119Y0333615D01*
X0240258Y0333535D01*
X0240396Y0333452D01*
X0240531Y0333365D01*
X0240665Y0333275D01*
X0240796Y0333182D01*
X0240924Y0333086D01*
X0241050Y0332986D01*
X0241174Y0332883D01*
X0241295Y0332778D01*
X0241414Y0332669D01*
X0241530Y0332558D01*
X0241643Y0332443D01*
X0241753Y0332326D01*
X0241860Y0332206D01*
X0241964Y0332084D01*
X0242065Y0331959D01*
X0242163Y0331831D01*
X0242258Y0331701D01*
X0242350Y0331569D01*
X0242438Y0331435D01*
X0242523Y0331298D01*
X0242605Y0331160D01*
X0242683Y0331019D01*
X0242757Y0330877D01*
X0242828Y0330733D01*
X0242896Y0330587D01*
X0242959Y0330439D01*
X0243020Y0330290D01*
X0243076Y0330139D01*
X0243129Y0329987D01*
X0243178Y0329834D01*
X0243223Y0329680D01*
X0243264Y0329525D01*
X0243302Y0329368D01*
X0243335Y0329211D01*
X0243365Y0329053D01*
X0243391Y0328894D01*
X0243412Y0328735D01*
X0243430Y0328575D01*
X0243444Y0328415D01*
X0243454Y0328254D01*
X0243460Y0328094D01*
X0243462Y0327933D01*
X0243460Y0327772D01*
X0243454Y0327612D01*
X0243444Y0327451D01*
X0243430Y0327291D01*
X0243412Y0327131D01*
X0243391Y0326972D01*
X0243365Y0326813D01*
X0243335Y0326655D01*
X0243302Y0326498D01*
X0243264Y0326341D01*
X0243223Y0326186D01*
X0243178Y0326032D01*
X0243129Y0325879D01*
X0243076Y0325727D01*
X0243020Y0325576D01*
X0242959Y0325427D01*
X0242896Y0325279D01*
X0242828Y0325133D01*
X0242757Y0324989D01*
X0242683Y0324847D01*
X0242605Y0324706D01*
X0242523Y0324568D01*
X0242438Y0324431D01*
X0242350Y0324297D01*
X0242258Y0324165D01*
X0242163Y0324035D01*
X0242065Y0323907D01*
X0241964Y0323782D01*
X0241860Y0323660D01*
X0241753Y0323540D01*
X0241643Y0323423D01*
X0241530Y0323308D01*
X0241414Y0323197D01*
X0241295Y0323088D01*
X0241174Y0322983D01*
X0241050Y0322880D01*
X0240924Y0322780D01*
X0240796Y0322684D01*
X0240665Y0322591D01*
X0240531Y0322501D01*
X0240396Y0322414D01*
X0240258Y0322331D01*
X0240119Y0322251D01*
X0239977Y0322175D01*
X0239834Y0322102D01*
X0239689Y0322033D01*
X0239542Y0321967D01*
X0239394Y0321905D01*
X0239244Y0321847D01*
X0239093Y0321792D01*
X0238940Y0321741D01*
X0238786Y0321694D01*
X0238631Y0321651D01*
X0238475Y0321612D01*
X0238319Y0321576D01*
X0238161Y0321545D01*
X0238003Y0321517D01*
X0237844Y0321493D01*
X0237684Y0321473D01*
X0237524Y0321457D01*
X0237364Y0321445D01*
X0237203Y0321437D01*
X0237042Y0321433D01*
X0236882Y0321433D01*
X0236721Y0321437D01*
X0236560Y0321445D01*
X0236400Y0321457D01*
X0236240Y0321473D01*
X0236080Y0321493D01*
X0235921Y0321517D01*
X0235763Y0321545D01*
X0235605Y0321576D01*
X0235449Y0321612D01*
X0235293Y0321651D01*
X0235138Y0321694D01*
X0234984Y0321741D01*
X0234831Y0321792D01*
X0234680Y0321847D01*
X0234530Y0321905D01*
X0234382Y0321967D01*
X0234235Y0322033D01*
X0234090Y0322102D01*
X0233947Y0322175D01*
X0233805Y0322251D01*
X0233666Y0322331D01*
X0233528Y0322414D01*
X0233393Y0322501D01*
X0233259Y0322591D01*
X0233128Y0322684D01*
X0233000Y0322780D01*
X0232874Y0322880D01*
X0232750Y0322983D01*
X0232629Y0323088D01*
X0232510Y0323197D01*
X0232394Y0323308D01*
X0232281Y0323423D01*
X0232171Y0323540D01*
X0232064Y0323660D01*
X0231960Y0323782D01*
X0231859Y0323907D01*
X0231761Y0324035D01*
X0231666Y0324165D01*
X0231574Y0324297D01*
X0231486Y0324431D01*
X0231401Y0324568D01*
X0231319Y0324706D01*
X0231241Y0324847D01*
X0231167Y0324989D01*
X0231096Y0325133D01*
X0231028Y0325279D01*
X0230965Y0325427D01*
X0230904Y0325576D01*
X0230848Y0325727D01*
X0230795Y0325879D01*
X0230746Y0326032D01*
X0230701Y0326186D01*
X0230660Y0326341D01*
X0230622Y0326498D01*
X0230589Y0326655D01*
X0230559Y0326813D01*
X0230533Y0326972D01*
X0230512Y0327131D01*
X0230494Y0327291D01*
X0230480Y0327451D01*
X0230470Y0327612D01*
X0230464Y0327772D01*
X0230462Y0327933D01*
X0150462Y0327933D02*
X0150464Y0328094D01*
X0150470Y0328254D01*
X0150480Y0328415D01*
X0150494Y0328575D01*
X0150512Y0328735D01*
X0150533Y0328894D01*
X0150559Y0329053D01*
X0150589Y0329211D01*
X0150622Y0329368D01*
X0150660Y0329525D01*
X0150701Y0329680D01*
X0150746Y0329834D01*
X0150795Y0329987D01*
X0150848Y0330139D01*
X0150904Y0330290D01*
X0150965Y0330439D01*
X0151028Y0330587D01*
X0151096Y0330733D01*
X0151167Y0330877D01*
X0151241Y0331019D01*
X0151319Y0331160D01*
X0151401Y0331298D01*
X0151486Y0331435D01*
X0151574Y0331569D01*
X0151666Y0331701D01*
X0151761Y0331831D01*
X0151859Y0331959D01*
X0151960Y0332084D01*
X0152064Y0332206D01*
X0152171Y0332326D01*
X0152281Y0332443D01*
X0152394Y0332558D01*
X0152510Y0332669D01*
X0152629Y0332778D01*
X0152750Y0332883D01*
X0152874Y0332986D01*
X0153000Y0333086D01*
X0153128Y0333182D01*
X0153259Y0333275D01*
X0153393Y0333365D01*
X0153528Y0333452D01*
X0153666Y0333535D01*
X0153805Y0333615D01*
X0153947Y0333691D01*
X0154090Y0333764D01*
X0154235Y0333833D01*
X0154382Y0333899D01*
X0154530Y0333961D01*
X0154680Y0334019D01*
X0154831Y0334074D01*
X0154984Y0334125D01*
X0155138Y0334172D01*
X0155293Y0334215D01*
X0155449Y0334254D01*
X0155605Y0334290D01*
X0155763Y0334321D01*
X0155921Y0334349D01*
X0156080Y0334373D01*
X0156240Y0334393D01*
X0156400Y0334409D01*
X0156560Y0334421D01*
X0156721Y0334429D01*
X0156882Y0334433D01*
X0157042Y0334433D01*
X0157203Y0334429D01*
X0157364Y0334421D01*
X0157524Y0334409D01*
X0157684Y0334393D01*
X0157844Y0334373D01*
X0158003Y0334349D01*
X0158161Y0334321D01*
X0158319Y0334290D01*
X0158475Y0334254D01*
X0158631Y0334215D01*
X0158786Y0334172D01*
X0158940Y0334125D01*
X0159093Y0334074D01*
X0159244Y0334019D01*
X0159394Y0333961D01*
X0159542Y0333899D01*
X0159689Y0333833D01*
X0159834Y0333764D01*
X0159977Y0333691D01*
X0160119Y0333615D01*
X0160258Y0333535D01*
X0160396Y0333452D01*
X0160531Y0333365D01*
X0160665Y0333275D01*
X0160796Y0333182D01*
X0160924Y0333086D01*
X0161050Y0332986D01*
X0161174Y0332883D01*
X0161295Y0332778D01*
X0161414Y0332669D01*
X0161530Y0332558D01*
X0161643Y0332443D01*
X0161753Y0332326D01*
X0161860Y0332206D01*
X0161964Y0332084D01*
X0162065Y0331959D01*
X0162163Y0331831D01*
X0162258Y0331701D01*
X0162350Y0331569D01*
X0162438Y0331435D01*
X0162523Y0331298D01*
X0162605Y0331160D01*
X0162683Y0331019D01*
X0162757Y0330877D01*
X0162828Y0330733D01*
X0162896Y0330587D01*
X0162959Y0330439D01*
X0163020Y0330290D01*
X0163076Y0330139D01*
X0163129Y0329987D01*
X0163178Y0329834D01*
X0163223Y0329680D01*
X0163264Y0329525D01*
X0163302Y0329368D01*
X0163335Y0329211D01*
X0163365Y0329053D01*
X0163391Y0328894D01*
X0163412Y0328735D01*
X0163430Y0328575D01*
X0163444Y0328415D01*
X0163454Y0328254D01*
X0163460Y0328094D01*
X0163462Y0327933D01*
X0163460Y0327772D01*
X0163454Y0327612D01*
X0163444Y0327451D01*
X0163430Y0327291D01*
X0163412Y0327131D01*
X0163391Y0326972D01*
X0163365Y0326813D01*
X0163335Y0326655D01*
X0163302Y0326498D01*
X0163264Y0326341D01*
X0163223Y0326186D01*
X0163178Y0326032D01*
X0163129Y0325879D01*
X0163076Y0325727D01*
X0163020Y0325576D01*
X0162959Y0325427D01*
X0162896Y0325279D01*
X0162828Y0325133D01*
X0162757Y0324989D01*
X0162683Y0324847D01*
X0162605Y0324706D01*
X0162523Y0324568D01*
X0162438Y0324431D01*
X0162350Y0324297D01*
X0162258Y0324165D01*
X0162163Y0324035D01*
X0162065Y0323907D01*
X0161964Y0323782D01*
X0161860Y0323660D01*
X0161753Y0323540D01*
X0161643Y0323423D01*
X0161530Y0323308D01*
X0161414Y0323197D01*
X0161295Y0323088D01*
X0161174Y0322983D01*
X0161050Y0322880D01*
X0160924Y0322780D01*
X0160796Y0322684D01*
X0160665Y0322591D01*
X0160531Y0322501D01*
X0160396Y0322414D01*
X0160258Y0322331D01*
X0160119Y0322251D01*
X0159977Y0322175D01*
X0159834Y0322102D01*
X0159689Y0322033D01*
X0159542Y0321967D01*
X0159394Y0321905D01*
X0159244Y0321847D01*
X0159093Y0321792D01*
X0158940Y0321741D01*
X0158786Y0321694D01*
X0158631Y0321651D01*
X0158475Y0321612D01*
X0158319Y0321576D01*
X0158161Y0321545D01*
X0158003Y0321517D01*
X0157844Y0321493D01*
X0157684Y0321473D01*
X0157524Y0321457D01*
X0157364Y0321445D01*
X0157203Y0321437D01*
X0157042Y0321433D01*
X0156882Y0321433D01*
X0156721Y0321437D01*
X0156560Y0321445D01*
X0156400Y0321457D01*
X0156240Y0321473D01*
X0156080Y0321493D01*
X0155921Y0321517D01*
X0155763Y0321545D01*
X0155605Y0321576D01*
X0155449Y0321612D01*
X0155293Y0321651D01*
X0155138Y0321694D01*
X0154984Y0321741D01*
X0154831Y0321792D01*
X0154680Y0321847D01*
X0154530Y0321905D01*
X0154382Y0321967D01*
X0154235Y0322033D01*
X0154090Y0322102D01*
X0153947Y0322175D01*
X0153805Y0322251D01*
X0153666Y0322331D01*
X0153528Y0322414D01*
X0153393Y0322501D01*
X0153259Y0322591D01*
X0153128Y0322684D01*
X0153000Y0322780D01*
X0152874Y0322880D01*
X0152750Y0322983D01*
X0152629Y0323088D01*
X0152510Y0323197D01*
X0152394Y0323308D01*
X0152281Y0323423D01*
X0152171Y0323540D01*
X0152064Y0323660D01*
X0151960Y0323782D01*
X0151859Y0323907D01*
X0151761Y0324035D01*
X0151666Y0324165D01*
X0151574Y0324297D01*
X0151486Y0324431D01*
X0151401Y0324568D01*
X0151319Y0324706D01*
X0151241Y0324847D01*
X0151167Y0324989D01*
X0151096Y0325133D01*
X0151028Y0325279D01*
X0150965Y0325427D01*
X0150904Y0325576D01*
X0150848Y0325727D01*
X0150795Y0325879D01*
X0150746Y0326032D01*
X0150701Y0326186D01*
X0150660Y0326341D01*
X0150622Y0326498D01*
X0150589Y0326655D01*
X0150559Y0326813D01*
X0150533Y0326972D01*
X0150512Y0327131D01*
X0150494Y0327291D01*
X0150480Y0327451D01*
X0150470Y0327612D01*
X0150464Y0327772D01*
X0150462Y0327933D01*
X0128462Y0327933D02*
X0128464Y0328094D01*
X0128470Y0328254D01*
X0128480Y0328415D01*
X0128494Y0328575D01*
X0128512Y0328735D01*
X0128533Y0328894D01*
X0128559Y0329053D01*
X0128589Y0329211D01*
X0128622Y0329368D01*
X0128660Y0329525D01*
X0128701Y0329680D01*
X0128746Y0329834D01*
X0128795Y0329987D01*
X0128848Y0330139D01*
X0128904Y0330290D01*
X0128965Y0330439D01*
X0129028Y0330587D01*
X0129096Y0330733D01*
X0129167Y0330877D01*
X0129241Y0331019D01*
X0129319Y0331160D01*
X0129401Y0331298D01*
X0129486Y0331435D01*
X0129574Y0331569D01*
X0129666Y0331701D01*
X0129761Y0331831D01*
X0129859Y0331959D01*
X0129960Y0332084D01*
X0130064Y0332206D01*
X0130171Y0332326D01*
X0130281Y0332443D01*
X0130394Y0332558D01*
X0130510Y0332669D01*
X0130629Y0332778D01*
X0130750Y0332883D01*
X0130874Y0332986D01*
X0131000Y0333086D01*
X0131128Y0333182D01*
X0131259Y0333275D01*
X0131393Y0333365D01*
X0131528Y0333452D01*
X0131666Y0333535D01*
X0131805Y0333615D01*
X0131947Y0333691D01*
X0132090Y0333764D01*
X0132235Y0333833D01*
X0132382Y0333899D01*
X0132530Y0333961D01*
X0132680Y0334019D01*
X0132831Y0334074D01*
X0132984Y0334125D01*
X0133138Y0334172D01*
X0133293Y0334215D01*
X0133449Y0334254D01*
X0133605Y0334290D01*
X0133763Y0334321D01*
X0133921Y0334349D01*
X0134080Y0334373D01*
X0134240Y0334393D01*
X0134400Y0334409D01*
X0134560Y0334421D01*
X0134721Y0334429D01*
X0134882Y0334433D01*
X0135042Y0334433D01*
X0135203Y0334429D01*
X0135364Y0334421D01*
X0135524Y0334409D01*
X0135684Y0334393D01*
X0135844Y0334373D01*
X0136003Y0334349D01*
X0136161Y0334321D01*
X0136319Y0334290D01*
X0136475Y0334254D01*
X0136631Y0334215D01*
X0136786Y0334172D01*
X0136940Y0334125D01*
X0137093Y0334074D01*
X0137244Y0334019D01*
X0137394Y0333961D01*
X0137542Y0333899D01*
X0137689Y0333833D01*
X0137834Y0333764D01*
X0137977Y0333691D01*
X0138119Y0333615D01*
X0138258Y0333535D01*
X0138396Y0333452D01*
X0138531Y0333365D01*
X0138665Y0333275D01*
X0138796Y0333182D01*
X0138924Y0333086D01*
X0139050Y0332986D01*
X0139174Y0332883D01*
X0139295Y0332778D01*
X0139414Y0332669D01*
X0139530Y0332558D01*
X0139643Y0332443D01*
X0139753Y0332326D01*
X0139860Y0332206D01*
X0139964Y0332084D01*
X0140065Y0331959D01*
X0140163Y0331831D01*
X0140258Y0331701D01*
X0140350Y0331569D01*
X0140438Y0331435D01*
X0140523Y0331298D01*
X0140605Y0331160D01*
X0140683Y0331019D01*
X0140757Y0330877D01*
X0140828Y0330733D01*
X0140896Y0330587D01*
X0140959Y0330439D01*
X0141020Y0330290D01*
X0141076Y0330139D01*
X0141129Y0329987D01*
X0141178Y0329834D01*
X0141223Y0329680D01*
X0141264Y0329525D01*
X0141302Y0329368D01*
X0141335Y0329211D01*
X0141365Y0329053D01*
X0141391Y0328894D01*
X0141412Y0328735D01*
X0141430Y0328575D01*
X0141444Y0328415D01*
X0141454Y0328254D01*
X0141460Y0328094D01*
X0141462Y0327933D01*
X0141460Y0327772D01*
X0141454Y0327612D01*
X0141444Y0327451D01*
X0141430Y0327291D01*
X0141412Y0327131D01*
X0141391Y0326972D01*
X0141365Y0326813D01*
X0141335Y0326655D01*
X0141302Y0326498D01*
X0141264Y0326341D01*
X0141223Y0326186D01*
X0141178Y0326032D01*
X0141129Y0325879D01*
X0141076Y0325727D01*
X0141020Y0325576D01*
X0140959Y0325427D01*
X0140896Y0325279D01*
X0140828Y0325133D01*
X0140757Y0324989D01*
X0140683Y0324847D01*
X0140605Y0324706D01*
X0140523Y0324568D01*
X0140438Y0324431D01*
X0140350Y0324297D01*
X0140258Y0324165D01*
X0140163Y0324035D01*
X0140065Y0323907D01*
X0139964Y0323782D01*
X0139860Y0323660D01*
X0139753Y0323540D01*
X0139643Y0323423D01*
X0139530Y0323308D01*
X0139414Y0323197D01*
X0139295Y0323088D01*
X0139174Y0322983D01*
X0139050Y0322880D01*
X0138924Y0322780D01*
X0138796Y0322684D01*
X0138665Y0322591D01*
X0138531Y0322501D01*
X0138396Y0322414D01*
X0138258Y0322331D01*
X0138119Y0322251D01*
X0137977Y0322175D01*
X0137834Y0322102D01*
X0137689Y0322033D01*
X0137542Y0321967D01*
X0137394Y0321905D01*
X0137244Y0321847D01*
X0137093Y0321792D01*
X0136940Y0321741D01*
X0136786Y0321694D01*
X0136631Y0321651D01*
X0136475Y0321612D01*
X0136319Y0321576D01*
X0136161Y0321545D01*
X0136003Y0321517D01*
X0135844Y0321493D01*
X0135684Y0321473D01*
X0135524Y0321457D01*
X0135364Y0321445D01*
X0135203Y0321437D01*
X0135042Y0321433D01*
X0134882Y0321433D01*
X0134721Y0321437D01*
X0134560Y0321445D01*
X0134400Y0321457D01*
X0134240Y0321473D01*
X0134080Y0321493D01*
X0133921Y0321517D01*
X0133763Y0321545D01*
X0133605Y0321576D01*
X0133449Y0321612D01*
X0133293Y0321651D01*
X0133138Y0321694D01*
X0132984Y0321741D01*
X0132831Y0321792D01*
X0132680Y0321847D01*
X0132530Y0321905D01*
X0132382Y0321967D01*
X0132235Y0322033D01*
X0132090Y0322102D01*
X0131947Y0322175D01*
X0131805Y0322251D01*
X0131666Y0322331D01*
X0131528Y0322414D01*
X0131393Y0322501D01*
X0131259Y0322591D01*
X0131128Y0322684D01*
X0131000Y0322780D01*
X0130874Y0322880D01*
X0130750Y0322983D01*
X0130629Y0323088D01*
X0130510Y0323197D01*
X0130394Y0323308D01*
X0130281Y0323423D01*
X0130171Y0323540D01*
X0130064Y0323660D01*
X0129960Y0323782D01*
X0129859Y0323907D01*
X0129761Y0324035D01*
X0129666Y0324165D01*
X0129574Y0324297D01*
X0129486Y0324431D01*
X0129401Y0324568D01*
X0129319Y0324706D01*
X0129241Y0324847D01*
X0129167Y0324989D01*
X0129096Y0325133D01*
X0129028Y0325279D01*
X0128965Y0325427D01*
X0128904Y0325576D01*
X0128848Y0325727D01*
X0128795Y0325879D01*
X0128746Y0326032D01*
X0128701Y0326186D01*
X0128660Y0326341D01*
X0128622Y0326498D01*
X0128589Y0326655D01*
X0128559Y0326813D01*
X0128533Y0326972D01*
X0128512Y0327131D01*
X0128494Y0327291D01*
X0128480Y0327451D01*
X0128470Y0327612D01*
X0128464Y0327772D01*
X0128462Y0327933D01*
X0048462Y0327933D02*
X0048464Y0328094D01*
X0048470Y0328254D01*
X0048480Y0328415D01*
X0048494Y0328575D01*
X0048512Y0328735D01*
X0048533Y0328894D01*
X0048559Y0329053D01*
X0048589Y0329211D01*
X0048622Y0329368D01*
X0048660Y0329525D01*
X0048701Y0329680D01*
X0048746Y0329834D01*
X0048795Y0329987D01*
X0048848Y0330139D01*
X0048904Y0330290D01*
X0048965Y0330439D01*
X0049028Y0330587D01*
X0049096Y0330733D01*
X0049167Y0330877D01*
X0049241Y0331019D01*
X0049319Y0331160D01*
X0049401Y0331298D01*
X0049486Y0331435D01*
X0049574Y0331569D01*
X0049666Y0331701D01*
X0049761Y0331831D01*
X0049859Y0331959D01*
X0049960Y0332084D01*
X0050064Y0332206D01*
X0050171Y0332326D01*
X0050281Y0332443D01*
X0050394Y0332558D01*
X0050510Y0332669D01*
X0050629Y0332778D01*
X0050750Y0332883D01*
X0050874Y0332986D01*
X0051000Y0333086D01*
X0051128Y0333182D01*
X0051259Y0333275D01*
X0051393Y0333365D01*
X0051528Y0333452D01*
X0051666Y0333535D01*
X0051805Y0333615D01*
X0051947Y0333691D01*
X0052090Y0333764D01*
X0052235Y0333833D01*
X0052382Y0333899D01*
X0052530Y0333961D01*
X0052680Y0334019D01*
X0052831Y0334074D01*
X0052984Y0334125D01*
X0053138Y0334172D01*
X0053293Y0334215D01*
X0053449Y0334254D01*
X0053605Y0334290D01*
X0053763Y0334321D01*
X0053921Y0334349D01*
X0054080Y0334373D01*
X0054240Y0334393D01*
X0054400Y0334409D01*
X0054560Y0334421D01*
X0054721Y0334429D01*
X0054882Y0334433D01*
X0055042Y0334433D01*
X0055203Y0334429D01*
X0055364Y0334421D01*
X0055524Y0334409D01*
X0055684Y0334393D01*
X0055844Y0334373D01*
X0056003Y0334349D01*
X0056161Y0334321D01*
X0056319Y0334290D01*
X0056475Y0334254D01*
X0056631Y0334215D01*
X0056786Y0334172D01*
X0056940Y0334125D01*
X0057093Y0334074D01*
X0057244Y0334019D01*
X0057394Y0333961D01*
X0057542Y0333899D01*
X0057689Y0333833D01*
X0057834Y0333764D01*
X0057977Y0333691D01*
X0058119Y0333615D01*
X0058258Y0333535D01*
X0058396Y0333452D01*
X0058531Y0333365D01*
X0058665Y0333275D01*
X0058796Y0333182D01*
X0058924Y0333086D01*
X0059050Y0332986D01*
X0059174Y0332883D01*
X0059295Y0332778D01*
X0059414Y0332669D01*
X0059530Y0332558D01*
X0059643Y0332443D01*
X0059753Y0332326D01*
X0059860Y0332206D01*
X0059964Y0332084D01*
X0060065Y0331959D01*
X0060163Y0331831D01*
X0060258Y0331701D01*
X0060350Y0331569D01*
X0060438Y0331435D01*
X0060523Y0331298D01*
X0060605Y0331160D01*
X0060683Y0331019D01*
X0060757Y0330877D01*
X0060828Y0330733D01*
X0060896Y0330587D01*
X0060959Y0330439D01*
X0061020Y0330290D01*
X0061076Y0330139D01*
X0061129Y0329987D01*
X0061178Y0329834D01*
X0061223Y0329680D01*
X0061264Y0329525D01*
X0061302Y0329368D01*
X0061335Y0329211D01*
X0061365Y0329053D01*
X0061391Y0328894D01*
X0061412Y0328735D01*
X0061430Y0328575D01*
X0061444Y0328415D01*
X0061454Y0328254D01*
X0061460Y0328094D01*
X0061462Y0327933D01*
X0061460Y0327772D01*
X0061454Y0327612D01*
X0061444Y0327451D01*
X0061430Y0327291D01*
X0061412Y0327131D01*
X0061391Y0326972D01*
X0061365Y0326813D01*
X0061335Y0326655D01*
X0061302Y0326498D01*
X0061264Y0326341D01*
X0061223Y0326186D01*
X0061178Y0326032D01*
X0061129Y0325879D01*
X0061076Y0325727D01*
X0061020Y0325576D01*
X0060959Y0325427D01*
X0060896Y0325279D01*
X0060828Y0325133D01*
X0060757Y0324989D01*
X0060683Y0324847D01*
X0060605Y0324706D01*
X0060523Y0324568D01*
X0060438Y0324431D01*
X0060350Y0324297D01*
X0060258Y0324165D01*
X0060163Y0324035D01*
X0060065Y0323907D01*
X0059964Y0323782D01*
X0059860Y0323660D01*
X0059753Y0323540D01*
X0059643Y0323423D01*
X0059530Y0323308D01*
X0059414Y0323197D01*
X0059295Y0323088D01*
X0059174Y0322983D01*
X0059050Y0322880D01*
X0058924Y0322780D01*
X0058796Y0322684D01*
X0058665Y0322591D01*
X0058531Y0322501D01*
X0058396Y0322414D01*
X0058258Y0322331D01*
X0058119Y0322251D01*
X0057977Y0322175D01*
X0057834Y0322102D01*
X0057689Y0322033D01*
X0057542Y0321967D01*
X0057394Y0321905D01*
X0057244Y0321847D01*
X0057093Y0321792D01*
X0056940Y0321741D01*
X0056786Y0321694D01*
X0056631Y0321651D01*
X0056475Y0321612D01*
X0056319Y0321576D01*
X0056161Y0321545D01*
X0056003Y0321517D01*
X0055844Y0321493D01*
X0055684Y0321473D01*
X0055524Y0321457D01*
X0055364Y0321445D01*
X0055203Y0321437D01*
X0055042Y0321433D01*
X0054882Y0321433D01*
X0054721Y0321437D01*
X0054560Y0321445D01*
X0054400Y0321457D01*
X0054240Y0321473D01*
X0054080Y0321493D01*
X0053921Y0321517D01*
X0053763Y0321545D01*
X0053605Y0321576D01*
X0053449Y0321612D01*
X0053293Y0321651D01*
X0053138Y0321694D01*
X0052984Y0321741D01*
X0052831Y0321792D01*
X0052680Y0321847D01*
X0052530Y0321905D01*
X0052382Y0321967D01*
X0052235Y0322033D01*
X0052090Y0322102D01*
X0051947Y0322175D01*
X0051805Y0322251D01*
X0051666Y0322331D01*
X0051528Y0322414D01*
X0051393Y0322501D01*
X0051259Y0322591D01*
X0051128Y0322684D01*
X0051000Y0322780D01*
X0050874Y0322880D01*
X0050750Y0322983D01*
X0050629Y0323088D01*
X0050510Y0323197D01*
X0050394Y0323308D01*
X0050281Y0323423D01*
X0050171Y0323540D01*
X0050064Y0323660D01*
X0049960Y0323782D01*
X0049859Y0323907D01*
X0049761Y0324035D01*
X0049666Y0324165D01*
X0049574Y0324297D01*
X0049486Y0324431D01*
X0049401Y0324568D01*
X0049319Y0324706D01*
X0049241Y0324847D01*
X0049167Y0324989D01*
X0049096Y0325133D01*
X0049028Y0325279D01*
X0048965Y0325427D01*
X0048904Y0325576D01*
X0048848Y0325727D01*
X0048795Y0325879D01*
X0048746Y0326032D01*
X0048701Y0326186D01*
X0048660Y0326341D01*
X0048622Y0326498D01*
X0048589Y0326655D01*
X0048559Y0326813D01*
X0048533Y0326972D01*
X0048512Y0327131D01*
X0048494Y0327291D01*
X0048480Y0327451D01*
X0048470Y0327612D01*
X0048464Y0327772D01*
X0048462Y0327933D01*
X0048462Y0225933D02*
X0048464Y0226094D01*
X0048470Y0226254D01*
X0048480Y0226415D01*
X0048494Y0226575D01*
X0048512Y0226735D01*
X0048533Y0226894D01*
X0048559Y0227053D01*
X0048589Y0227211D01*
X0048622Y0227368D01*
X0048660Y0227525D01*
X0048701Y0227680D01*
X0048746Y0227834D01*
X0048795Y0227987D01*
X0048848Y0228139D01*
X0048904Y0228290D01*
X0048965Y0228439D01*
X0049028Y0228587D01*
X0049096Y0228733D01*
X0049167Y0228877D01*
X0049241Y0229019D01*
X0049319Y0229160D01*
X0049401Y0229298D01*
X0049486Y0229435D01*
X0049574Y0229569D01*
X0049666Y0229701D01*
X0049761Y0229831D01*
X0049859Y0229959D01*
X0049960Y0230084D01*
X0050064Y0230206D01*
X0050171Y0230326D01*
X0050281Y0230443D01*
X0050394Y0230558D01*
X0050510Y0230669D01*
X0050629Y0230778D01*
X0050750Y0230883D01*
X0050874Y0230986D01*
X0051000Y0231086D01*
X0051128Y0231182D01*
X0051259Y0231275D01*
X0051393Y0231365D01*
X0051528Y0231452D01*
X0051666Y0231535D01*
X0051805Y0231615D01*
X0051947Y0231691D01*
X0052090Y0231764D01*
X0052235Y0231833D01*
X0052382Y0231899D01*
X0052530Y0231961D01*
X0052680Y0232019D01*
X0052831Y0232074D01*
X0052984Y0232125D01*
X0053138Y0232172D01*
X0053293Y0232215D01*
X0053449Y0232254D01*
X0053605Y0232290D01*
X0053763Y0232321D01*
X0053921Y0232349D01*
X0054080Y0232373D01*
X0054240Y0232393D01*
X0054400Y0232409D01*
X0054560Y0232421D01*
X0054721Y0232429D01*
X0054882Y0232433D01*
X0055042Y0232433D01*
X0055203Y0232429D01*
X0055364Y0232421D01*
X0055524Y0232409D01*
X0055684Y0232393D01*
X0055844Y0232373D01*
X0056003Y0232349D01*
X0056161Y0232321D01*
X0056319Y0232290D01*
X0056475Y0232254D01*
X0056631Y0232215D01*
X0056786Y0232172D01*
X0056940Y0232125D01*
X0057093Y0232074D01*
X0057244Y0232019D01*
X0057394Y0231961D01*
X0057542Y0231899D01*
X0057689Y0231833D01*
X0057834Y0231764D01*
X0057977Y0231691D01*
X0058119Y0231615D01*
X0058258Y0231535D01*
X0058396Y0231452D01*
X0058531Y0231365D01*
X0058665Y0231275D01*
X0058796Y0231182D01*
X0058924Y0231086D01*
X0059050Y0230986D01*
X0059174Y0230883D01*
X0059295Y0230778D01*
X0059414Y0230669D01*
X0059530Y0230558D01*
X0059643Y0230443D01*
X0059753Y0230326D01*
X0059860Y0230206D01*
X0059964Y0230084D01*
X0060065Y0229959D01*
X0060163Y0229831D01*
X0060258Y0229701D01*
X0060350Y0229569D01*
X0060438Y0229435D01*
X0060523Y0229298D01*
X0060605Y0229160D01*
X0060683Y0229019D01*
X0060757Y0228877D01*
X0060828Y0228733D01*
X0060896Y0228587D01*
X0060959Y0228439D01*
X0061020Y0228290D01*
X0061076Y0228139D01*
X0061129Y0227987D01*
X0061178Y0227834D01*
X0061223Y0227680D01*
X0061264Y0227525D01*
X0061302Y0227368D01*
X0061335Y0227211D01*
X0061365Y0227053D01*
X0061391Y0226894D01*
X0061412Y0226735D01*
X0061430Y0226575D01*
X0061444Y0226415D01*
X0061454Y0226254D01*
X0061460Y0226094D01*
X0061462Y0225933D01*
X0061460Y0225772D01*
X0061454Y0225612D01*
X0061444Y0225451D01*
X0061430Y0225291D01*
X0061412Y0225131D01*
X0061391Y0224972D01*
X0061365Y0224813D01*
X0061335Y0224655D01*
X0061302Y0224498D01*
X0061264Y0224341D01*
X0061223Y0224186D01*
X0061178Y0224032D01*
X0061129Y0223879D01*
X0061076Y0223727D01*
X0061020Y0223576D01*
X0060959Y0223427D01*
X0060896Y0223279D01*
X0060828Y0223133D01*
X0060757Y0222989D01*
X0060683Y0222847D01*
X0060605Y0222706D01*
X0060523Y0222568D01*
X0060438Y0222431D01*
X0060350Y0222297D01*
X0060258Y0222165D01*
X0060163Y0222035D01*
X0060065Y0221907D01*
X0059964Y0221782D01*
X0059860Y0221660D01*
X0059753Y0221540D01*
X0059643Y0221423D01*
X0059530Y0221308D01*
X0059414Y0221197D01*
X0059295Y0221088D01*
X0059174Y0220983D01*
X0059050Y0220880D01*
X0058924Y0220780D01*
X0058796Y0220684D01*
X0058665Y0220591D01*
X0058531Y0220501D01*
X0058396Y0220414D01*
X0058258Y0220331D01*
X0058119Y0220251D01*
X0057977Y0220175D01*
X0057834Y0220102D01*
X0057689Y0220033D01*
X0057542Y0219967D01*
X0057394Y0219905D01*
X0057244Y0219847D01*
X0057093Y0219792D01*
X0056940Y0219741D01*
X0056786Y0219694D01*
X0056631Y0219651D01*
X0056475Y0219612D01*
X0056319Y0219576D01*
X0056161Y0219545D01*
X0056003Y0219517D01*
X0055844Y0219493D01*
X0055684Y0219473D01*
X0055524Y0219457D01*
X0055364Y0219445D01*
X0055203Y0219437D01*
X0055042Y0219433D01*
X0054882Y0219433D01*
X0054721Y0219437D01*
X0054560Y0219445D01*
X0054400Y0219457D01*
X0054240Y0219473D01*
X0054080Y0219493D01*
X0053921Y0219517D01*
X0053763Y0219545D01*
X0053605Y0219576D01*
X0053449Y0219612D01*
X0053293Y0219651D01*
X0053138Y0219694D01*
X0052984Y0219741D01*
X0052831Y0219792D01*
X0052680Y0219847D01*
X0052530Y0219905D01*
X0052382Y0219967D01*
X0052235Y0220033D01*
X0052090Y0220102D01*
X0051947Y0220175D01*
X0051805Y0220251D01*
X0051666Y0220331D01*
X0051528Y0220414D01*
X0051393Y0220501D01*
X0051259Y0220591D01*
X0051128Y0220684D01*
X0051000Y0220780D01*
X0050874Y0220880D01*
X0050750Y0220983D01*
X0050629Y0221088D01*
X0050510Y0221197D01*
X0050394Y0221308D01*
X0050281Y0221423D01*
X0050171Y0221540D01*
X0050064Y0221660D01*
X0049960Y0221782D01*
X0049859Y0221907D01*
X0049761Y0222035D01*
X0049666Y0222165D01*
X0049574Y0222297D01*
X0049486Y0222431D01*
X0049401Y0222568D01*
X0049319Y0222706D01*
X0049241Y0222847D01*
X0049167Y0222989D01*
X0049096Y0223133D01*
X0049028Y0223279D01*
X0048965Y0223427D01*
X0048904Y0223576D01*
X0048848Y0223727D01*
X0048795Y0223879D01*
X0048746Y0224032D01*
X0048701Y0224186D01*
X0048660Y0224341D01*
X0048622Y0224498D01*
X0048589Y0224655D01*
X0048559Y0224813D01*
X0048533Y0224972D01*
X0048512Y0225131D01*
X0048494Y0225291D01*
X0048480Y0225451D01*
X0048470Y0225612D01*
X0048464Y0225772D01*
X0048462Y0225933D01*
X0128462Y0225933D02*
X0128464Y0226094D01*
X0128470Y0226254D01*
X0128480Y0226415D01*
X0128494Y0226575D01*
X0128512Y0226735D01*
X0128533Y0226894D01*
X0128559Y0227053D01*
X0128589Y0227211D01*
X0128622Y0227368D01*
X0128660Y0227525D01*
X0128701Y0227680D01*
X0128746Y0227834D01*
X0128795Y0227987D01*
X0128848Y0228139D01*
X0128904Y0228290D01*
X0128965Y0228439D01*
X0129028Y0228587D01*
X0129096Y0228733D01*
X0129167Y0228877D01*
X0129241Y0229019D01*
X0129319Y0229160D01*
X0129401Y0229298D01*
X0129486Y0229435D01*
X0129574Y0229569D01*
X0129666Y0229701D01*
X0129761Y0229831D01*
X0129859Y0229959D01*
X0129960Y0230084D01*
X0130064Y0230206D01*
X0130171Y0230326D01*
X0130281Y0230443D01*
X0130394Y0230558D01*
X0130510Y0230669D01*
X0130629Y0230778D01*
X0130750Y0230883D01*
X0130874Y0230986D01*
X0131000Y0231086D01*
X0131128Y0231182D01*
X0131259Y0231275D01*
X0131393Y0231365D01*
X0131528Y0231452D01*
X0131666Y0231535D01*
X0131805Y0231615D01*
X0131947Y0231691D01*
X0132090Y0231764D01*
X0132235Y0231833D01*
X0132382Y0231899D01*
X0132530Y0231961D01*
X0132680Y0232019D01*
X0132831Y0232074D01*
X0132984Y0232125D01*
X0133138Y0232172D01*
X0133293Y0232215D01*
X0133449Y0232254D01*
X0133605Y0232290D01*
X0133763Y0232321D01*
X0133921Y0232349D01*
X0134080Y0232373D01*
X0134240Y0232393D01*
X0134400Y0232409D01*
X0134560Y0232421D01*
X0134721Y0232429D01*
X0134882Y0232433D01*
X0135042Y0232433D01*
X0135203Y0232429D01*
X0135364Y0232421D01*
X0135524Y0232409D01*
X0135684Y0232393D01*
X0135844Y0232373D01*
X0136003Y0232349D01*
X0136161Y0232321D01*
X0136319Y0232290D01*
X0136475Y0232254D01*
X0136631Y0232215D01*
X0136786Y0232172D01*
X0136940Y0232125D01*
X0137093Y0232074D01*
X0137244Y0232019D01*
X0137394Y0231961D01*
X0137542Y0231899D01*
X0137689Y0231833D01*
X0137834Y0231764D01*
X0137977Y0231691D01*
X0138119Y0231615D01*
X0138258Y0231535D01*
X0138396Y0231452D01*
X0138531Y0231365D01*
X0138665Y0231275D01*
X0138796Y0231182D01*
X0138924Y0231086D01*
X0139050Y0230986D01*
X0139174Y0230883D01*
X0139295Y0230778D01*
X0139414Y0230669D01*
X0139530Y0230558D01*
X0139643Y0230443D01*
X0139753Y0230326D01*
X0139860Y0230206D01*
X0139964Y0230084D01*
X0140065Y0229959D01*
X0140163Y0229831D01*
X0140258Y0229701D01*
X0140350Y0229569D01*
X0140438Y0229435D01*
X0140523Y0229298D01*
X0140605Y0229160D01*
X0140683Y0229019D01*
X0140757Y0228877D01*
X0140828Y0228733D01*
X0140896Y0228587D01*
X0140959Y0228439D01*
X0141020Y0228290D01*
X0141076Y0228139D01*
X0141129Y0227987D01*
X0141178Y0227834D01*
X0141223Y0227680D01*
X0141264Y0227525D01*
X0141302Y0227368D01*
X0141335Y0227211D01*
X0141365Y0227053D01*
X0141391Y0226894D01*
X0141412Y0226735D01*
X0141430Y0226575D01*
X0141444Y0226415D01*
X0141454Y0226254D01*
X0141460Y0226094D01*
X0141462Y0225933D01*
X0141460Y0225772D01*
X0141454Y0225612D01*
X0141444Y0225451D01*
X0141430Y0225291D01*
X0141412Y0225131D01*
X0141391Y0224972D01*
X0141365Y0224813D01*
X0141335Y0224655D01*
X0141302Y0224498D01*
X0141264Y0224341D01*
X0141223Y0224186D01*
X0141178Y0224032D01*
X0141129Y0223879D01*
X0141076Y0223727D01*
X0141020Y0223576D01*
X0140959Y0223427D01*
X0140896Y0223279D01*
X0140828Y0223133D01*
X0140757Y0222989D01*
X0140683Y0222847D01*
X0140605Y0222706D01*
X0140523Y0222568D01*
X0140438Y0222431D01*
X0140350Y0222297D01*
X0140258Y0222165D01*
X0140163Y0222035D01*
X0140065Y0221907D01*
X0139964Y0221782D01*
X0139860Y0221660D01*
X0139753Y0221540D01*
X0139643Y0221423D01*
X0139530Y0221308D01*
X0139414Y0221197D01*
X0139295Y0221088D01*
X0139174Y0220983D01*
X0139050Y0220880D01*
X0138924Y0220780D01*
X0138796Y0220684D01*
X0138665Y0220591D01*
X0138531Y0220501D01*
X0138396Y0220414D01*
X0138258Y0220331D01*
X0138119Y0220251D01*
X0137977Y0220175D01*
X0137834Y0220102D01*
X0137689Y0220033D01*
X0137542Y0219967D01*
X0137394Y0219905D01*
X0137244Y0219847D01*
X0137093Y0219792D01*
X0136940Y0219741D01*
X0136786Y0219694D01*
X0136631Y0219651D01*
X0136475Y0219612D01*
X0136319Y0219576D01*
X0136161Y0219545D01*
X0136003Y0219517D01*
X0135844Y0219493D01*
X0135684Y0219473D01*
X0135524Y0219457D01*
X0135364Y0219445D01*
X0135203Y0219437D01*
X0135042Y0219433D01*
X0134882Y0219433D01*
X0134721Y0219437D01*
X0134560Y0219445D01*
X0134400Y0219457D01*
X0134240Y0219473D01*
X0134080Y0219493D01*
X0133921Y0219517D01*
X0133763Y0219545D01*
X0133605Y0219576D01*
X0133449Y0219612D01*
X0133293Y0219651D01*
X0133138Y0219694D01*
X0132984Y0219741D01*
X0132831Y0219792D01*
X0132680Y0219847D01*
X0132530Y0219905D01*
X0132382Y0219967D01*
X0132235Y0220033D01*
X0132090Y0220102D01*
X0131947Y0220175D01*
X0131805Y0220251D01*
X0131666Y0220331D01*
X0131528Y0220414D01*
X0131393Y0220501D01*
X0131259Y0220591D01*
X0131128Y0220684D01*
X0131000Y0220780D01*
X0130874Y0220880D01*
X0130750Y0220983D01*
X0130629Y0221088D01*
X0130510Y0221197D01*
X0130394Y0221308D01*
X0130281Y0221423D01*
X0130171Y0221540D01*
X0130064Y0221660D01*
X0129960Y0221782D01*
X0129859Y0221907D01*
X0129761Y0222035D01*
X0129666Y0222165D01*
X0129574Y0222297D01*
X0129486Y0222431D01*
X0129401Y0222568D01*
X0129319Y0222706D01*
X0129241Y0222847D01*
X0129167Y0222989D01*
X0129096Y0223133D01*
X0129028Y0223279D01*
X0128965Y0223427D01*
X0128904Y0223576D01*
X0128848Y0223727D01*
X0128795Y0223879D01*
X0128746Y0224032D01*
X0128701Y0224186D01*
X0128660Y0224341D01*
X0128622Y0224498D01*
X0128589Y0224655D01*
X0128559Y0224813D01*
X0128533Y0224972D01*
X0128512Y0225131D01*
X0128494Y0225291D01*
X0128480Y0225451D01*
X0128470Y0225612D01*
X0128464Y0225772D01*
X0128462Y0225933D01*
X0150462Y0225933D02*
X0150464Y0226094D01*
X0150470Y0226254D01*
X0150480Y0226415D01*
X0150494Y0226575D01*
X0150512Y0226735D01*
X0150533Y0226894D01*
X0150559Y0227053D01*
X0150589Y0227211D01*
X0150622Y0227368D01*
X0150660Y0227525D01*
X0150701Y0227680D01*
X0150746Y0227834D01*
X0150795Y0227987D01*
X0150848Y0228139D01*
X0150904Y0228290D01*
X0150965Y0228439D01*
X0151028Y0228587D01*
X0151096Y0228733D01*
X0151167Y0228877D01*
X0151241Y0229019D01*
X0151319Y0229160D01*
X0151401Y0229298D01*
X0151486Y0229435D01*
X0151574Y0229569D01*
X0151666Y0229701D01*
X0151761Y0229831D01*
X0151859Y0229959D01*
X0151960Y0230084D01*
X0152064Y0230206D01*
X0152171Y0230326D01*
X0152281Y0230443D01*
X0152394Y0230558D01*
X0152510Y0230669D01*
X0152629Y0230778D01*
X0152750Y0230883D01*
X0152874Y0230986D01*
X0153000Y0231086D01*
X0153128Y0231182D01*
X0153259Y0231275D01*
X0153393Y0231365D01*
X0153528Y0231452D01*
X0153666Y0231535D01*
X0153805Y0231615D01*
X0153947Y0231691D01*
X0154090Y0231764D01*
X0154235Y0231833D01*
X0154382Y0231899D01*
X0154530Y0231961D01*
X0154680Y0232019D01*
X0154831Y0232074D01*
X0154984Y0232125D01*
X0155138Y0232172D01*
X0155293Y0232215D01*
X0155449Y0232254D01*
X0155605Y0232290D01*
X0155763Y0232321D01*
X0155921Y0232349D01*
X0156080Y0232373D01*
X0156240Y0232393D01*
X0156400Y0232409D01*
X0156560Y0232421D01*
X0156721Y0232429D01*
X0156882Y0232433D01*
X0157042Y0232433D01*
X0157203Y0232429D01*
X0157364Y0232421D01*
X0157524Y0232409D01*
X0157684Y0232393D01*
X0157844Y0232373D01*
X0158003Y0232349D01*
X0158161Y0232321D01*
X0158319Y0232290D01*
X0158475Y0232254D01*
X0158631Y0232215D01*
X0158786Y0232172D01*
X0158940Y0232125D01*
X0159093Y0232074D01*
X0159244Y0232019D01*
X0159394Y0231961D01*
X0159542Y0231899D01*
X0159689Y0231833D01*
X0159834Y0231764D01*
X0159977Y0231691D01*
X0160119Y0231615D01*
X0160258Y0231535D01*
X0160396Y0231452D01*
X0160531Y0231365D01*
X0160665Y0231275D01*
X0160796Y0231182D01*
X0160924Y0231086D01*
X0161050Y0230986D01*
X0161174Y0230883D01*
X0161295Y0230778D01*
X0161414Y0230669D01*
X0161530Y0230558D01*
X0161643Y0230443D01*
X0161753Y0230326D01*
X0161860Y0230206D01*
X0161964Y0230084D01*
X0162065Y0229959D01*
X0162163Y0229831D01*
X0162258Y0229701D01*
X0162350Y0229569D01*
X0162438Y0229435D01*
X0162523Y0229298D01*
X0162605Y0229160D01*
X0162683Y0229019D01*
X0162757Y0228877D01*
X0162828Y0228733D01*
X0162896Y0228587D01*
X0162959Y0228439D01*
X0163020Y0228290D01*
X0163076Y0228139D01*
X0163129Y0227987D01*
X0163178Y0227834D01*
X0163223Y0227680D01*
X0163264Y0227525D01*
X0163302Y0227368D01*
X0163335Y0227211D01*
X0163365Y0227053D01*
X0163391Y0226894D01*
X0163412Y0226735D01*
X0163430Y0226575D01*
X0163444Y0226415D01*
X0163454Y0226254D01*
X0163460Y0226094D01*
X0163462Y0225933D01*
X0163460Y0225772D01*
X0163454Y0225612D01*
X0163444Y0225451D01*
X0163430Y0225291D01*
X0163412Y0225131D01*
X0163391Y0224972D01*
X0163365Y0224813D01*
X0163335Y0224655D01*
X0163302Y0224498D01*
X0163264Y0224341D01*
X0163223Y0224186D01*
X0163178Y0224032D01*
X0163129Y0223879D01*
X0163076Y0223727D01*
X0163020Y0223576D01*
X0162959Y0223427D01*
X0162896Y0223279D01*
X0162828Y0223133D01*
X0162757Y0222989D01*
X0162683Y0222847D01*
X0162605Y0222706D01*
X0162523Y0222568D01*
X0162438Y0222431D01*
X0162350Y0222297D01*
X0162258Y0222165D01*
X0162163Y0222035D01*
X0162065Y0221907D01*
X0161964Y0221782D01*
X0161860Y0221660D01*
X0161753Y0221540D01*
X0161643Y0221423D01*
X0161530Y0221308D01*
X0161414Y0221197D01*
X0161295Y0221088D01*
X0161174Y0220983D01*
X0161050Y0220880D01*
X0160924Y0220780D01*
X0160796Y0220684D01*
X0160665Y0220591D01*
X0160531Y0220501D01*
X0160396Y0220414D01*
X0160258Y0220331D01*
X0160119Y0220251D01*
X0159977Y0220175D01*
X0159834Y0220102D01*
X0159689Y0220033D01*
X0159542Y0219967D01*
X0159394Y0219905D01*
X0159244Y0219847D01*
X0159093Y0219792D01*
X0158940Y0219741D01*
X0158786Y0219694D01*
X0158631Y0219651D01*
X0158475Y0219612D01*
X0158319Y0219576D01*
X0158161Y0219545D01*
X0158003Y0219517D01*
X0157844Y0219493D01*
X0157684Y0219473D01*
X0157524Y0219457D01*
X0157364Y0219445D01*
X0157203Y0219437D01*
X0157042Y0219433D01*
X0156882Y0219433D01*
X0156721Y0219437D01*
X0156560Y0219445D01*
X0156400Y0219457D01*
X0156240Y0219473D01*
X0156080Y0219493D01*
X0155921Y0219517D01*
X0155763Y0219545D01*
X0155605Y0219576D01*
X0155449Y0219612D01*
X0155293Y0219651D01*
X0155138Y0219694D01*
X0154984Y0219741D01*
X0154831Y0219792D01*
X0154680Y0219847D01*
X0154530Y0219905D01*
X0154382Y0219967D01*
X0154235Y0220033D01*
X0154090Y0220102D01*
X0153947Y0220175D01*
X0153805Y0220251D01*
X0153666Y0220331D01*
X0153528Y0220414D01*
X0153393Y0220501D01*
X0153259Y0220591D01*
X0153128Y0220684D01*
X0153000Y0220780D01*
X0152874Y0220880D01*
X0152750Y0220983D01*
X0152629Y0221088D01*
X0152510Y0221197D01*
X0152394Y0221308D01*
X0152281Y0221423D01*
X0152171Y0221540D01*
X0152064Y0221660D01*
X0151960Y0221782D01*
X0151859Y0221907D01*
X0151761Y0222035D01*
X0151666Y0222165D01*
X0151574Y0222297D01*
X0151486Y0222431D01*
X0151401Y0222568D01*
X0151319Y0222706D01*
X0151241Y0222847D01*
X0151167Y0222989D01*
X0151096Y0223133D01*
X0151028Y0223279D01*
X0150965Y0223427D01*
X0150904Y0223576D01*
X0150848Y0223727D01*
X0150795Y0223879D01*
X0150746Y0224032D01*
X0150701Y0224186D01*
X0150660Y0224341D01*
X0150622Y0224498D01*
X0150589Y0224655D01*
X0150559Y0224813D01*
X0150533Y0224972D01*
X0150512Y0225131D01*
X0150494Y0225291D01*
X0150480Y0225451D01*
X0150470Y0225612D01*
X0150464Y0225772D01*
X0150462Y0225933D01*
X0230462Y0225933D02*
X0230464Y0226094D01*
X0230470Y0226254D01*
X0230480Y0226415D01*
X0230494Y0226575D01*
X0230512Y0226735D01*
X0230533Y0226894D01*
X0230559Y0227053D01*
X0230589Y0227211D01*
X0230622Y0227368D01*
X0230660Y0227525D01*
X0230701Y0227680D01*
X0230746Y0227834D01*
X0230795Y0227987D01*
X0230848Y0228139D01*
X0230904Y0228290D01*
X0230965Y0228439D01*
X0231028Y0228587D01*
X0231096Y0228733D01*
X0231167Y0228877D01*
X0231241Y0229019D01*
X0231319Y0229160D01*
X0231401Y0229298D01*
X0231486Y0229435D01*
X0231574Y0229569D01*
X0231666Y0229701D01*
X0231761Y0229831D01*
X0231859Y0229959D01*
X0231960Y0230084D01*
X0232064Y0230206D01*
X0232171Y0230326D01*
X0232281Y0230443D01*
X0232394Y0230558D01*
X0232510Y0230669D01*
X0232629Y0230778D01*
X0232750Y0230883D01*
X0232874Y0230986D01*
X0233000Y0231086D01*
X0233128Y0231182D01*
X0233259Y0231275D01*
X0233393Y0231365D01*
X0233528Y0231452D01*
X0233666Y0231535D01*
X0233805Y0231615D01*
X0233947Y0231691D01*
X0234090Y0231764D01*
X0234235Y0231833D01*
X0234382Y0231899D01*
X0234530Y0231961D01*
X0234680Y0232019D01*
X0234831Y0232074D01*
X0234984Y0232125D01*
X0235138Y0232172D01*
X0235293Y0232215D01*
X0235449Y0232254D01*
X0235605Y0232290D01*
X0235763Y0232321D01*
X0235921Y0232349D01*
X0236080Y0232373D01*
X0236240Y0232393D01*
X0236400Y0232409D01*
X0236560Y0232421D01*
X0236721Y0232429D01*
X0236882Y0232433D01*
X0237042Y0232433D01*
X0237203Y0232429D01*
X0237364Y0232421D01*
X0237524Y0232409D01*
X0237684Y0232393D01*
X0237844Y0232373D01*
X0238003Y0232349D01*
X0238161Y0232321D01*
X0238319Y0232290D01*
X0238475Y0232254D01*
X0238631Y0232215D01*
X0238786Y0232172D01*
X0238940Y0232125D01*
X0239093Y0232074D01*
X0239244Y0232019D01*
X0239394Y0231961D01*
X0239542Y0231899D01*
X0239689Y0231833D01*
X0239834Y0231764D01*
X0239977Y0231691D01*
X0240119Y0231615D01*
X0240258Y0231535D01*
X0240396Y0231452D01*
X0240531Y0231365D01*
X0240665Y0231275D01*
X0240796Y0231182D01*
X0240924Y0231086D01*
X0241050Y0230986D01*
X0241174Y0230883D01*
X0241295Y0230778D01*
X0241414Y0230669D01*
X0241530Y0230558D01*
X0241643Y0230443D01*
X0241753Y0230326D01*
X0241860Y0230206D01*
X0241964Y0230084D01*
X0242065Y0229959D01*
X0242163Y0229831D01*
X0242258Y0229701D01*
X0242350Y0229569D01*
X0242438Y0229435D01*
X0242523Y0229298D01*
X0242605Y0229160D01*
X0242683Y0229019D01*
X0242757Y0228877D01*
X0242828Y0228733D01*
X0242896Y0228587D01*
X0242959Y0228439D01*
X0243020Y0228290D01*
X0243076Y0228139D01*
X0243129Y0227987D01*
X0243178Y0227834D01*
X0243223Y0227680D01*
X0243264Y0227525D01*
X0243302Y0227368D01*
X0243335Y0227211D01*
X0243365Y0227053D01*
X0243391Y0226894D01*
X0243412Y0226735D01*
X0243430Y0226575D01*
X0243444Y0226415D01*
X0243454Y0226254D01*
X0243460Y0226094D01*
X0243462Y0225933D01*
X0243460Y0225772D01*
X0243454Y0225612D01*
X0243444Y0225451D01*
X0243430Y0225291D01*
X0243412Y0225131D01*
X0243391Y0224972D01*
X0243365Y0224813D01*
X0243335Y0224655D01*
X0243302Y0224498D01*
X0243264Y0224341D01*
X0243223Y0224186D01*
X0243178Y0224032D01*
X0243129Y0223879D01*
X0243076Y0223727D01*
X0243020Y0223576D01*
X0242959Y0223427D01*
X0242896Y0223279D01*
X0242828Y0223133D01*
X0242757Y0222989D01*
X0242683Y0222847D01*
X0242605Y0222706D01*
X0242523Y0222568D01*
X0242438Y0222431D01*
X0242350Y0222297D01*
X0242258Y0222165D01*
X0242163Y0222035D01*
X0242065Y0221907D01*
X0241964Y0221782D01*
X0241860Y0221660D01*
X0241753Y0221540D01*
X0241643Y0221423D01*
X0241530Y0221308D01*
X0241414Y0221197D01*
X0241295Y0221088D01*
X0241174Y0220983D01*
X0241050Y0220880D01*
X0240924Y0220780D01*
X0240796Y0220684D01*
X0240665Y0220591D01*
X0240531Y0220501D01*
X0240396Y0220414D01*
X0240258Y0220331D01*
X0240119Y0220251D01*
X0239977Y0220175D01*
X0239834Y0220102D01*
X0239689Y0220033D01*
X0239542Y0219967D01*
X0239394Y0219905D01*
X0239244Y0219847D01*
X0239093Y0219792D01*
X0238940Y0219741D01*
X0238786Y0219694D01*
X0238631Y0219651D01*
X0238475Y0219612D01*
X0238319Y0219576D01*
X0238161Y0219545D01*
X0238003Y0219517D01*
X0237844Y0219493D01*
X0237684Y0219473D01*
X0237524Y0219457D01*
X0237364Y0219445D01*
X0237203Y0219437D01*
X0237042Y0219433D01*
X0236882Y0219433D01*
X0236721Y0219437D01*
X0236560Y0219445D01*
X0236400Y0219457D01*
X0236240Y0219473D01*
X0236080Y0219493D01*
X0235921Y0219517D01*
X0235763Y0219545D01*
X0235605Y0219576D01*
X0235449Y0219612D01*
X0235293Y0219651D01*
X0235138Y0219694D01*
X0234984Y0219741D01*
X0234831Y0219792D01*
X0234680Y0219847D01*
X0234530Y0219905D01*
X0234382Y0219967D01*
X0234235Y0220033D01*
X0234090Y0220102D01*
X0233947Y0220175D01*
X0233805Y0220251D01*
X0233666Y0220331D01*
X0233528Y0220414D01*
X0233393Y0220501D01*
X0233259Y0220591D01*
X0233128Y0220684D01*
X0233000Y0220780D01*
X0232874Y0220880D01*
X0232750Y0220983D01*
X0232629Y0221088D01*
X0232510Y0221197D01*
X0232394Y0221308D01*
X0232281Y0221423D01*
X0232171Y0221540D01*
X0232064Y0221660D01*
X0231960Y0221782D01*
X0231859Y0221907D01*
X0231761Y0222035D01*
X0231666Y0222165D01*
X0231574Y0222297D01*
X0231486Y0222431D01*
X0231401Y0222568D01*
X0231319Y0222706D01*
X0231241Y0222847D01*
X0231167Y0222989D01*
X0231096Y0223133D01*
X0231028Y0223279D01*
X0230965Y0223427D01*
X0230904Y0223576D01*
X0230848Y0223727D01*
X0230795Y0223879D01*
X0230746Y0224032D01*
X0230701Y0224186D01*
X0230660Y0224341D01*
X0230622Y0224498D01*
X0230589Y0224655D01*
X0230559Y0224813D01*
X0230533Y0224972D01*
X0230512Y0225131D01*
X0230494Y0225291D01*
X0230480Y0225451D01*
X0230470Y0225612D01*
X0230464Y0225772D01*
X0230462Y0225933D01*
X0252462Y0225933D02*
X0252464Y0226094D01*
X0252470Y0226254D01*
X0252480Y0226415D01*
X0252494Y0226575D01*
X0252512Y0226735D01*
X0252533Y0226894D01*
X0252559Y0227053D01*
X0252589Y0227211D01*
X0252622Y0227368D01*
X0252660Y0227525D01*
X0252701Y0227680D01*
X0252746Y0227834D01*
X0252795Y0227987D01*
X0252848Y0228139D01*
X0252904Y0228290D01*
X0252965Y0228439D01*
X0253028Y0228587D01*
X0253096Y0228733D01*
X0253167Y0228877D01*
X0253241Y0229019D01*
X0253319Y0229160D01*
X0253401Y0229298D01*
X0253486Y0229435D01*
X0253574Y0229569D01*
X0253666Y0229701D01*
X0253761Y0229831D01*
X0253859Y0229959D01*
X0253960Y0230084D01*
X0254064Y0230206D01*
X0254171Y0230326D01*
X0254281Y0230443D01*
X0254394Y0230558D01*
X0254510Y0230669D01*
X0254629Y0230778D01*
X0254750Y0230883D01*
X0254874Y0230986D01*
X0255000Y0231086D01*
X0255128Y0231182D01*
X0255259Y0231275D01*
X0255393Y0231365D01*
X0255528Y0231452D01*
X0255666Y0231535D01*
X0255805Y0231615D01*
X0255947Y0231691D01*
X0256090Y0231764D01*
X0256235Y0231833D01*
X0256382Y0231899D01*
X0256530Y0231961D01*
X0256680Y0232019D01*
X0256831Y0232074D01*
X0256984Y0232125D01*
X0257138Y0232172D01*
X0257293Y0232215D01*
X0257449Y0232254D01*
X0257605Y0232290D01*
X0257763Y0232321D01*
X0257921Y0232349D01*
X0258080Y0232373D01*
X0258240Y0232393D01*
X0258400Y0232409D01*
X0258560Y0232421D01*
X0258721Y0232429D01*
X0258882Y0232433D01*
X0259042Y0232433D01*
X0259203Y0232429D01*
X0259364Y0232421D01*
X0259524Y0232409D01*
X0259684Y0232393D01*
X0259844Y0232373D01*
X0260003Y0232349D01*
X0260161Y0232321D01*
X0260319Y0232290D01*
X0260475Y0232254D01*
X0260631Y0232215D01*
X0260786Y0232172D01*
X0260940Y0232125D01*
X0261093Y0232074D01*
X0261244Y0232019D01*
X0261394Y0231961D01*
X0261542Y0231899D01*
X0261689Y0231833D01*
X0261834Y0231764D01*
X0261977Y0231691D01*
X0262119Y0231615D01*
X0262258Y0231535D01*
X0262396Y0231452D01*
X0262531Y0231365D01*
X0262665Y0231275D01*
X0262796Y0231182D01*
X0262924Y0231086D01*
X0263050Y0230986D01*
X0263174Y0230883D01*
X0263295Y0230778D01*
X0263414Y0230669D01*
X0263530Y0230558D01*
X0263643Y0230443D01*
X0263753Y0230326D01*
X0263860Y0230206D01*
X0263964Y0230084D01*
X0264065Y0229959D01*
X0264163Y0229831D01*
X0264258Y0229701D01*
X0264350Y0229569D01*
X0264438Y0229435D01*
X0264523Y0229298D01*
X0264605Y0229160D01*
X0264683Y0229019D01*
X0264757Y0228877D01*
X0264828Y0228733D01*
X0264896Y0228587D01*
X0264959Y0228439D01*
X0265020Y0228290D01*
X0265076Y0228139D01*
X0265129Y0227987D01*
X0265178Y0227834D01*
X0265223Y0227680D01*
X0265264Y0227525D01*
X0265302Y0227368D01*
X0265335Y0227211D01*
X0265365Y0227053D01*
X0265391Y0226894D01*
X0265412Y0226735D01*
X0265430Y0226575D01*
X0265444Y0226415D01*
X0265454Y0226254D01*
X0265460Y0226094D01*
X0265462Y0225933D01*
X0265460Y0225772D01*
X0265454Y0225612D01*
X0265444Y0225451D01*
X0265430Y0225291D01*
X0265412Y0225131D01*
X0265391Y0224972D01*
X0265365Y0224813D01*
X0265335Y0224655D01*
X0265302Y0224498D01*
X0265264Y0224341D01*
X0265223Y0224186D01*
X0265178Y0224032D01*
X0265129Y0223879D01*
X0265076Y0223727D01*
X0265020Y0223576D01*
X0264959Y0223427D01*
X0264896Y0223279D01*
X0264828Y0223133D01*
X0264757Y0222989D01*
X0264683Y0222847D01*
X0264605Y0222706D01*
X0264523Y0222568D01*
X0264438Y0222431D01*
X0264350Y0222297D01*
X0264258Y0222165D01*
X0264163Y0222035D01*
X0264065Y0221907D01*
X0263964Y0221782D01*
X0263860Y0221660D01*
X0263753Y0221540D01*
X0263643Y0221423D01*
X0263530Y0221308D01*
X0263414Y0221197D01*
X0263295Y0221088D01*
X0263174Y0220983D01*
X0263050Y0220880D01*
X0262924Y0220780D01*
X0262796Y0220684D01*
X0262665Y0220591D01*
X0262531Y0220501D01*
X0262396Y0220414D01*
X0262258Y0220331D01*
X0262119Y0220251D01*
X0261977Y0220175D01*
X0261834Y0220102D01*
X0261689Y0220033D01*
X0261542Y0219967D01*
X0261394Y0219905D01*
X0261244Y0219847D01*
X0261093Y0219792D01*
X0260940Y0219741D01*
X0260786Y0219694D01*
X0260631Y0219651D01*
X0260475Y0219612D01*
X0260319Y0219576D01*
X0260161Y0219545D01*
X0260003Y0219517D01*
X0259844Y0219493D01*
X0259684Y0219473D01*
X0259524Y0219457D01*
X0259364Y0219445D01*
X0259203Y0219437D01*
X0259042Y0219433D01*
X0258882Y0219433D01*
X0258721Y0219437D01*
X0258560Y0219445D01*
X0258400Y0219457D01*
X0258240Y0219473D01*
X0258080Y0219493D01*
X0257921Y0219517D01*
X0257763Y0219545D01*
X0257605Y0219576D01*
X0257449Y0219612D01*
X0257293Y0219651D01*
X0257138Y0219694D01*
X0256984Y0219741D01*
X0256831Y0219792D01*
X0256680Y0219847D01*
X0256530Y0219905D01*
X0256382Y0219967D01*
X0256235Y0220033D01*
X0256090Y0220102D01*
X0255947Y0220175D01*
X0255805Y0220251D01*
X0255666Y0220331D01*
X0255528Y0220414D01*
X0255393Y0220501D01*
X0255259Y0220591D01*
X0255128Y0220684D01*
X0255000Y0220780D01*
X0254874Y0220880D01*
X0254750Y0220983D01*
X0254629Y0221088D01*
X0254510Y0221197D01*
X0254394Y0221308D01*
X0254281Y0221423D01*
X0254171Y0221540D01*
X0254064Y0221660D01*
X0253960Y0221782D01*
X0253859Y0221907D01*
X0253761Y0222035D01*
X0253666Y0222165D01*
X0253574Y0222297D01*
X0253486Y0222431D01*
X0253401Y0222568D01*
X0253319Y0222706D01*
X0253241Y0222847D01*
X0253167Y0222989D01*
X0253096Y0223133D01*
X0253028Y0223279D01*
X0252965Y0223427D01*
X0252904Y0223576D01*
X0252848Y0223727D01*
X0252795Y0223879D01*
X0252746Y0224032D01*
X0252701Y0224186D01*
X0252660Y0224341D01*
X0252622Y0224498D01*
X0252589Y0224655D01*
X0252559Y0224813D01*
X0252533Y0224972D01*
X0252512Y0225131D01*
X0252494Y0225291D01*
X0252480Y0225451D01*
X0252470Y0225612D01*
X0252464Y0225772D01*
X0252462Y0225933D01*
X0332462Y0225933D02*
X0332464Y0226094D01*
X0332470Y0226254D01*
X0332480Y0226415D01*
X0332494Y0226575D01*
X0332512Y0226735D01*
X0332533Y0226894D01*
X0332559Y0227053D01*
X0332589Y0227211D01*
X0332622Y0227368D01*
X0332660Y0227525D01*
X0332701Y0227680D01*
X0332746Y0227834D01*
X0332795Y0227987D01*
X0332848Y0228139D01*
X0332904Y0228290D01*
X0332965Y0228439D01*
X0333028Y0228587D01*
X0333096Y0228733D01*
X0333167Y0228877D01*
X0333241Y0229019D01*
X0333319Y0229160D01*
X0333401Y0229298D01*
X0333486Y0229435D01*
X0333574Y0229569D01*
X0333666Y0229701D01*
X0333761Y0229831D01*
X0333859Y0229959D01*
X0333960Y0230084D01*
X0334064Y0230206D01*
X0334171Y0230326D01*
X0334281Y0230443D01*
X0334394Y0230558D01*
X0334510Y0230669D01*
X0334629Y0230778D01*
X0334750Y0230883D01*
X0334874Y0230986D01*
X0335000Y0231086D01*
X0335128Y0231182D01*
X0335259Y0231275D01*
X0335393Y0231365D01*
X0335528Y0231452D01*
X0335666Y0231535D01*
X0335805Y0231615D01*
X0335947Y0231691D01*
X0336090Y0231764D01*
X0336235Y0231833D01*
X0336382Y0231899D01*
X0336530Y0231961D01*
X0336680Y0232019D01*
X0336831Y0232074D01*
X0336984Y0232125D01*
X0337138Y0232172D01*
X0337293Y0232215D01*
X0337449Y0232254D01*
X0337605Y0232290D01*
X0337763Y0232321D01*
X0337921Y0232349D01*
X0338080Y0232373D01*
X0338240Y0232393D01*
X0338400Y0232409D01*
X0338560Y0232421D01*
X0338721Y0232429D01*
X0338882Y0232433D01*
X0339042Y0232433D01*
X0339203Y0232429D01*
X0339364Y0232421D01*
X0339524Y0232409D01*
X0339684Y0232393D01*
X0339844Y0232373D01*
X0340003Y0232349D01*
X0340161Y0232321D01*
X0340319Y0232290D01*
X0340475Y0232254D01*
X0340631Y0232215D01*
X0340786Y0232172D01*
X0340940Y0232125D01*
X0341093Y0232074D01*
X0341244Y0232019D01*
X0341394Y0231961D01*
X0341542Y0231899D01*
X0341689Y0231833D01*
X0341834Y0231764D01*
X0341977Y0231691D01*
X0342119Y0231615D01*
X0342258Y0231535D01*
X0342396Y0231452D01*
X0342531Y0231365D01*
X0342665Y0231275D01*
X0342796Y0231182D01*
X0342924Y0231086D01*
X0343050Y0230986D01*
X0343174Y0230883D01*
X0343295Y0230778D01*
X0343414Y0230669D01*
X0343530Y0230558D01*
X0343643Y0230443D01*
X0343753Y0230326D01*
X0343860Y0230206D01*
X0343964Y0230084D01*
X0344065Y0229959D01*
X0344163Y0229831D01*
X0344258Y0229701D01*
X0344350Y0229569D01*
X0344438Y0229435D01*
X0344523Y0229298D01*
X0344605Y0229160D01*
X0344683Y0229019D01*
X0344757Y0228877D01*
X0344828Y0228733D01*
X0344896Y0228587D01*
X0344959Y0228439D01*
X0345020Y0228290D01*
X0345076Y0228139D01*
X0345129Y0227987D01*
X0345178Y0227834D01*
X0345223Y0227680D01*
X0345264Y0227525D01*
X0345302Y0227368D01*
X0345335Y0227211D01*
X0345365Y0227053D01*
X0345391Y0226894D01*
X0345412Y0226735D01*
X0345430Y0226575D01*
X0345444Y0226415D01*
X0345454Y0226254D01*
X0345460Y0226094D01*
X0345462Y0225933D01*
X0345460Y0225772D01*
X0345454Y0225612D01*
X0345444Y0225451D01*
X0345430Y0225291D01*
X0345412Y0225131D01*
X0345391Y0224972D01*
X0345365Y0224813D01*
X0345335Y0224655D01*
X0345302Y0224498D01*
X0345264Y0224341D01*
X0345223Y0224186D01*
X0345178Y0224032D01*
X0345129Y0223879D01*
X0345076Y0223727D01*
X0345020Y0223576D01*
X0344959Y0223427D01*
X0344896Y0223279D01*
X0344828Y0223133D01*
X0344757Y0222989D01*
X0344683Y0222847D01*
X0344605Y0222706D01*
X0344523Y0222568D01*
X0344438Y0222431D01*
X0344350Y0222297D01*
X0344258Y0222165D01*
X0344163Y0222035D01*
X0344065Y0221907D01*
X0343964Y0221782D01*
X0343860Y0221660D01*
X0343753Y0221540D01*
X0343643Y0221423D01*
X0343530Y0221308D01*
X0343414Y0221197D01*
X0343295Y0221088D01*
X0343174Y0220983D01*
X0343050Y0220880D01*
X0342924Y0220780D01*
X0342796Y0220684D01*
X0342665Y0220591D01*
X0342531Y0220501D01*
X0342396Y0220414D01*
X0342258Y0220331D01*
X0342119Y0220251D01*
X0341977Y0220175D01*
X0341834Y0220102D01*
X0341689Y0220033D01*
X0341542Y0219967D01*
X0341394Y0219905D01*
X0341244Y0219847D01*
X0341093Y0219792D01*
X0340940Y0219741D01*
X0340786Y0219694D01*
X0340631Y0219651D01*
X0340475Y0219612D01*
X0340319Y0219576D01*
X0340161Y0219545D01*
X0340003Y0219517D01*
X0339844Y0219493D01*
X0339684Y0219473D01*
X0339524Y0219457D01*
X0339364Y0219445D01*
X0339203Y0219437D01*
X0339042Y0219433D01*
X0338882Y0219433D01*
X0338721Y0219437D01*
X0338560Y0219445D01*
X0338400Y0219457D01*
X0338240Y0219473D01*
X0338080Y0219493D01*
X0337921Y0219517D01*
X0337763Y0219545D01*
X0337605Y0219576D01*
X0337449Y0219612D01*
X0337293Y0219651D01*
X0337138Y0219694D01*
X0336984Y0219741D01*
X0336831Y0219792D01*
X0336680Y0219847D01*
X0336530Y0219905D01*
X0336382Y0219967D01*
X0336235Y0220033D01*
X0336090Y0220102D01*
X0335947Y0220175D01*
X0335805Y0220251D01*
X0335666Y0220331D01*
X0335528Y0220414D01*
X0335393Y0220501D01*
X0335259Y0220591D01*
X0335128Y0220684D01*
X0335000Y0220780D01*
X0334874Y0220880D01*
X0334750Y0220983D01*
X0334629Y0221088D01*
X0334510Y0221197D01*
X0334394Y0221308D01*
X0334281Y0221423D01*
X0334171Y0221540D01*
X0334064Y0221660D01*
X0333960Y0221782D01*
X0333859Y0221907D01*
X0333761Y0222035D01*
X0333666Y0222165D01*
X0333574Y0222297D01*
X0333486Y0222431D01*
X0333401Y0222568D01*
X0333319Y0222706D01*
X0333241Y0222847D01*
X0333167Y0222989D01*
X0333096Y0223133D01*
X0333028Y0223279D01*
X0332965Y0223427D01*
X0332904Y0223576D01*
X0332848Y0223727D01*
X0332795Y0223879D01*
X0332746Y0224032D01*
X0332701Y0224186D01*
X0332660Y0224341D01*
X0332622Y0224498D01*
X0332589Y0224655D01*
X0332559Y0224813D01*
X0332533Y0224972D01*
X0332512Y0225131D01*
X0332494Y0225291D01*
X0332480Y0225451D01*
X0332470Y0225612D01*
X0332464Y0225772D01*
X0332462Y0225933D01*
X0332462Y0123933D02*
X0332464Y0124094D01*
X0332470Y0124254D01*
X0332480Y0124415D01*
X0332494Y0124575D01*
X0332512Y0124735D01*
X0332533Y0124894D01*
X0332559Y0125053D01*
X0332589Y0125211D01*
X0332622Y0125368D01*
X0332660Y0125525D01*
X0332701Y0125680D01*
X0332746Y0125834D01*
X0332795Y0125987D01*
X0332848Y0126139D01*
X0332904Y0126290D01*
X0332965Y0126439D01*
X0333028Y0126587D01*
X0333096Y0126733D01*
X0333167Y0126877D01*
X0333241Y0127019D01*
X0333319Y0127160D01*
X0333401Y0127298D01*
X0333486Y0127435D01*
X0333574Y0127569D01*
X0333666Y0127701D01*
X0333761Y0127831D01*
X0333859Y0127959D01*
X0333960Y0128084D01*
X0334064Y0128206D01*
X0334171Y0128326D01*
X0334281Y0128443D01*
X0334394Y0128558D01*
X0334510Y0128669D01*
X0334629Y0128778D01*
X0334750Y0128883D01*
X0334874Y0128986D01*
X0335000Y0129086D01*
X0335128Y0129182D01*
X0335259Y0129275D01*
X0335393Y0129365D01*
X0335528Y0129452D01*
X0335666Y0129535D01*
X0335805Y0129615D01*
X0335947Y0129691D01*
X0336090Y0129764D01*
X0336235Y0129833D01*
X0336382Y0129899D01*
X0336530Y0129961D01*
X0336680Y0130019D01*
X0336831Y0130074D01*
X0336984Y0130125D01*
X0337138Y0130172D01*
X0337293Y0130215D01*
X0337449Y0130254D01*
X0337605Y0130290D01*
X0337763Y0130321D01*
X0337921Y0130349D01*
X0338080Y0130373D01*
X0338240Y0130393D01*
X0338400Y0130409D01*
X0338560Y0130421D01*
X0338721Y0130429D01*
X0338882Y0130433D01*
X0339042Y0130433D01*
X0339203Y0130429D01*
X0339364Y0130421D01*
X0339524Y0130409D01*
X0339684Y0130393D01*
X0339844Y0130373D01*
X0340003Y0130349D01*
X0340161Y0130321D01*
X0340319Y0130290D01*
X0340475Y0130254D01*
X0340631Y0130215D01*
X0340786Y0130172D01*
X0340940Y0130125D01*
X0341093Y0130074D01*
X0341244Y0130019D01*
X0341394Y0129961D01*
X0341542Y0129899D01*
X0341689Y0129833D01*
X0341834Y0129764D01*
X0341977Y0129691D01*
X0342119Y0129615D01*
X0342258Y0129535D01*
X0342396Y0129452D01*
X0342531Y0129365D01*
X0342665Y0129275D01*
X0342796Y0129182D01*
X0342924Y0129086D01*
X0343050Y0128986D01*
X0343174Y0128883D01*
X0343295Y0128778D01*
X0343414Y0128669D01*
X0343530Y0128558D01*
X0343643Y0128443D01*
X0343753Y0128326D01*
X0343860Y0128206D01*
X0343964Y0128084D01*
X0344065Y0127959D01*
X0344163Y0127831D01*
X0344258Y0127701D01*
X0344350Y0127569D01*
X0344438Y0127435D01*
X0344523Y0127298D01*
X0344605Y0127160D01*
X0344683Y0127019D01*
X0344757Y0126877D01*
X0344828Y0126733D01*
X0344896Y0126587D01*
X0344959Y0126439D01*
X0345020Y0126290D01*
X0345076Y0126139D01*
X0345129Y0125987D01*
X0345178Y0125834D01*
X0345223Y0125680D01*
X0345264Y0125525D01*
X0345302Y0125368D01*
X0345335Y0125211D01*
X0345365Y0125053D01*
X0345391Y0124894D01*
X0345412Y0124735D01*
X0345430Y0124575D01*
X0345444Y0124415D01*
X0345454Y0124254D01*
X0345460Y0124094D01*
X0345462Y0123933D01*
X0345460Y0123772D01*
X0345454Y0123612D01*
X0345444Y0123451D01*
X0345430Y0123291D01*
X0345412Y0123131D01*
X0345391Y0122972D01*
X0345365Y0122813D01*
X0345335Y0122655D01*
X0345302Y0122498D01*
X0345264Y0122341D01*
X0345223Y0122186D01*
X0345178Y0122032D01*
X0345129Y0121879D01*
X0345076Y0121727D01*
X0345020Y0121576D01*
X0344959Y0121427D01*
X0344896Y0121279D01*
X0344828Y0121133D01*
X0344757Y0120989D01*
X0344683Y0120847D01*
X0344605Y0120706D01*
X0344523Y0120568D01*
X0344438Y0120431D01*
X0344350Y0120297D01*
X0344258Y0120165D01*
X0344163Y0120035D01*
X0344065Y0119907D01*
X0343964Y0119782D01*
X0343860Y0119660D01*
X0343753Y0119540D01*
X0343643Y0119423D01*
X0343530Y0119308D01*
X0343414Y0119197D01*
X0343295Y0119088D01*
X0343174Y0118983D01*
X0343050Y0118880D01*
X0342924Y0118780D01*
X0342796Y0118684D01*
X0342665Y0118591D01*
X0342531Y0118501D01*
X0342396Y0118414D01*
X0342258Y0118331D01*
X0342119Y0118251D01*
X0341977Y0118175D01*
X0341834Y0118102D01*
X0341689Y0118033D01*
X0341542Y0117967D01*
X0341394Y0117905D01*
X0341244Y0117847D01*
X0341093Y0117792D01*
X0340940Y0117741D01*
X0340786Y0117694D01*
X0340631Y0117651D01*
X0340475Y0117612D01*
X0340319Y0117576D01*
X0340161Y0117545D01*
X0340003Y0117517D01*
X0339844Y0117493D01*
X0339684Y0117473D01*
X0339524Y0117457D01*
X0339364Y0117445D01*
X0339203Y0117437D01*
X0339042Y0117433D01*
X0338882Y0117433D01*
X0338721Y0117437D01*
X0338560Y0117445D01*
X0338400Y0117457D01*
X0338240Y0117473D01*
X0338080Y0117493D01*
X0337921Y0117517D01*
X0337763Y0117545D01*
X0337605Y0117576D01*
X0337449Y0117612D01*
X0337293Y0117651D01*
X0337138Y0117694D01*
X0336984Y0117741D01*
X0336831Y0117792D01*
X0336680Y0117847D01*
X0336530Y0117905D01*
X0336382Y0117967D01*
X0336235Y0118033D01*
X0336090Y0118102D01*
X0335947Y0118175D01*
X0335805Y0118251D01*
X0335666Y0118331D01*
X0335528Y0118414D01*
X0335393Y0118501D01*
X0335259Y0118591D01*
X0335128Y0118684D01*
X0335000Y0118780D01*
X0334874Y0118880D01*
X0334750Y0118983D01*
X0334629Y0119088D01*
X0334510Y0119197D01*
X0334394Y0119308D01*
X0334281Y0119423D01*
X0334171Y0119540D01*
X0334064Y0119660D01*
X0333960Y0119782D01*
X0333859Y0119907D01*
X0333761Y0120035D01*
X0333666Y0120165D01*
X0333574Y0120297D01*
X0333486Y0120431D01*
X0333401Y0120568D01*
X0333319Y0120706D01*
X0333241Y0120847D01*
X0333167Y0120989D01*
X0333096Y0121133D01*
X0333028Y0121279D01*
X0332965Y0121427D01*
X0332904Y0121576D01*
X0332848Y0121727D01*
X0332795Y0121879D01*
X0332746Y0122032D01*
X0332701Y0122186D01*
X0332660Y0122341D01*
X0332622Y0122498D01*
X0332589Y0122655D01*
X0332559Y0122813D01*
X0332533Y0122972D01*
X0332512Y0123131D01*
X0332494Y0123291D01*
X0332480Y0123451D01*
X0332470Y0123612D01*
X0332464Y0123772D01*
X0332462Y0123933D01*
X0252462Y0123933D02*
X0252464Y0124094D01*
X0252470Y0124254D01*
X0252480Y0124415D01*
X0252494Y0124575D01*
X0252512Y0124735D01*
X0252533Y0124894D01*
X0252559Y0125053D01*
X0252589Y0125211D01*
X0252622Y0125368D01*
X0252660Y0125525D01*
X0252701Y0125680D01*
X0252746Y0125834D01*
X0252795Y0125987D01*
X0252848Y0126139D01*
X0252904Y0126290D01*
X0252965Y0126439D01*
X0253028Y0126587D01*
X0253096Y0126733D01*
X0253167Y0126877D01*
X0253241Y0127019D01*
X0253319Y0127160D01*
X0253401Y0127298D01*
X0253486Y0127435D01*
X0253574Y0127569D01*
X0253666Y0127701D01*
X0253761Y0127831D01*
X0253859Y0127959D01*
X0253960Y0128084D01*
X0254064Y0128206D01*
X0254171Y0128326D01*
X0254281Y0128443D01*
X0254394Y0128558D01*
X0254510Y0128669D01*
X0254629Y0128778D01*
X0254750Y0128883D01*
X0254874Y0128986D01*
X0255000Y0129086D01*
X0255128Y0129182D01*
X0255259Y0129275D01*
X0255393Y0129365D01*
X0255528Y0129452D01*
X0255666Y0129535D01*
X0255805Y0129615D01*
X0255947Y0129691D01*
X0256090Y0129764D01*
X0256235Y0129833D01*
X0256382Y0129899D01*
X0256530Y0129961D01*
X0256680Y0130019D01*
X0256831Y0130074D01*
X0256984Y0130125D01*
X0257138Y0130172D01*
X0257293Y0130215D01*
X0257449Y0130254D01*
X0257605Y0130290D01*
X0257763Y0130321D01*
X0257921Y0130349D01*
X0258080Y0130373D01*
X0258240Y0130393D01*
X0258400Y0130409D01*
X0258560Y0130421D01*
X0258721Y0130429D01*
X0258882Y0130433D01*
X0259042Y0130433D01*
X0259203Y0130429D01*
X0259364Y0130421D01*
X0259524Y0130409D01*
X0259684Y0130393D01*
X0259844Y0130373D01*
X0260003Y0130349D01*
X0260161Y0130321D01*
X0260319Y0130290D01*
X0260475Y0130254D01*
X0260631Y0130215D01*
X0260786Y0130172D01*
X0260940Y0130125D01*
X0261093Y0130074D01*
X0261244Y0130019D01*
X0261394Y0129961D01*
X0261542Y0129899D01*
X0261689Y0129833D01*
X0261834Y0129764D01*
X0261977Y0129691D01*
X0262119Y0129615D01*
X0262258Y0129535D01*
X0262396Y0129452D01*
X0262531Y0129365D01*
X0262665Y0129275D01*
X0262796Y0129182D01*
X0262924Y0129086D01*
X0263050Y0128986D01*
X0263174Y0128883D01*
X0263295Y0128778D01*
X0263414Y0128669D01*
X0263530Y0128558D01*
X0263643Y0128443D01*
X0263753Y0128326D01*
X0263860Y0128206D01*
X0263964Y0128084D01*
X0264065Y0127959D01*
X0264163Y0127831D01*
X0264258Y0127701D01*
X0264350Y0127569D01*
X0264438Y0127435D01*
X0264523Y0127298D01*
X0264605Y0127160D01*
X0264683Y0127019D01*
X0264757Y0126877D01*
X0264828Y0126733D01*
X0264896Y0126587D01*
X0264959Y0126439D01*
X0265020Y0126290D01*
X0265076Y0126139D01*
X0265129Y0125987D01*
X0265178Y0125834D01*
X0265223Y0125680D01*
X0265264Y0125525D01*
X0265302Y0125368D01*
X0265335Y0125211D01*
X0265365Y0125053D01*
X0265391Y0124894D01*
X0265412Y0124735D01*
X0265430Y0124575D01*
X0265444Y0124415D01*
X0265454Y0124254D01*
X0265460Y0124094D01*
X0265462Y0123933D01*
X0265460Y0123772D01*
X0265454Y0123612D01*
X0265444Y0123451D01*
X0265430Y0123291D01*
X0265412Y0123131D01*
X0265391Y0122972D01*
X0265365Y0122813D01*
X0265335Y0122655D01*
X0265302Y0122498D01*
X0265264Y0122341D01*
X0265223Y0122186D01*
X0265178Y0122032D01*
X0265129Y0121879D01*
X0265076Y0121727D01*
X0265020Y0121576D01*
X0264959Y0121427D01*
X0264896Y0121279D01*
X0264828Y0121133D01*
X0264757Y0120989D01*
X0264683Y0120847D01*
X0264605Y0120706D01*
X0264523Y0120568D01*
X0264438Y0120431D01*
X0264350Y0120297D01*
X0264258Y0120165D01*
X0264163Y0120035D01*
X0264065Y0119907D01*
X0263964Y0119782D01*
X0263860Y0119660D01*
X0263753Y0119540D01*
X0263643Y0119423D01*
X0263530Y0119308D01*
X0263414Y0119197D01*
X0263295Y0119088D01*
X0263174Y0118983D01*
X0263050Y0118880D01*
X0262924Y0118780D01*
X0262796Y0118684D01*
X0262665Y0118591D01*
X0262531Y0118501D01*
X0262396Y0118414D01*
X0262258Y0118331D01*
X0262119Y0118251D01*
X0261977Y0118175D01*
X0261834Y0118102D01*
X0261689Y0118033D01*
X0261542Y0117967D01*
X0261394Y0117905D01*
X0261244Y0117847D01*
X0261093Y0117792D01*
X0260940Y0117741D01*
X0260786Y0117694D01*
X0260631Y0117651D01*
X0260475Y0117612D01*
X0260319Y0117576D01*
X0260161Y0117545D01*
X0260003Y0117517D01*
X0259844Y0117493D01*
X0259684Y0117473D01*
X0259524Y0117457D01*
X0259364Y0117445D01*
X0259203Y0117437D01*
X0259042Y0117433D01*
X0258882Y0117433D01*
X0258721Y0117437D01*
X0258560Y0117445D01*
X0258400Y0117457D01*
X0258240Y0117473D01*
X0258080Y0117493D01*
X0257921Y0117517D01*
X0257763Y0117545D01*
X0257605Y0117576D01*
X0257449Y0117612D01*
X0257293Y0117651D01*
X0257138Y0117694D01*
X0256984Y0117741D01*
X0256831Y0117792D01*
X0256680Y0117847D01*
X0256530Y0117905D01*
X0256382Y0117967D01*
X0256235Y0118033D01*
X0256090Y0118102D01*
X0255947Y0118175D01*
X0255805Y0118251D01*
X0255666Y0118331D01*
X0255528Y0118414D01*
X0255393Y0118501D01*
X0255259Y0118591D01*
X0255128Y0118684D01*
X0255000Y0118780D01*
X0254874Y0118880D01*
X0254750Y0118983D01*
X0254629Y0119088D01*
X0254510Y0119197D01*
X0254394Y0119308D01*
X0254281Y0119423D01*
X0254171Y0119540D01*
X0254064Y0119660D01*
X0253960Y0119782D01*
X0253859Y0119907D01*
X0253761Y0120035D01*
X0253666Y0120165D01*
X0253574Y0120297D01*
X0253486Y0120431D01*
X0253401Y0120568D01*
X0253319Y0120706D01*
X0253241Y0120847D01*
X0253167Y0120989D01*
X0253096Y0121133D01*
X0253028Y0121279D01*
X0252965Y0121427D01*
X0252904Y0121576D01*
X0252848Y0121727D01*
X0252795Y0121879D01*
X0252746Y0122032D01*
X0252701Y0122186D01*
X0252660Y0122341D01*
X0252622Y0122498D01*
X0252589Y0122655D01*
X0252559Y0122813D01*
X0252533Y0122972D01*
X0252512Y0123131D01*
X0252494Y0123291D01*
X0252480Y0123451D01*
X0252470Y0123612D01*
X0252464Y0123772D01*
X0252462Y0123933D01*
X0230462Y0123933D02*
X0230464Y0124094D01*
X0230470Y0124254D01*
X0230480Y0124415D01*
X0230494Y0124575D01*
X0230512Y0124735D01*
X0230533Y0124894D01*
X0230559Y0125053D01*
X0230589Y0125211D01*
X0230622Y0125368D01*
X0230660Y0125525D01*
X0230701Y0125680D01*
X0230746Y0125834D01*
X0230795Y0125987D01*
X0230848Y0126139D01*
X0230904Y0126290D01*
X0230965Y0126439D01*
X0231028Y0126587D01*
X0231096Y0126733D01*
X0231167Y0126877D01*
X0231241Y0127019D01*
X0231319Y0127160D01*
X0231401Y0127298D01*
X0231486Y0127435D01*
X0231574Y0127569D01*
X0231666Y0127701D01*
X0231761Y0127831D01*
X0231859Y0127959D01*
X0231960Y0128084D01*
X0232064Y0128206D01*
X0232171Y0128326D01*
X0232281Y0128443D01*
X0232394Y0128558D01*
X0232510Y0128669D01*
X0232629Y0128778D01*
X0232750Y0128883D01*
X0232874Y0128986D01*
X0233000Y0129086D01*
X0233128Y0129182D01*
X0233259Y0129275D01*
X0233393Y0129365D01*
X0233528Y0129452D01*
X0233666Y0129535D01*
X0233805Y0129615D01*
X0233947Y0129691D01*
X0234090Y0129764D01*
X0234235Y0129833D01*
X0234382Y0129899D01*
X0234530Y0129961D01*
X0234680Y0130019D01*
X0234831Y0130074D01*
X0234984Y0130125D01*
X0235138Y0130172D01*
X0235293Y0130215D01*
X0235449Y0130254D01*
X0235605Y0130290D01*
X0235763Y0130321D01*
X0235921Y0130349D01*
X0236080Y0130373D01*
X0236240Y0130393D01*
X0236400Y0130409D01*
X0236560Y0130421D01*
X0236721Y0130429D01*
X0236882Y0130433D01*
X0237042Y0130433D01*
X0237203Y0130429D01*
X0237364Y0130421D01*
X0237524Y0130409D01*
X0237684Y0130393D01*
X0237844Y0130373D01*
X0238003Y0130349D01*
X0238161Y0130321D01*
X0238319Y0130290D01*
X0238475Y0130254D01*
X0238631Y0130215D01*
X0238786Y0130172D01*
X0238940Y0130125D01*
X0239093Y0130074D01*
X0239244Y0130019D01*
X0239394Y0129961D01*
X0239542Y0129899D01*
X0239689Y0129833D01*
X0239834Y0129764D01*
X0239977Y0129691D01*
X0240119Y0129615D01*
X0240258Y0129535D01*
X0240396Y0129452D01*
X0240531Y0129365D01*
X0240665Y0129275D01*
X0240796Y0129182D01*
X0240924Y0129086D01*
X0241050Y0128986D01*
X0241174Y0128883D01*
X0241295Y0128778D01*
X0241414Y0128669D01*
X0241530Y0128558D01*
X0241643Y0128443D01*
X0241753Y0128326D01*
X0241860Y0128206D01*
X0241964Y0128084D01*
X0242065Y0127959D01*
X0242163Y0127831D01*
X0242258Y0127701D01*
X0242350Y0127569D01*
X0242438Y0127435D01*
X0242523Y0127298D01*
X0242605Y0127160D01*
X0242683Y0127019D01*
X0242757Y0126877D01*
X0242828Y0126733D01*
X0242896Y0126587D01*
X0242959Y0126439D01*
X0243020Y0126290D01*
X0243076Y0126139D01*
X0243129Y0125987D01*
X0243178Y0125834D01*
X0243223Y0125680D01*
X0243264Y0125525D01*
X0243302Y0125368D01*
X0243335Y0125211D01*
X0243365Y0125053D01*
X0243391Y0124894D01*
X0243412Y0124735D01*
X0243430Y0124575D01*
X0243444Y0124415D01*
X0243454Y0124254D01*
X0243460Y0124094D01*
X0243462Y0123933D01*
X0243460Y0123772D01*
X0243454Y0123612D01*
X0243444Y0123451D01*
X0243430Y0123291D01*
X0243412Y0123131D01*
X0243391Y0122972D01*
X0243365Y0122813D01*
X0243335Y0122655D01*
X0243302Y0122498D01*
X0243264Y0122341D01*
X0243223Y0122186D01*
X0243178Y0122032D01*
X0243129Y0121879D01*
X0243076Y0121727D01*
X0243020Y0121576D01*
X0242959Y0121427D01*
X0242896Y0121279D01*
X0242828Y0121133D01*
X0242757Y0120989D01*
X0242683Y0120847D01*
X0242605Y0120706D01*
X0242523Y0120568D01*
X0242438Y0120431D01*
X0242350Y0120297D01*
X0242258Y0120165D01*
X0242163Y0120035D01*
X0242065Y0119907D01*
X0241964Y0119782D01*
X0241860Y0119660D01*
X0241753Y0119540D01*
X0241643Y0119423D01*
X0241530Y0119308D01*
X0241414Y0119197D01*
X0241295Y0119088D01*
X0241174Y0118983D01*
X0241050Y0118880D01*
X0240924Y0118780D01*
X0240796Y0118684D01*
X0240665Y0118591D01*
X0240531Y0118501D01*
X0240396Y0118414D01*
X0240258Y0118331D01*
X0240119Y0118251D01*
X0239977Y0118175D01*
X0239834Y0118102D01*
X0239689Y0118033D01*
X0239542Y0117967D01*
X0239394Y0117905D01*
X0239244Y0117847D01*
X0239093Y0117792D01*
X0238940Y0117741D01*
X0238786Y0117694D01*
X0238631Y0117651D01*
X0238475Y0117612D01*
X0238319Y0117576D01*
X0238161Y0117545D01*
X0238003Y0117517D01*
X0237844Y0117493D01*
X0237684Y0117473D01*
X0237524Y0117457D01*
X0237364Y0117445D01*
X0237203Y0117437D01*
X0237042Y0117433D01*
X0236882Y0117433D01*
X0236721Y0117437D01*
X0236560Y0117445D01*
X0236400Y0117457D01*
X0236240Y0117473D01*
X0236080Y0117493D01*
X0235921Y0117517D01*
X0235763Y0117545D01*
X0235605Y0117576D01*
X0235449Y0117612D01*
X0235293Y0117651D01*
X0235138Y0117694D01*
X0234984Y0117741D01*
X0234831Y0117792D01*
X0234680Y0117847D01*
X0234530Y0117905D01*
X0234382Y0117967D01*
X0234235Y0118033D01*
X0234090Y0118102D01*
X0233947Y0118175D01*
X0233805Y0118251D01*
X0233666Y0118331D01*
X0233528Y0118414D01*
X0233393Y0118501D01*
X0233259Y0118591D01*
X0233128Y0118684D01*
X0233000Y0118780D01*
X0232874Y0118880D01*
X0232750Y0118983D01*
X0232629Y0119088D01*
X0232510Y0119197D01*
X0232394Y0119308D01*
X0232281Y0119423D01*
X0232171Y0119540D01*
X0232064Y0119660D01*
X0231960Y0119782D01*
X0231859Y0119907D01*
X0231761Y0120035D01*
X0231666Y0120165D01*
X0231574Y0120297D01*
X0231486Y0120431D01*
X0231401Y0120568D01*
X0231319Y0120706D01*
X0231241Y0120847D01*
X0231167Y0120989D01*
X0231096Y0121133D01*
X0231028Y0121279D01*
X0230965Y0121427D01*
X0230904Y0121576D01*
X0230848Y0121727D01*
X0230795Y0121879D01*
X0230746Y0122032D01*
X0230701Y0122186D01*
X0230660Y0122341D01*
X0230622Y0122498D01*
X0230589Y0122655D01*
X0230559Y0122813D01*
X0230533Y0122972D01*
X0230512Y0123131D01*
X0230494Y0123291D01*
X0230480Y0123451D01*
X0230470Y0123612D01*
X0230464Y0123772D01*
X0230462Y0123933D01*
X0150462Y0123933D02*
X0150464Y0124094D01*
X0150470Y0124254D01*
X0150480Y0124415D01*
X0150494Y0124575D01*
X0150512Y0124735D01*
X0150533Y0124894D01*
X0150559Y0125053D01*
X0150589Y0125211D01*
X0150622Y0125368D01*
X0150660Y0125525D01*
X0150701Y0125680D01*
X0150746Y0125834D01*
X0150795Y0125987D01*
X0150848Y0126139D01*
X0150904Y0126290D01*
X0150965Y0126439D01*
X0151028Y0126587D01*
X0151096Y0126733D01*
X0151167Y0126877D01*
X0151241Y0127019D01*
X0151319Y0127160D01*
X0151401Y0127298D01*
X0151486Y0127435D01*
X0151574Y0127569D01*
X0151666Y0127701D01*
X0151761Y0127831D01*
X0151859Y0127959D01*
X0151960Y0128084D01*
X0152064Y0128206D01*
X0152171Y0128326D01*
X0152281Y0128443D01*
X0152394Y0128558D01*
X0152510Y0128669D01*
X0152629Y0128778D01*
X0152750Y0128883D01*
X0152874Y0128986D01*
X0153000Y0129086D01*
X0153128Y0129182D01*
X0153259Y0129275D01*
X0153393Y0129365D01*
X0153528Y0129452D01*
X0153666Y0129535D01*
X0153805Y0129615D01*
X0153947Y0129691D01*
X0154090Y0129764D01*
X0154235Y0129833D01*
X0154382Y0129899D01*
X0154530Y0129961D01*
X0154680Y0130019D01*
X0154831Y0130074D01*
X0154984Y0130125D01*
X0155138Y0130172D01*
X0155293Y0130215D01*
X0155449Y0130254D01*
X0155605Y0130290D01*
X0155763Y0130321D01*
X0155921Y0130349D01*
X0156080Y0130373D01*
X0156240Y0130393D01*
X0156400Y0130409D01*
X0156560Y0130421D01*
X0156721Y0130429D01*
X0156882Y0130433D01*
X0157042Y0130433D01*
X0157203Y0130429D01*
X0157364Y0130421D01*
X0157524Y0130409D01*
X0157684Y0130393D01*
X0157844Y0130373D01*
X0158003Y0130349D01*
X0158161Y0130321D01*
X0158319Y0130290D01*
X0158475Y0130254D01*
X0158631Y0130215D01*
X0158786Y0130172D01*
X0158940Y0130125D01*
X0159093Y0130074D01*
X0159244Y0130019D01*
X0159394Y0129961D01*
X0159542Y0129899D01*
X0159689Y0129833D01*
X0159834Y0129764D01*
X0159977Y0129691D01*
X0160119Y0129615D01*
X0160258Y0129535D01*
X0160396Y0129452D01*
X0160531Y0129365D01*
X0160665Y0129275D01*
X0160796Y0129182D01*
X0160924Y0129086D01*
X0161050Y0128986D01*
X0161174Y0128883D01*
X0161295Y0128778D01*
X0161414Y0128669D01*
X0161530Y0128558D01*
X0161643Y0128443D01*
X0161753Y0128326D01*
X0161860Y0128206D01*
X0161964Y0128084D01*
X0162065Y0127959D01*
X0162163Y0127831D01*
X0162258Y0127701D01*
X0162350Y0127569D01*
X0162438Y0127435D01*
X0162523Y0127298D01*
X0162605Y0127160D01*
X0162683Y0127019D01*
X0162757Y0126877D01*
X0162828Y0126733D01*
X0162896Y0126587D01*
X0162959Y0126439D01*
X0163020Y0126290D01*
X0163076Y0126139D01*
X0163129Y0125987D01*
X0163178Y0125834D01*
X0163223Y0125680D01*
X0163264Y0125525D01*
X0163302Y0125368D01*
X0163335Y0125211D01*
X0163365Y0125053D01*
X0163391Y0124894D01*
X0163412Y0124735D01*
X0163430Y0124575D01*
X0163444Y0124415D01*
X0163454Y0124254D01*
X0163460Y0124094D01*
X0163462Y0123933D01*
X0163460Y0123772D01*
X0163454Y0123612D01*
X0163444Y0123451D01*
X0163430Y0123291D01*
X0163412Y0123131D01*
X0163391Y0122972D01*
X0163365Y0122813D01*
X0163335Y0122655D01*
X0163302Y0122498D01*
X0163264Y0122341D01*
X0163223Y0122186D01*
X0163178Y0122032D01*
X0163129Y0121879D01*
X0163076Y0121727D01*
X0163020Y0121576D01*
X0162959Y0121427D01*
X0162896Y0121279D01*
X0162828Y0121133D01*
X0162757Y0120989D01*
X0162683Y0120847D01*
X0162605Y0120706D01*
X0162523Y0120568D01*
X0162438Y0120431D01*
X0162350Y0120297D01*
X0162258Y0120165D01*
X0162163Y0120035D01*
X0162065Y0119907D01*
X0161964Y0119782D01*
X0161860Y0119660D01*
X0161753Y0119540D01*
X0161643Y0119423D01*
X0161530Y0119308D01*
X0161414Y0119197D01*
X0161295Y0119088D01*
X0161174Y0118983D01*
X0161050Y0118880D01*
X0160924Y0118780D01*
X0160796Y0118684D01*
X0160665Y0118591D01*
X0160531Y0118501D01*
X0160396Y0118414D01*
X0160258Y0118331D01*
X0160119Y0118251D01*
X0159977Y0118175D01*
X0159834Y0118102D01*
X0159689Y0118033D01*
X0159542Y0117967D01*
X0159394Y0117905D01*
X0159244Y0117847D01*
X0159093Y0117792D01*
X0158940Y0117741D01*
X0158786Y0117694D01*
X0158631Y0117651D01*
X0158475Y0117612D01*
X0158319Y0117576D01*
X0158161Y0117545D01*
X0158003Y0117517D01*
X0157844Y0117493D01*
X0157684Y0117473D01*
X0157524Y0117457D01*
X0157364Y0117445D01*
X0157203Y0117437D01*
X0157042Y0117433D01*
X0156882Y0117433D01*
X0156721Y0117437D01*
X0156560Y0117445D01*
X0156400Y0117457D01*
X0156240Y0117473D01*
X0156080Y0117493D01*
X0155921Y0117517D01*
X0155763Y0117545D01*
X0155605Y0117576D01*
X0155449Y0117612D01*
X0155293Y0117651D01*
X0155138Y0117694D01*
X0154984Y0117741D01*
X0154831Y0117792D01*
X0154680Y0117847D01*
X0154530Y0117905D01*
X0154382Y0117967D01*
X0154235Y0118033D01*
X0154090Y0118102D01*
X0153947Y0118175D01*
X0153805Y0118251D01*
X0153666Y0118331D01*
X0153528Y0118414D01*
X0153393Y0118501D01*
X0153259Y0118591D01*
X0153128Y0118684D01*
X0153000Y0118780D01*
X0152874Y0118880D01*
X0152750Y0118983D01*
X0152629Y0119088D01*
X0152510Y0119197D01*
X0152394Y0119308D01*
X0152281Y0119423D01*
X0152171Y0119540D01*
X0152064Y0119660D01*
X0151960Y0119782D01*
X0151859Y0119907D01*
X0151761Y0120035D01*
X0151666Y0120165D01*
X0151574Y0120297D01*
X0151486Y0120431D01*
X0151401Y0120568D01*
X0151319Y0120706D01*
X0151241Y0120847D01*
X0151167Y0120989D01*
X0151096Y0121133D01*
X0151028Y0121279D01*
X0150965Y0121427D01*
X0150904Y0121576D01*
X0150848Y0121727D01*
X0150795Y0121879D01*
X0150746Y0122032D01*
X0150701Y0122186D01*
X0150660Y0122341D01*
X0150622Y0122498D01*
X0150589Y0122655D01*
X0150559Y0122813D01*
X0150533Y0122972D01*
X0150512Y0123131D01*
X0150494Y0123291D01*
X0150480Y0123451D01*
X0150470Y0123612D01*
X0150464Y0123772D01*
X0150462Y0123933D01*
X0128462Y0123933D02*
X0128464Y0124094D01*
X0128470Y0124254D01*
X0128480Y0124415D01*
X0128494Y0124575D01*
X0128512Y0124735D01*
X0128533Y0124894D01*
X0128559Y0125053D01*
X0128589Y0125211D01*
X0128622Y0125368D01*
X0128660Y0125525D01*
X0128701Y0125680D01*
X0128746Y0125834D01*
X0128795Y0125987D01*
X0128848Y0126139D01*
X0128904Y0126290D01*
X0128965Y0126439D01*
X0129028Y0126587D01*
X0129096Y0126733D01*
X0129167Y0126877D01*
X0129241Y0127019D01*
X0129319Y0127160D01*
X0129401Y0127298D01*
X0129486Y0127435D01*
X0129574Y0127569D01*
X0129666Y0127701D01*
X0129761Y0127831D01*
X0129859Y0127959D01*
X0129960Y0128084D01*
X0130064Y0128206D01*
X0130171Y0128326D01*
X0130281Y0128443D01*
X0130394Y0128558D01*
X0130510Y0128669D01*
X0130629Y0128778D01*
X0130750Y0128883D01*
X0130874Y0128986D01*
X0131000Y0129086D01*
X0131128Y0129182D01*
X0131259Y0129275D01*
X0131393Y0129365D01*
X0131528Y0129452D01*
X0131666Y0129535D01*
X0131805Y0129615D01*
X0131947Y0129691D01*
X0132090Y0129764D01*
X0132235Y0129833D01*
X0132382Y0129899D01*
X0132530Y0129961D01*
X0132680Y0130019D01*
X0132831Y0130074D01*
X0132984Y0130125D01*
X0133138Y0130172D01*
X0133293Y0130215D01*
X0133449Y0130254D01*
X0133605Y0130290D01*
X0133763Y0130321D01*
X0133921Y0130349D01*
X0134080Y0130373D01*
X0134240Y0130393D01*
X0134400Y0130409D01*
X0134560Y0130421D01*
X0134721Y0130429D01*
X0134882Y0130433D01*
X0135042Y0130433D01*
X0135203Y0130429D01*
X0135364Y0130421D01*
X0135524Y0130409D01*
X0135684Y0130393D01*
X0135844Y0130373D01*
X0136003Y0130349D01*
X0136161Y0130321D01*
X0136319Y0130290D01*
X0136475Y0130254D01*
X0136631Y0130215D01*
X0136786Y0130172D01*
X0136940Y0130125D01*
X0137093Y0130074D01*
X0137244Y0130019D01*
X0137394Y0129961D01*
X0137542Y0129899D01*
X0137689Y0129833D01*
X0137834Y0129764D01*
X0137977Y0129691D01*
X0138119Y0129615D01*
X0138258Y0129535D01*
X0138396Y0129452D01*
X0138531Y0129365D01*
X0138665Y0129275D01*
X0138796Y0129182D01*
X0138924Y0129086D01*
X0139050Y0128986D01*
X0139174Y0128883D01*
X0139295Y0128778D01*
X0139414Y0128669D01*
X0139530Y0128558D01*
X0139643Y0128443D01*
X0139753Y0128326D01*
X0139860Y0128206D01*
X0139964Y0128084D01*
X0140065Y0127959D01*
X0140163Y0127831D01*
X0140258Y0127701D01*
X0140350Y0127569D01*
X0140438Y0127435D01*
X0140523Y0127298D01*
X0140605Y0127160D01*
X0140683Y0127019D01*
X0140757Y0126877D01*
X0140828Y0126733D01*
X0140896Y0126587D01*
X0140959Y0126439D01*
X0141020Y0126290D01*
X0141076Y0126139D01*
X0141129Y0125987D01*
X0141178Y0125834D01*
X0141223Y0125680D01*
X0141264Y0125525D01*
X0141302Y0125368D01*
X0141335Y0125211D01*
X0141365Y0125053D01*
X0141391Y0124894D01*
X0141412Y0124735D01*
X0141430Y0124575D01*
X0141444Y0124415D01*
X0141454Y0124254D01*
X0141460Y0124094D01*
X0141462Y0123933D01*
X0141460Y0123772D01*
X0141454Y0123612D01*
X0141444Y0123451D01*
X0141430Y0123291D01*
X0141412Y0123131D01*
X0141391Y0122972D01*
X0141365Y0122813D01*
X0141335Y0122655D01*
X0141302Y0122498D01*
X0141264Y0122341D01*
X0141223Y0122186D01*
X0141178Y0122032D01*
X0141129Y0121879D01*
X0141076Y0121727D01*
X0141020Y0121576D01*
X0140959Y0121427D01*
X0140896Y0121279D01*
X0140828Y0121133D01*
X0140757Y0120989D01*
X0140683Y0120847D01*
X0140605Y0120706D01*
X0140523Y0120568D01*
X0140438Y0120431D01*
X0140350Y0120297D01*
X0140258Y0120165D01*
X0140163Y0120035D01*
X0140065Y0119907D01*
X0139964Y0119782D01*
X0139860Y0119660D01*
X0139753Y0119540D01*
X0139643Y0119423D01*
X0139530Y0119308D01*
X0139414Y0119197D01*
X0139295Y0119088D01*
X0139174Y0118983D01*
X0139050Y0118880D01*
X0138924Y0118780D01*
X0138796Y0118684D01*
X0138665Y0118591D01*
X0138531Y0118501D01*
X0138396Y0118414D01*
X0138258Y0118331D01*
X0138119Y0118251D01*
X0137977Y0118175D01*
X0137834Y0118102D01*
X0137689Y0118033D01*
X0137542Y0117967D01*
X0137394Y0117905D01*
X0137244Y0117847D01*
X0137093Y0117792D01*
X0136940Y0117741D01*
X0136786Y0117694D01*
X0136631Y0117651D01*
X0136475Y0117612D01*
X0136319Y0117576D01*
X0136161Y0117545D01*
X0136003Y0117517D01*
X0135844Y0117493D01*
X0135684Y0117473D01*
X0135524Y0117457D01*
X0135364Y0117445D01*
X0135203Y0117437D01*
X0135042Y0117433D01*
X0134882Y0117433D01*
X0134721Y0117437D01*
X0134560Y0117445D01*
X0134400Y0117457D01*
X0134240Y0117473D01*
X0134080Y0117493D01*
X0133921Y0117517D01*
X0133763Y0117545D01*
X0133605Y0117576D01*
X0133449Y0117612D01*
X0133293Y0117651D01*
X0133138Y0117694D01*
X0132984Y0117741D01*
X0132831Y0117792D01*
X0132680Y0117847D01*
X0132530Y0117905D01*
X0132382Y0117967D01*
X0132235Y0118033D01*
X0132090Y0118102D01*
X0131947Y0118175D01*
X0131805Y0118251D01*
X0131666Y0118331D01*
X0131528Y0118414D01*
X0131393Y0118501D01*
X0131259Y0118591D01*
X0131128Y0118684D01*
X0131000Y0118780D01*
X0130874Y0118880D01*
X0130750Y0118983D01*
X0130629Y0119088D01*
X0130510Y0119197D01*
X0130394Y0119308D01*
X0130281Y0119423D01*
X0130171Y0119540D01*
X0130064Y0119660D01*
X0129960Y0119782D01*
X0129859Y0119907D01*
X0129761Y0120035D01*
X0129666Y0120165D01*
X0129574Y0120297D01*
X0129486Y0120431D01*
X0129401Y0120568D01*
X0129319Y0120706D01*
X0129241Y0120847D01*
X0129167Y0120989D01*
X0129096Y0121133D01*
X0129028Y0121279D01*
X0128965Y0121427D01*
X0128904Y0121576D01*
X0128848Y0121727D01*
X0128795Y0121879D01*
X0128746Y0122032D01*
X0128701Y0122186D01*
X0128660Y0122341D01*
X0128622Y0122498D01*
X0128589Y0122655D01*
X0128559Y0122813D01*
X0128533Y0122972D01*
X0128512Y0123131D01*
X0128494Y0123291D01*
X0128480Y0123451D01*
X0128470Y0123612D01*
X0128464Y0123772D01*
X0128462Y0123933D01*
X0048462Y0123933D02*
X0048464Y0124094D01*
X0048470Y0124254D01*
X0048480Y0124415D01*
X0048494Y0124575D01*
X0048512Y0124735D01*
X0048533Y0124894D01*
X0048559Y0125053D01*
X0048589Y0125211D01*
X0048622Y0125368D01*
X0048660Y0125525D01*
X0048701Y0125680D01*
X0048746Y0125834D01*
X0048795Y0125987D01*
X0048848Y0126139D01*
X0048904Y0126290D01*
X0048965Y0126439D01*
X0049028Y0126587D01*
X0049096Y0126733D01*
X0049167Y0126877D01*
X0049241Y0127019D01*
X0049319Y0127160D01*
X0049401Y0127298D01*
X0049486Y0127435D01*
X0049574Y0127569D01*
X0049666Y0127701D01*
X0049761Y0127831D01*
X0049859Y0127959D01*
X0049960Y0128084D01*
X0050064Y0128206D01*
X0050171Y0128326D01*
X0050281Y0128443D01*
X0050394Y0128558D01*
X0050510Y0128669D01*
X0050629Y0128778D01*
X0050750Y0128883D01*
X0050874Y0128986D01*
X0051000Y0129086D01*
X0051128Y0129182D01*
X0051259Y0129275D01*
X0051393Y0129365D01*
X0051528Y0129452D01*
X0051666Y0129535D01*
X0051805Y0129615D01*
X0051947Y0129691D01*
X0052090Y0129764D01*
X0052235Y0129833D01*
X0052382Y0129899D01*
X0052530Y0129961D01*
X0052680Y0130019D01*
X0052831Y0130074D01*
X0052984Y0130125D01*
X0053138Y0130172D01*
X0053293Y0130215D01*
X0053449Y0130254D01*
X0053605Y0130290D01*
X0053763Y0130321D01*
X0053921Y0130349D01*
X0054080Y0130373D01*
X0054240Y0130393D01*
X0054400Y0130409D01*
X0054560Y0130421D01*
X0054721Y0130429D01*
X0054882Y0130433D01*
X0055042Y0130433D01*
X0055203Y0130429D01*
X0055364Y0130421D01*
X0055524Y0130409D01*
X0055684Y0130393D01*
X0055844Y0130373D01*
X0056003Y0130349D01*
X0056161Y0130321D01*
X0056319Y0130290D01*
X0056475Y0130254D01*
X0056631Y0130215D01*
X0056786Y0130172D01*
X0056940Y0130125D01*
X0057093Y0130074D01*
X0057244Y0130019D01*
X0057394Y0129961D01*
X0057542Y0129899D01*
X0057689Y0129833D01*
X0057834Y0129764D01*
X0057977Y0129691D01*
X0058119Y0129615D01*
X0058258Y0129535D01*
X0058396Y0129452D01*
X0058531Y0129365D01*
X0058665Y0129275D01*
X0058796Y0129182D01*
X0058924Y0129086D01*
X0059050Y0128986D01*
X0059174Y0128883D01*
X0059295Y0128778D01*
X0059414Y0128669D01*
X0059530Y0128558D01*
X0059643Y0128443D01*
X0059753Y0128326D01*
X0059860Y0128206D01*
X0059964Y0128084D01*
X0060065Y0127959D01*
X0060163Y0127831D01*
X0060258Y0127701D01*
X0060350Y0127569D01*
X0060438Y0127435D01*
X0060523Y0127298D01*
X0060605Y0127160D01*
X0060683Y0127019D01*
X0060757Y0126877D01*
X0060828Y0126733D01*
X0060896Y0126587D01*
X0060959Y0126439D01*
X0061020Y0126290D01*
X0061076Y0126139D01*
X0061129Y0125987D01*
X0061178Y0125834D01*
X0061223Y0125680D01*
X0061264Y0125525D01*
X0061302Y0125368D01*
X0061335Y0125211D01*
X0061365Y0125053D01*
X0061391Y0124894D01*
X0061412Y0124735D01*
X0061430Y0124575D01*
X0061444Y0124415D01*
X0061454Y0124254D01*
X0061460Y0124094D01*
X0061462Y0123933D01*
X0061460Y0123772D01*
X0061454Y0123612D01*
X0061444Y0123451D01*
X0061430Y0123291D01*
X0061412Y0123131D01*
X0061391Y0122972D01*
X0061365Y0122813D01*
X0061335Y0122655D01*
X0061302Y0122498D01*
X0061264Y0122341D01*
X0061223Y0122186D01*
X0061178Y0122032D01*
X0061129Y0121879D01*
X0061076Y0121727D01*
X0061020Y0121576D01*
X0060959Y0121427D01*
X0060896Y0121279D01*
X0060828Y0121133D01*
X0060757Y0120989D01*
X0060683Y0120847D01*
X0060605Y0120706D01*
X0060523Y0120568D01*
X0060438Y0120431D01*
X0060350Y0120297D01*
X0060258Y0120165D01*
X0060163Y0120035D01*
X0060065Y0119907D01*
X0059964Y0119782D01*
X0059860Y0119660D01*
X0059753Y0119540D01*
X0059643Y0119423D01*
X0059530Y0119308D01*
X0059414Y0119197D01*
X0059295Y0119088D01*
X0059174Y0118983D01*
X0059050Y0118880D01*
X0058924Y0118780D01*
X0058796Y0118684D01*
X0058665Y0118591D01*
X0058531Y0118501D01*
X0058396Y0118414D01*
X0058258Y0118331D01*
X0058119Y0118251D01*
X0057977Y0118175D01*
X0057834Y0118102D01*
X0057689Y0118033D01*
X0057542Y0117967D01*
X0057394Y0117905D01*
X0057244Y0117847D01*
X0057093Y0117792D01*
X0056940Y0117741D01*
X0056786Y0117694D01*
X0056631Y0117651D01*
X0056475Y0117612D01*
X0056319Y0117576D01*
X0056161Y0117545D01*
X0056003Y0117517D01*
X0055844Y0117493D01*
X0055684Y0117473D01*
X0055524Y0117457D01*
X0055364Y0117445D01*
X0055203Y0117437D01*
X0055042Y0117433D01*
X0054882Y0117433D01*
X0054721Y0117437D01*
X0054560Y0117445D01*
X0054400Y0117457D01*
X0054240Y0117473D01*
X0054080Y0117493D01*
X0053921Y0117517D01*
X0053763Y0117545D01*
X0053605Y0117576D01*
X0053449Y0117612D01*
X0053293Y0117651D01*
X0053138Y0117694D01*
X0052984Y0117741D01*
X0052831Y0117792D01*
X0052680Y0117847D01*
X0052530Y0117905D01*
X0052382Y0117967D01*
X0052235Y0118033D01*
X0052090Y0118102D01*
X0051947Y0118175D01*
X0051805Y0118251D01*
X0051666Y0118331D01*
X0051528Y0118414D01*
X0051393Y0118501D01*
X0051259Y0118591D01*
X0051128Y0118684D01*
X0051000Y0118780D01*
X0050874Y0118880D01*
X0050750Y0118983D01*
X0050629Y0119088D01*
X0050510Y0119197D01*
X0050394Y0119308D01*
X0050281Y0119423D01*
X0050171Y0119540D01*
X0050064Y0119660D01*
X0049960Y0119782D01*
X0049859Y0119907D01*
X0049761Y0120035D01*
X0049666Y0120165D01*
X0049574Y0120297D01*
X0049486Y0120431D01*
X0049401Y0120568D01*
X0049319Y0120706D01*
X0049241Y0120847D01*
X0049167Y0120989D01*
X0049096Y0121133D01*
X0049028Y0121279D01*
X0048965Y0121427D01*
X0048904Y0121576D01*
X0048848Y0121727D01*
X0048795Y0121879D01*
X0048746Y0122032D01*
X0048701Y0122186D01*
X0048660Y0122341D01*
X0048622Y0122498D01*
X0048589Y0122655D01*
X0048559Y0122813D01*
X0048533Y0122972D01*
X0048512Y0123131D01*
X0048494Y0123291D01*
X0048480Y0123451D01*
X0048470Y0123612D01*
X0048464Y0123772D01*
X0048462Y0123933D01*
M02*
