G75*
%MOIN*%
%OFA0B0*%
%FSLAX25Y25*%
%IPPOS*%
%LPD*%
%AMOC8*
5,1,8,0,0,1.08239X$1,22.5*
%
%ADD10C,0.03300*%
%ADD11R,0.08674X0.05524*%
%ADD12R,0.06115X0.03162*%
%ADD13C,0.08200*%
%ADD14R,0.04737X0.05131*%
%ADD15R,0.03300X0.05800*%
%ADD16C,0.00500*%
%ADD17R,0.03162X0.05524*%
%ADD18R,0.05131X0.04737*%
%ADD19C,0.04808*%
%ADD20C,0.01990*%
%ADD21C,0.13800*%
%ADD22C,0.04737*%
%ADD23C,0.05000*%
%ADD24C,0.06706*%
D10*
X0141962Y0036933D03*
X0243962Y0036933D03*
X0252462Y0130433D03*
X0243962Y0138933D03*
X0150462Y0130433D03*
X0141962Y0138933D03*
X0048462Y0130433D03*
X0048462Y0232433D03*
X0141962Y0240933D03*
X0150462Y0232433D03*
X0243962Y0240933D03*
X0252462Y0232433D03*
X0345962Y0240933D03*
X0252462Y0334433D03*
X0150462Y0334433D03*
X0048462Y0334433D03*
X0345962Y0138933D03*
X0345962Y0036933D03*
D11*
X0343430Y0072909D03*
X0343430Y0094957D03*
X0254493Y0094957D03*
X0241430Y0094957D03*
X0241430Y0072909D03*
X0254493Y0072909D03*
X0152493Y0072909D03*
X0139430Y0072909D03*
X0139430Y0094957D03*
X0152493Y0094957D03*
X0152493Y0174909D03*
X0139430Y0174909D03*
X0139430Y0196957D03*
X0152493Y0196957D03*
X0152493Y0276909D03*
X0139430Y0276909D03*
X0139430Y0298957D03*
X0152493Y0298957D03*
X0241430Y0298957D03*
X0254493Y0298957D03*
X0254493Y0276909D03*
X0241430Y0276909D03*
X0241430Y0196957D03*
X0254493Y0196957D03*
X0254493Y0174909D03*
X0241430Y0174909D03*
X0343430Y0174909D03*
X0343430Y0196957D03*
X0343430Y0276909D03*
X0343430Y0298957D03*
X0050493Y0298957D03*
X0050493Y0276909D03*
X0050493Y0196957D03*
X0050493Y0174909D03*
X0050493Y0094957D03*
X0050493Y0072909D03*
D12*
X0064962Y0078028D03*
X0064962Y0081965D03*
X0064962Y0085902D03*
X0064962Y0089839D03*
X0124962Y0089839D03*
X0124962Y0085902D03*
X0124962Y0081965D03*
X0124962Y0078028D03*
X0166962Y0078028D03*
X0166962Y0081965D03*
X0166962Y0085902D03*
X0166962Y0089839D03*
X0226962Y0089839D03*
X0226962Y0085902D03*
X0226962Y0081965D03*
X0226962Y0078028D03*
X0268962Y0078028D03*
X0268962Y0081965D03*
X0268962Y0085902D03*
X0268962Y0089839D03*
X0328962Y0089839D03*
X0328962Y0085902D03*
X0328962Y0081965D03*
X0328962Y0078028D03*
X0328962Y0180028D03*
X0328962Y0183965D03*
X0328962Y0187902D03*
X0328962Y0191839D03*
X0268962Y0191839D03*
X0268962Y0187902D03*
X0268962Y0183965D03*
X0268962Y0180028D03*
X0226962Y0180028D03*
X0226962Y0183965D03*
X0226962Y0187902D03*
X0226962Y0191839D03*
X0166962Y0191839D03*
X0166962Y0187902D03*
X0166962Y0183965D03*
X0166962Y0180028D03*
X0124962Y0180028D03*
X0124962Y0183965D03*
X0124962Y0187902D03*
X0124962Y0191839D03*
X0064962Y0191839D03*
X0064962Y0187902D03*
X0064962Y0183965D03*
X0064962Y0180028D03*
X0064962Y0282028D03*
X0064962Y0285965D03*
X0064962Y0289902D03*
X0064962Y0293839D03*
X0124962Y0293839D03*
X0124962Y0289902D03*
X0124962Y0285965D03*
X0124962Y0282028D03*
X0166962Y0282028D03*
X0166962Y0285965D03*
X0166962Y0289902D03*
X0166962Y0293839D03*
X0226962Y0293839D03*
X0226962Y0289902D03*
X0226962Y0285965D03*
X0226962Y0282028D03*
X0268962Y0282028D03*
X0268962Y0285965D03*
X0268962Y0289902D03*
X0268962Y0293839D03*
X0328962Y0293839D03*
X0328962Y0289902D03*
X0328962Y0285965D03*
X0328962Y0282028D03*
D13*
X0328962Y0242933D03*
X0318962Y0242933D03*
X0308962Y0242933D03*
X0298962Y0242933D03*
X0288962Y0242933D03*
X0278962Y0242933D03*
X0268962Y0242933D03*
X0273962Y0230933D03*
X0283962Y0230933D03*
X0293962Y0230933D03*
X0303962Y0230933D03*
X0313962Y0230933D03*
X0323962Y0230933D03*
X0226962Y0242933D03*
X0216962Y0242933D03*
X0206962Y0242933D03*
X0196962Y0242933D03*
X0186962Y0242933D03*
X0176962Y0242933D03*
X0166962Y0242933D03*
X0171962Y0230933D03*
X0181962Y0230933D03*
X0191962Y0230933D03*
X0201962Y0230933D03*
X0211962Y0230933D03*
X0221962Y0230933D03*
X0226962Y0140933D03*
X0216962Y0140933D03*
X0206962Y0140933D03*
X0196962Y0140933D03*
X0186962Y0140933D03*
X0176962Y0140933D03*
X0166962Y0140933D03*
X0171962Y0128933D03*
X0181962Y0128933D03*
X0191962Y0128933D03*
X0201962Y0128933D03*
X0211962Y0128933D03*
X0221962Y0128933D03*
X0268962Y0140933D03*
X0278962Y0140933D03*
X0288962Y0140933D03*
X0298962Y0140933D03*
X0308962Y0140933D03*
X0318962Y0140933D03*
X0328962Y0140933D03*
X0323962Y0128933D03*
X0313962Y0128933D03*
X0303962Y0128933D03*
X0293962Y0128933D03*
X0283962Y0128933D03*
X0273962Y0128933D03*
X0278962Y0038933D03*
X0288962Y0038933D03*
X0298962Y0038933D03*
X0308962Y0038933D03*
X0318962Y0038933D03*
X0328962Y0038933D03*
X0268962Y0038933D03*
X0226962Y0038933D03*
X0216962Y0038933D03*
X0206962Y0038933D03*
X0196962Y0038933D03*
X0186962Y0038933D03*
X0176962Y0038933D03*
X0166962Y0038933D03*
X0124962Y0038933D03*
X0114962Y0038933D03*
X0104962Y0038933D03*
X0094962Y0038933D03*
X0084962Y0038933D03*
X0074962Y0038933D03*
X0064962Y0038933D03*
X0069962Y0128933D03*
X0079962Y0128933D03*
X0089962Y0128933D03*
X0099962Y0128933D03*
X0109962Y0128933D03*
X0119962Y0128933D03*
X0124962Y0140933D03*
X0114962Y0140933D03*
X0104962Y0140933D03*
X0094962Y0140933D03*
X0084962Y0140933D03*
X0074962Y0140933D03*
X0064962Y0140933D03*
X0069962Y0230933D03*
X0079962Y0230933D03*
X0089962Y0230933D03*
X0099962Y0230933D03*
X0109962Y0230933D03*
X0119962Y0230933D03*
X0124962Y0242933D03*
X0114962Y0242933D03*
X0104962Y0242933D03*
X0094962Y0242933D03*
X0084962Y0242933D03*
X0074962Y0242933D03*
X0064962Y0242933D03*
X0069962Y0332933D03*
X0079962Y0332933D03*
X0089962Y0332933D03*
X0099962Y0332933D03*
X0109962Y0332933D03*
X0119962Y0332933D03*
X0171962Y0332933D03*
X0181962Y0332933D03*
X0191962Y0332933D03*
X0201962Y0332933D03*
X0211962Y0332933D03*
X0221962Y0332933D03*
X0273962Y0332933D03*
X0283962Y0332933D03*
X0293962Y0332933D03*
X0303962Y0332933D03*
X0313962Y0332933D03*
X0323962Y0332933D03*
D14*
X0049962Y0055587D03*
X0049962Y0062280D03*
X0069962Y0062280D03*
X0069962Y0055587D03*
X0114962Y0080587D03*
X0114962Y0087280D03*
X0151962Y0062280D03*
X0151962Y0055587D03*
X0171962Y0055587D03*
X0171962Y0062280D03*
X0216962Y0080587D03*
X0216962Y0087280D03*
X0253962Y0062280D03*
X0253962Y0055587D03*
X0273962Y0055587D03*
X0273962Y0062280D03*
X0318962Y0080587D03*
X0318962Y0087280D03*
X0273962Y0157587D03*
X0273962Y0164280D03*
X0253962Y0164280D03*
X0253962Y0157587D03*
X0216962Y0182587D03*
X0216962Y0189280D03*
X0171962Y0164280D03*
X0171962Y0157587D03*
X0151962Y0157587D03*
X0151962Y0164280D03*
X0114962Y0182587D03*
X0114962Y0189280D03*
X0069962Y0164280D03*
X0069962Y0157587D03*
X0049962Y0157587D03*
X0049962Y0164280D03*
X0049962Y0259587D03*
X0049962Y0266280D03*
X0069962Y0266280D03*
X0069962Y0259587D03*
X0114962Y0284587D03*
X0114962Y0291280D03*
X0151962Y0266280D03*
X0151962Y0259587D03*
X0171962Y0259587D03*
X0171962Y0266280D03*
X0216962Y0284587D03*
X0216962Y0291280D03*
X0253962Y0266280D03*
X0253962Y0259587D03*
X0273962Y0259587D03*
X0273962Y0266280D03*
X0318962Y0284587D03*
X0318962Y0291280D03*
X0318962Y0189280D03*
X0318962Y0182587D03*
D15*
X0267962Y0160933D03*
X0263962Y0160933D03*
X0259962Y0160933D03*
X0260562Y0205933D03*
X0257362Y0205933D03*
X0259962Y0262933D03*
X0263962Y0262933D03*
X0267962Y0262933D03*
X0260562Y0307933D03*
X0257362Y0307933D03*
X0165962Y0262933D03*
X0161962Y0262933D03*
X0157962Y0262933D03*
X0158562Y0307933D03*
X0155362Y0307933D03*
X0063962Y0262933D03*
X0059962Y0262933D03*
X0055962Y0262933D03*
X0056562Y0307933D03*
X0053362Y0307933D03*
X0053362Y0205933D03*
X0056562Y0205933D03*
X0055962Y0160933D03*
X0059962Y0160933D03*
X0063962Y0160933D03*
X0056562Y0103933D03*
X0053362Y0103933D03*
X0055962Y0058933D03*
X0059962Y0058933D03*
X0063962Y0058933D03*
X0157962Y0058933D03*
X0161962Y0058933D03*
X0165962Y0058933D03*
X0158562Y0103933D03*
X0155362Y0103933D03*
X0157962Y0160933D03*
X0161962Y0160933D03*
X0165962Y0160933D03*
X0158562Y0205933D03*
X0155362Y0205933D03*
X0257362Y0103933D03*
X0260562Y0103933D03*
X0259962Y0058933D03*
X0263962Y0058933D03*
X0267962Y0058933D03*
D16*
X0266712Y0058859D02*
X0261212Y0058859D01*
X0261212Y0058433D02*
X0261212Y0059433D01*
X0266712Y0059433D01*
X0266712Y0058433D01*
X0261212Y0058433D01*
X0261212Y0059357D02*
X0266712Y0059357D01*
X0164712Y0059357D02*
X0159212Y0059357D01*
X0159212Y0059433D02*
X0164712Y0059433D01*
X0164712Y0058433D01*
X0159212Y0058433D01*
X0159212Y0059433D01*
X0159212Y0058859D02*
X0164712Y0058859D01*
X0062712Y0058859D02*
X0057212Y0058859D01*
X0057212Y0058433D02*
X0057212Y0059433D01*
X0062712Y0059433D01*
X0062712Y0058433D01*
X0057212Y0058433D01*
X0057212Y0059357D02*
X0062712Y0059357D01*
X0062712Y0160433D02*
X0057212Y0160433D01*
X0057212Y0161433D01*
X0062712Y0161433D01*
X0062712Y0160433D01*
X0062712Y0160555D02*
X0057212Y0160555D01*
X0057212Y0161053D02*
X0062712Y0161053D01*
X0159212Y0161053D02*
X0164712Y0161053D01*
X0164712Y0161433D02*
X0164712Y0160433D01*
X0159212Y0160433D01*
X0159212Y0161433D01*
X0164712Y0161433D01*
X0164712Y0160555D02*
X0159212Y0160555D01*
X0261212Y0160555D02*
X0266712Y0160555D01*
X0266712Y0160433D02*
X0266712Y0161433D01*
X0261212Y0161433D01*
X0261212Y0160433D01*
X0266712Y0160433D01*
X0266712Y0161053D02*
X0261212Y0161053D01*
X0261212Y0262433D02*
X0261212Y0263433D01*
X0266712Y0263433D01*
X0266712Y0262433D01*
X0261212Y0262433D01*
X0261212Y0262750D02*
X0266712Y0262750D01*
X0266712Y0263248D02*
X0261212Y0263248D01*
X0164712Y0263248D02*
X0159212Y0263248D01*
X0159212Y0263433D02*
X0164712Y0263433D01*
X0164712Y0262433D01*
X0159212Y0262433D01*
X0159212Y0263433D01*
X0159212Y0262750D02*
X0164712Y0262750D01*
X0062712Y0262750D02*
X0057212Y0262750D01*
X0057212Y0262433D02*
X0057212Y0263433D01*
X0062712Y0263433D01*
X0062712Y0262433D01*
X0057212Y0262433D01*
X0057212Y0263248D02*
X0062712Y0263248D01*
D17*
X0077462Y0276909D03*
X0082462Y0276909D03*
X0087462Y0276909D03*
X0092462Y0276909D03*
X0097462Y0276909D03*
X0102462Y0276909D03*
X0107462Y0276909D03*
X0107462Y0298957D03*
X0102462Y0298957D03*
X0097462Y0298957D03*
X0092462Y0298957D03*
X0087462Y0298957D03*
X0082462Y0298957D03*
X0077462Y0298957D03*
X0179462Y0298957D03*
X0184462Y0298957D03*
X0189462Y0298957D03*
X0194462Y0298957D03*
X0199462Y0298957D03*
X0204462Y0298957D03*
X0209462Y0298957D03*
X0209462Y0276909D03*
X0204462Y0276909D03*
X0199462Y0276909D03*
X0194462Y0276909D03*
X0189462Y0276909D03*
X0184462Y0276909D03*
X0179462Y0276909D03*
X0179462Y0196957D03*
X0184462Y0196957D03*
X0189462Y0196957D03*
X0194462Y0196957D03*
X0199462Y0196957D03*
X0204462Y0196957D03*
X0209462Y0196957D03*
X0209462Y0174909D03*
X0204462Y0174909D03*
X0199462Y0174909D03*
X0194462Y0174909D03*
X0189462Y0174909D03*
X0184462Y0174909D03*
X0179462Y0174909D03*
X0107462Y0174909D03*
X0102462Y0174909D03*
X0097462Y0174909D03*
X0092462Y0174909D03*
X0087462Y0174909D03*
X0082462Y0174909D03*
X0077462Y0174909D03*
X0077462Y0196957D03*
X0082462Y0196957D03*
X0087462Y0196957D03*
X0092462Y0196957D03*
X0097462Y0196957D03*
X0102462Y0196957D03*
X0107462Y0196957D03*
X0107462Y0094957D03*
X0102462Y0094957D03*
X0097462Y0094957D03*
X0092462Y0094957D03*
X0087462Y0094957D03*
X0082462Y0094957D03*
X0077462Y0094957D03*
X0077462Y0072909D03*
X0082462Y0072909D03*
X0087462Y0072909D03*
X0092462Y0072909D03*
X0097462Y0072909D03*
X0102462Y0072909D03*
X0107462Y0072909D03*
X0179462Y0072909D03*
X0184462Y0072909D03*
X0189462Y0072909D03*
X0194462Y0072909D03*
X0199462Y0072909D03*
X0204462Y0072909D03*
X0209462Y0072909D03*
X0209462Y0094957D03*
X0204462Y0094957D03*
X0199462Y0094957D03*
X0194462Y0094957D03*
X0189462Y0094957D03*
X0184462Y0094957D03*
X0179462Y0094957D03*
X0281462Y0094957D03*
X0286462Y0094957D03*
X0291462Y0094957D03*
X0296462Y0094957D03*
X0301462Y0094957D03*
X0306462Y0094957D03*
X0311462Y0094957D03*
X0311462Y0072909D03*
X0306462Y0072909D03*
X0301462Y0072909D03*
X0296462Y0072909D03*
X0291462Y0072909D03*
X0286462Y0072909D03*
X0281462Y0072909D03*
X0281462Y0174909D03*
X0286462Y0174909D03*
X0291462Y0174909D03*
X0296462Y0174909D03*
X0301462Y0174909D03*
X0306462Y0174909D03*
X0311462Y0174909D03*
X0311462Y0196957D03*
X0306462Y0196957D03*
X0301462Y0196957D03*
X0296462Y0196957D03*
X0291462Y0196957D03*
X0286462Y0196957D03*
X0281462Y0196957D03*
X0281462Y0276909D03*
X0286462Y0276909D03*
X0291462Y0276909D03*
X0296462Y0276909D03*
X0301462Y0276909D03*
X0306462Y0276909D03*
X0311462Y0276909D03*
X0311462Y0298957D03*
X0306462Y0298957D03*
X0301462Y0298957D03*
X0296462Y0298957D03*
X0291462Y0298957D03*
X0286462Y0298957D03*
X0281462Y0298957D03*
D18*
X0295615Y0307933D03*
X0302308Y0307933D03*
X0330615Y0267933D03*
X0337308Y0267933D03*
X0302308Y0205933D03*
X0295615Y0205933D03*
X0330615Y0165933D03*
X0337308Y0165933D03*
X0302308Y0103933D03*
X0295615Y0103933D03*
X0330615Y0063933D03*
X0337308Y0063933D03*
X0235308Y0063933D03*
X0228615Y0063933D03*
X0200308Y0103933D03*
X0193615Y0103933D03*
X0133308Y0063933D03*
X0126615Y0063933D03*
X0098308Y0103933D03*
X0091615Y0103933D03*
X0126615Y0165933D03*
X0133308Y0165933D03*
X0098308Y0205933D03*
X0091615Y0205933D03*
X0126615Y0267933D03*
X0133308Y0267933D03*
X0098308Y0307933D03*
X0091615Y0307933D03*
X0193615Y0307933D03*
X0200308Y0307933D03*
X0228615Y0267933D03*
X0235308Y0267933D03*
X0200308Y0205933D03*
X0193615Y0205933D03*
X0228615Y0165933D03*
X0235308Y0165933D03*
D19*
X0206962Y0165933D03*
X0206962Y0155933D03*
X0196962Y0155933D03*
X0196962Y0165933D03*
X0186962Y0165933D03*
X0186962Y0155933D03*
X0104962Y0155933D03*
X0104962Y0165933D03*
X0094962Y0165933D03*
X0094962Y0155933D03*
X0084962Y0155933D03*
X0084962Y0165933D03*
X0084962Y0257933D03*
X0084962Y0267933D03*
X0094962Y0267933D03*
X0104962Y0267933D03*
X0104962Y0257933D03*
X0094962Y0257933D03*
X0186962Y0257933D03*
X0196962Y0257933D03*
X0206962Y0257933D03*
X0206962Y0267933D03*
X0196962Y0267933D03*
X0186962Y0267933D03*
X0288962Y0267933D03*
X0288962Y0257933D03*
X0298962Y0257933D03*
X0308962Y0257933D03*
X0308962Y0267933D03*
X0298962Y0267933D03*
X0298962Y0165933D03*
X0308962Y0165933D03*
X0308962Y0155933D03*
X0298962Y0155933D03*
X0288962Y0155933D03*
X0288962Y0165933D03*
X0288962Y0063933D03*
X0288962Y0053933D03*
X0298962Y0053933D03*
X0308962Y0053933D03*
X0308962Y0063933D03*
X0298962Y0063933D03*
X0206962Y0063933D03*
X0206962Y0053933D03*
X0196962Y0053933D03*
X0196962Y0063933D03*
X0186962Y0063933D03*
X0186962Y0053933D03*
X0104962Y0053933D03*
X0104962Y0063933D03*
X0094962Y0063933D03*
X0094962Y0053933D03*
X0084962Y0053933D03*
X0084962Y0063933D03*
D20*
X0127882Y0060306D02*
X0127882Y0057560D01*
X0125136Y0057560D01*
X0125136Y0060306D01*
X0127882Y0060306D01*
X0127882Y0059450D02*
X0125136Y0059450D01*
X0134788Y0060306D02*
X0134788Y0057560D01*
X0132042Y0057560D01*
X0132042Y0060306D01*
X0134788Y0060306D01*
X0134788Y0059450D02*
X0132042Y0059450D01*
X0229882Y0060306D02*
X0229882Y0057560D01*
X0227136Y0057560D01*
X0227136Y0060306D01*
X0229882Y0060306D01*
X0229882Y0059450D02*
X0227136Y0059450D01*
X0236788Y0060306D02*
X0236788Y0057560D01*
X0234042Y0057560D01*
X0234042Y0060306D01*
X0236788Y0060306D01*
X0236788Y0059450D02*
X0234042Y0059450D01*
X0331882Y0060306D02*
X0331882Y0057560D01*
X0329136Y0057560D01*
X0329136Y0060306D01*
X0331882Y0060306D01*
X0331882Y0059450D02*
X0329136Y0059450D01*
X0338788Y0060306D02*
X0338788Y0057560D01*
X0336042Y0057560D01*
X0336042Y0060306D01*
X0338788Y0060306D01*
X0338788Y0059450D02*
X0336042Y0059450D01*
X0338788Y0159560D02*
X0338788Y0162306D01*
X0338788Y0159560D02*
X0336042Y0159560D01*
X0336042Y0162306D01*
X0338788Y0162306D01*
X0338788Y0161450D02*
X0336042Y0161450D01*
X0331882Y0162306D02*
X0331882Y0159560D01*
X0329136Y0159560D01*
X0329136Y0162306D01*
X0331882Y0162306D01*
X0331882Y0161450D02*
X0329136Y0161450D01*
X0236788Y0162306D02*
X0236788Y0159560D01*
X0234042Y0159560D01*
X0234042Y0162306D01*
X0236788Y0162306D01*
X0236788Y0161450D02*
X0234042Y0161450D01*
X0229882Y0162306D02*
X0229882Y0159560D01*
X0227136Y0159560D01*
X0227136Y0162306D01*
X0229882Y0162306D01*
X0229882Y0161450D02*
X0227136Y0161450D01*
X0134788Y0162306D02*
X0134788Y0159560D01*
X0132042Y0159560D01*
X0132042Y0162306D01*
X0134788Y0162306D01*
X0134788Y0161450D02*
X0132042Y0161450D01*
X0127882Y0162306D02*
X0127882Y0159560D01*
X0125136Y0159560D01*
X0125136Y0162306D01*
X0127882Y0162306D01*
X0127882Y0161450D02*
X0125136Y0161450D01*
X0127882Y0261560D02*
X0127882Y0264306D01*
X0127882Y0261560D02*
X0125136Y0261560D01*
X0125136Y0264306D01*
X0127882Y0264306D01*
X0127882Y0263450D02*
X0125136Y0263450D01*
X0134788Y0264306D02*
X0134788Y0261560D01*
X0132042Y0261560D01*
X0132042Y0264306D01*
X0134788Y0264306D01*
X0134788Y0263450D02*
X0132042Y0263450D01*
X0229882Y0264306D02*
X0229882Y0261560D01*
X0227136Y0261560D01*
X0227136Y0264306D01*
X0229882Y0264306D01*
X0229882Y0263450D02*
X0227136Y0263450D01*
X0236788Y0264306D02*
X0236788Y0261560D01*
X0234042Y0261560D01*
X0234042Y0264306D01*
X0236788Y0264306D01*
X0236788Y0263450D02*
X0234042Y0263450D01*
X0331882Y0264306D02*
X0331882Y0261560D01*
X0329136Y0261560D01*
X0329136Y0264306D01*
X0331882Y0264306D01*
X0331882Y0263450D02*
X0329136Y0263450D01*
X0338788Y0264306D02*
X0338788Y0261560D01*
X0336042Y0261560D01*
X0336042Y0264306D01*
X0338788Y0264306D01*
X0338788Y0263450D02*
X0336042Y0263450D01*
D21*
X0338962Y0225933D03*
X0258962Y0225933D03*
X0236962Y0225933D03*
X0156962Y0225933D03*
X0134962Y0225933D03*
X0054962Y0225933D03*
X0054962Y0123933D03*
X0134962Y0123933D03*
X0156962Y0123933D03*
X0236962Y0123933D03*
X0258962Y0123933D03*
X0338962Y0123933D03*
X0338962Y0327933D03*
X0258962Y0327933D03*
X0236962Y0327933D03*
X0156962Y0327933D03*
X0134962Y0327933D03*
X0054962Y0327933D03*
D22*
X0071962Y0346183D03*
X0321962Y0346183D03*
D23*
X0068397Y0025683D02*
X0068399Y0025802D01*
X0068405Y0025921D01*
X0068415Y0026040D01*
X0068429Y0026158D01*
X0068447Y0026276D01*
X0068468Y0026393D01*
X0068494Y0026509D01*
X0068524Y0026625D01*
X0068557Y0026739D01*
X0068594Y0026852D01*
X0068635Y0026964D01*
X0068680Y0027075D01*
X0068728Y0027184D01*
X0068780Y0027291D01*
X0068836Y0027396D01*
X0068895Y0027500D01*
X0068957Y0027601D01*
X0069023Y0027701D01*
X0069092Y0027798D01*
X0069164Y0027892D01*
X0069240Y0027985D01*
X0069318Y0028074D01*
X0069399Y0028161D01*
X0069484Y0028246D01*
X0069571Y0028327D01*
X0069660Y0028405D01*
X0069753Y0028481D01*
X0069847Y0028553D01*
X0069944Y0028622D01*
X0070044Y0028688D01*
X0070145Y0028750D01*
X0070249Y0028809D01*
X0070354Y0028865D01*
X0070461Y0028917D01*
X0070570Y0028965D01*
X0070681Y0029010D01*
X0070793Y0029051D01*
X0070906Y0029088D01*
X0071020Y0029121D01*
X0071136Y0029151D01*
X0071252Y0029177D01*
X0071369Y0029198D01*
X0071487Y0029216D01*
X0071605Y0029230D01*
X0071724Y0029240D01*
X0071843Y0029246D01*
X0071962Y0029248D01*
X0072081Y0029246D01*
X0072200Y0029240D01*
X0072319Y0029230D01*
X0072437Y0029216D01*
X0072555Y0029198D01*
X0072672Y0029177D01*
X0072788Y0029151D01*
X0072904Y0029121D01*
X0073018Y0029088D01*
X0073131Y0029051D01*
X0073243Y0029010D01*
X0073354Y0028965D01*
X0073463Y0028917D01*
X0073570Y0028865D01*
X0073675Y0028809D01*
X0073779Y0028750D01*
X0073880Y0028688D01*
X0073980Y0028622D01*
X0074077Y0028553D01*
X0074171Y0028481D01*
X0074264Y0028405D01*
X0074353Y0028327D01*
X0074440Y0028246D01*
X0074525Y0028161D01*
X0074606Y0028074D01*
X0074684Y0027985D01*
X0074760Y0027892D01*
X0074832Y0027798D01*
X0074901Y0027701D01*
X0074967Y0027601D01*
X0075029Y0027500D01*
X0075088Y0027396D01*
X0075144Y0027291D01*
X0075196Y0027184D01*
X0075244Y0027075D01*
X0075289Y0026964D01*
X0075330Y0026852D01*
X0075367Y0026739D01*
X0075400Y0026625D01*
X0075430Y0026509D01*
X0075456Y0026393D01*
X0075477Y0026276D01*
X0075495Y0026158D01*
X0075509Y0026040D01*
X0075519Y0025921D01*
X0075525Y0025802D01*
X0075527Y0025683D01*
X0075525Y0025564D01*
X0075519Y0025445D01*
X0075509Y0025326D01*
X0075495Y0025208D01*
X0075477Y0025090D01*
X0075456Y0024973D01*
X0075430Y0024857D01*
X0075400Y0024741D01*
X0075367Y0024627D01*
X0075330Y0024514D01*
X0075289Y0024402D01*
X0075244Y0024291D01*
X0075196Y0024182D01*
X0075144Y0024075D01*
X0075088Y0023970D01*
X0075029Y0023866D01*
X0074967Y0023765D01*
X0074901Y0023665D01*
X0074832Y0023568D01*
X0074760Y0023474D01*
X0074684Y0023381D01*
X0074606Y0023292D01*
X0074525Y0023205D01*
X0074440Y0023120D01*
X0074353Y0023039D01*
X0074264Y0022961D01*
X0074171Y0022885D01*
X0074077Y0022813D01*
X0073980Y0022744D01*
X0073880Y0022678D01*
X0073779Y0022616D01*
X0073675Y0022557D01*
X0073570Y0022501D01*
X0073463Y0022449D01*
X0073354Y0022401D01*
X0073243Y0022356D01*
X0073131Y0022315D01*
X0073018Y0022278D01*
X0072904Y0022245D01*
X0072788Y0022215D01*
X0072672Y0022189D01*
X0072555Y0022168D01*
X0072437Y0022150D01*
X0072319Y0022136D01*
X0072200Y0022126D01*
X0072081Y0022120D01*
X0071962Y0022118D01*
X0071843Y0022120D01*
X0071724Y0022126D01*
X0071605Y0022136D01*
X0071487Y0022150D01*
X0071369Y0022168D01*
X0071252Y0022189D01*
X0071136Y0022215D01*
X0071020Y0022245D01*
X0070906Y0022278D01*
X0070793Y0022315D01*
X0070681Y0022356D01*
X0070570Y0022401D01*
X0070461Y0022449D01*
X0070354Y0022501D01*
X0070249Y0022557D01*
X0070145Y0022616D01*
X0070044Y0022678D01*
X0069944Y0022744D01*
X0069847Y0022813D01*
X0069753Y0022885D01*
X0069660Y0022961D01*
X0069571Y0023039D01*
X0069484Y0023120D01*
X0069399Y0023205D01*
X0069318Y0023292D01*
X0069240Y0023381D01*
X0069164Y0023474D01*
X0069092Y0023568D01*
X0069023Y0023665D01*
X0068957Y0023765D01*
X0068895Y0023866D01*
X0068836Y0023970D01*
X0068780Y0024075D01*
X0068728Y0024182D01*
X0068680Y0024291D01*
X0068635Y0024402D01*
X0068594Y0024514D01*
X0068557Y0024627D01*
X0068524Y0024741D01*
X0068494Y0024857D01*
X0068468Y0024973D01*
X0068447Y0025090D01*
X0068429Y0025208D01*
X0068415Y0025326D01*
X0068405Y0025445D01*
X0068399Y0025564D01*
X0068397Y0025683D01*
D24*
X0071962Y0025683D03*
M02*
