%
M48
M72
T01C0.0120
T02C0.0138
T03C0.0200
T04C0.0400
T05C0.1300
%
T01
X8096Y5093
X8946Y4393
X11996Y5643
X12246Y6393
X11496Y7393
X9996Y7893
X9496Y8893
X8996Y8893
X8496Y8893
X7746Y8643
X7246Y9043
X6096Y10393
X4846Y10393
X8596Y10893
X8996Y10893
X10496Y10893
X11496Y9393
X13496Y8393
X15046Y10393
X16296Y10393
X17446Y9043
X17946Y8643
X18696Y8893
X19196Y8893
X19696Y8893
X20196Y7893
X21696Y7393
X22446Y6393
X22196Y5643
X23696Y8393
X21696Y9393
X20696Y10893
X19196Y10893
X18796Y10893
X19146Y14593
X18296Y15293
X20196Y18093
X19696Y19093
X19196Y19093
X18696Y19093
X17946Y18843
X17446Y19243
X16296Y20593
X15046Y20593
X13496Y18593
X11496Y17593
X12246Y16593
X11996Y15843
X9996Y18093
X9496Y19093
X8996Y19093
X8496Y19093
X7746Y18843
X7246Y19243
X6096Y20593
X4846Y20593
X8596Y21093
X8996Y21093
X10496Y21093
X11496Y19593
X8096Y15293
X8946Y14593
X18796Y21093
X19196Y21093
X20696Y21093
X21696Y19593
X21696Y17593
X22446Y16593
X22196Y15843
X23696Y18593
X25246Y20593
X26496Y20593
X27646Y19243
X28146Y18843
X28896Y19093
X29396Y19093
X29896Y19093
X30396Y18093
X31896Y17593
X32646Y16593
X32396Y15843
X33896Y18593
X31896Y19593
X30896Y21093
X29396Y21093
X28996Y21093
X29346Y24793
X28496Y25493
X30396Y28293
X29896Y29293
X29396Y29293
X28896Y29293
X28146Y29043
X27646Y29443
X26496Y30793
X25246Y30793
X23696Y28793
X21696Y27793
X22446Y26793
X22196Y26043
X20196Y28293
X19696Y29293
X19196Y29293
X18696Y29293
X17946Y29043
X17446Y29443
X16296Y30793
X15046Y30793
X13496Y28793
X11496Y27793
X12246Y26793
X11996Y26043
X9996Y28293
X9496Y29293
X8996Y29293
X8496Y29293
X7746Y29043
X7246Y29443
X6096Y30793
X4846Y30793
X8596Y31293
X8996Y31293
X10496Y31293
X11496Y29793
X8096Y25493
X8946Y24793
X18296Y25493
X19146Y24793
X21696Y29793
X20696Y31293
X19196Y31293
X18796Y31293
X28996Y31293
X29396Y31293
X30896Y31293
X31896Y29793
X33896Y28793
X31896Y27793
X32646Y26793
X32396Y26043
X28496Y15293
X29346Y14593
X29396Y10893
X28996Y10893
X30896Y10893
X31896Y9393
X29896Y8893
X29396Y8893
X28896Y8893
X28146Y8643
X27646Y9043
X26496Y10393
X25246Y10393
X30396Y7893
X31896Y7393
X32646Y6393
X32396Y5643
X33896Y8393
X29346Y4393
X28496Y5093
X19146Y4393
X18296Y5093
T02
X16196Y6643
X17246Y8590
X16196Y16843
X17246Y18790
X16196Y27043
X17246Y28990
X26396Y27043
X27446Y28990
X27446Y18790
X26396Y16843
X27446Y8590
X26396Y6643
X7046Y8590
X5996Y6643
X5996Y16843
X7046Y18790
X5996Y27043
X7046Y28990
T03
X8496Y26793
X8496Y25793
X9496Y25793
X10496Y25793
X10496Y26793
X9496Y26793
X18696Y26793
X18696Y25793
X19696Y25793
X20696Y25793
X20696Y26793
X19696Y26793
X28896Y26793
X28896Y25793
X29896Y25793
X30896Y25793
X30896Y26793
X29896Y26793
X29896Y16593
X29896Y15593
X30896Y15593
X30896Y16593
X28896Y16593
X28896Y15593
X20696Y15593
X19696Y15593
X18696Y15593
X18696Y16593
X19696Y16593
X20696Y16593
X10496Y16593
X10496Y15593
X9496Y15593
X9496Y16593
X8496Y16593
X8496Y15593
X8496Y6393
X8496Y5393
X9496Y5393
X10496Y5393
X10496Y6393
X9496Y6393
X18696Y6393
X18696Y5393
X19696Y5393
X20696Y5393
X20696Y6393
X19696Y6393
X28896Y6393
X28896Y5393
X29896Y5393
X30896Y5393
X30896Y6393
X29896Y6393
T04
X6496Y3893
X7496Y3893
X8496Y3893
X9496Y3893
X10496Y3893
X11496Y3893
X12496Y3893
X16696Y3893
X17696Y3893
X18696Y3893
X19696Y3893
X20696Y3893
X21696Y3893
X22696Y3893
X26896Y3893
X27896Y3893
X28896Y3893
X29896Y3893
X30896Y3893
X31896Y3893
X32896Y3893
X32396Y12893
X31396Y12893
X30396Y12893
X29396Y12893
X28396Y12893
X27396Y12893
X26896Y14093
X27896Y14093
X28896Y14093
X29896Y14093
X30896Y14093
X31896Y14093
X32896Y14093
X32396Y23093
X31396Y23093
X30396Y23093
X29396Y23093
X28396Y23093
X27396Y23093
X26896Y24293
X27896Y24293
X28896Y24293
X29896Y24293
X30896Y24293
X31896Y24293
X32896Y24293
X32396Y33293
X31396Y33293
X30396Y33293
X29396Y33293
X28396Y33293
X27396Y33293
X22196Y33293
X21196Y33293
X20196Y33293
X19196Y33293
X18196Y33293
X17196Y33293
X11996Y33293
X10996Y33293
X9996Y33293
X8996Y33293
X7996Y33293
X6996Y33293
X6496Y24293
X7496Y24293
X8496Y24293
X9496Y24293
X10496Y24293
X11496Y24293
X12496Y24293
X11996Y23093
X10996Y23093
X9996Y23093
X8996Y23093
X7996Y23093
X6996Y23093
X16696Y24293
X17696Y24293
X18696Y24293
X19696Y24293
X20696Y24293
X21696Y24293
X22696Y24293
X22196Y23093
X21196Y23093
X20196Y23093
X19196Y23093
X18196Y23093
X17196Y23093
X16696Y14093
X17696Y14093
X18696Y14093
X19696Y14093
X20696Y14093
X21696Y14093
X22696Y14093
X22196Y12893
X21196Y12893
X20196Y12893
X19196Y12893
X18196Y12893
X17196Y12893
X12496Y14093
X11496Y14093
X10496Y14093
X9496Y14093
X8496Y14093
X7496Y14093
X6496Y14093
X6996Y12893
X7996Y12893
X8996Y12893
X9996Y12893
X10996Y12893
X11996Y12893
T05
X13496Y12393
X15696Y12393
X23696Y12393
X25896Y12393
X33896Y12393
X33896Y22593
X25896Y22593
X23696Y22593
X15696Y22593
X13496Y22593
X5496Y22593
X5496Y12393
X5496Y32793
X13496Y32793
X15696Y32793
X23696Y32793
X25896Y32793
X33896Y32793
M30
