G75*
%MOIN*%
%OFA0B0*%
%FSLAX25Y25*%
%IPPOS*%
%LPD*%
%AMOC8*
5,1,8,0,0,1.08239X$1,22.5*
%
%ADD10C,0.00800*%
%ADD11C,0.01000*%
D10*
X0028500Y0028500D02*
X0028500Y0128500D01*
X0153500Y0128500D01*
X0153500Y0028500D01*
X0028500Y0028500D01*
X0028500Y0130500D02*
X0028500Y0230500D01*
X0153500Y0230500D01*
X0153500Y0130500D01*
X0028500Y0130500D01*
X0028500Y0232500D02*
X0028500Y0332500D01*
X0153500Y0332500D01*
X0153500Y0232500D01*
X0028500Y0232500D01*
X0155500Y0232500D02*
X0155500Y0332500D01*
X0280500Y0332500D01*
X0280500Y0232500D01*
X0155500Y0232500D01*
X0155500Y0230500D02*
X0155500Y0130500D01*
X0280500Y0130500D01*
X0280500Y0230500D01*
X0155500Y0230500D01*
X0155500Y0128500D02*
X0155500Y0028500D01*
X0280500Y0028500D01*
X0280500Y0128500D01*
X0155500Y0128500D01*
X0282500Y0128500D02*
X0282500Y0028500D01*
X0407500Y0028500D01*
X0407500Y0128500D01*
X0282500Y0128500D01*
X0282500Y0130500D02*
X0282500Y0230500D01*
X0407500Y0230500D01*
X0407500Y0130500D01*
X0282500Y0130500D01*
X0282500Y0232500D02*
X0282500Y0332500D01*
X0407500Y0332500D01*
X0407500Y0232500D01*
X0282500Y0232500D01*
D11*
X0001500Y0026500D02*
X0001500Y0001500D01*
X0434500Y0001500D01*
X0434500Y0026500D01*
X0001500Y0026500D01*
X0001500Y0028500D02*
X0001500Y0332500D01*
X0026500Y0332500D01*
X0026500Y0028500D01*
X0001500Y0028500D01*
X0001500Y0334500D02*
X0001500Y0359500D01*
X0434500Y0359500D01*
X0434500Y0334500D01*
X0001500Y0334500D01*
X0409500Y0332500D02*
X0409500Y0028500D01*
X0434500Y0028500D01*
X0434500Y0332500D01*
X0409500Y0332500D01*
M02*
