G75*
%MOIN*%
%OFA0B0*%
%FSLAX25Y25*%
%IPPOS*%
%LPD*%
%AMOC8*
5,1,8,0,0,1.08239X$1,22.5*
%
%ADD10C,0.08200*%
%ADD11C,0.03300*%
D10*
X0068500Y0033500D03*
X0078500Y0033500D03*
X0088500Y0033500D03*
X0098500Y0033500D03*
X0108500Y0033500D03*
X0118500Y0033500D03*
X0195500Y0033500D03*
X0205500Y0033500D03*
X0215500Y0033500D03*
X0225500Y0033500D03*
X0235500Y0033500D03*
X0245500Y0033500D03*
X0322500Y0033500D03*
X0332500Y0033500D03*
X0342500Y0033500D03*
X0352500Y0033500D03*
X0362500Y0033500D03*
X0372500Y0033500D03*
X0367500Y0123500D03*
X0377500Y0123500D03*
X0387500Y0123500D03*
X0372500Y0135500D03*
X0362500Y0135500D03*
X0352500Y0135500D03*
X0342500Y0135500D03*
X0332500Y0135500D03*
X0322500Y0135500D03*
X0317500Y0123500D03*
X0307500Y0123500D03*
X0327500Y0123500D03*
X0337500Y0123500D03*
X0347500Y0123500D03*
X0357500Y0123500D03*
X0260500Y0123500D03*
X0250500Y0123500D03*
X0240500Y0123500D03*
X0230500Y0123500D03*
X0220500Y0123500D03*
X0210500Y0123500D03*
X0200500Y0123500D03*
X0190500Y0123500D03*
X0180500Y0123500D03*
X0195500Y0135500D03*
X0205500Y0135500D03*
X0215500Y0135500D03*
X0225500Y0135500D03*
X0235500Y0135500D03*
X0245500Y0135500D03*
X0240500Y0225500D03*
X0250500Y0225500D03*
X0260500Y0225500D03*
X0245500Y0237500D03*
X0235500Y0237500D03*
X0225500Y0237500D03*
X0215500Y0237500D03*
X0205500Y0237500D03*
X0195500Y0237500D03*
X0190500Y0225500D03*
X0180500Y0225500D03*
X0200500Y0225500D03*
X0210500Y0225500D03*
X0220500Y0225500D03*
X0230500Y0225500D03*
X0307500Y0225500D03*
X0317500Y0225500D03*
X0327500Y0225500D03*
X0337500Y0225500D03*
X0347500Y0225500D03*
X0357500Y0225500D03*
X0367500Y0225500D03*
X0377500Y0225500D03*
X0387500Y0225500D03*
X0372500Y0237500D03*
X0362500Y0237500D03*
X0352500Y0237500D03*
X0342500Y0237500D03*
X0332500Y0237500D03*
X0322500Y0237500D03*
X0317500Y0327500D03*
X0307500Y0327500D03*
X0327500Y0327500D03*
X0337500Y0327500D03*
X0347500Y0327500D03*
X0357500Y0327500D03*
X0367500Y0327500D03*
X0377500Y0327500D03*
X0387500Y0327500D03*
X0260500Y0327500D03*
X0250500Y0327500D03*
X0240500Y0327500D03*
X0230500Y0327500D03*
X0220500Y0327500D03*
X0210500Y0327500D03*
X0200500Y0327500D03*
X0190500Y0327500D03*
X0180500Y0327500D03*
X0133500Y0327500D03*
X0123500Y0327500D03*
X0113500Y0327500D03*
X0103500Y0327500D03*
X0093500Y0327500D03*
X0083500Y0327500D03*
X0073500Y0327500D03*
X0063500Y0327500D03*
X0053500Y0327500D03*
X0068500Y0237500D03*
X0078500Y0237500D03*
X0088500Y0237500D03*
X0098500Y0237500D03*
X0108500Y0237500D03*
X0118500Y0237500D03*
X0113500Y0225500D03*
X0123500Y0225500D03*
X0133500Y0225500D03*
X0103500Y0225500D03*
X0093500Y0225500D03*
X0083500Y0225500D03*
X0073500Y0225500D03*
X0063500Y0225500D03*
X0053500Y0225500D03*
X0068500Y0135500D03*
X0078500Y0135500D03*
X0088500Y0135500D03*
X0098500Y0135500D03*
X0108500Y0135500D03*
X0118500Y0135500D03*
X0113500Y0123500D03*
X0123500Y0123500D03*
X0133500Y0123500D03*
X0103500Y0123500D03*
X0093500Y0123500D03*
X0083500Y0123500D03*
X0073500Y0123500D03*
X0063500Y0123500D03*
X0053500Y0123500D03*
D11*
X0043500Y0033500D03*
X0148500Y0123500D03*
X0170500Y0135500D03*
X0148500Y0225500D03*
X0170500Y0237500D03*
X0148500Y0327500D03*
X0043500Y0237500D03*
X0043500Y0135500D03*
X0170500Y0033500D03*
X0275500Y0123500D03*
X0297500Y0135500D03*
X0275500Y0225500D03*
X0297500Y0237500D03*
X0275500Y0327500D03*
X0402500Y0327500D03*
X0402500Y0225500D03*
X0402500Y0123500D03*
X0297500Y0033500D03*
M02*
