G75*
%MOIN*%
%OFA0B0*%
%FSLAX25Y25*%
%IPPOS*%
%LPD*%
%AMOC8*
5,1,8,0,0,1.08239X$1,22.5*
%
%ADD10C,0.03300*%
%ADD11R,0.08674X0.05524*%
%ADD12R,0.06115X0.03162*%
%ADD13C,0.08200*%
%ADD14R,0.05131X0.04737*%
%ADD15R,0.04737X0.05131*%
%ADD16R,0.03300X0.05800*%
%ADD17R,0.03162X0.05524*%
%ADD18C,0.04808*%
%ADD19C,0.01421*%
%ADD20C,0.04737*%
%ADD21C,0.05000*%
%ADD22C,0.06706*%
D10*
X0031500Y0125500D03*
X0031500Y0227500D03*
X0031500Y0329500D03*
X0150000Y0236000D03*
X0158500Y0227500D03*
X0150000Y0134000D03*
X0158500Y0125500D03*
X0150000Y0032000D03*
X0277000Y0032000D03*
X0285500Y0125500D03*
X0277000Y0134000D03*
X0285500Y0227500D03*
X0277000Y0236000D03*
X0285500Y0329500D03*
X0404000Y0236000D03*
X0404000Y0134000D03*
X0404000Y0032000D03*
X0158500Y0329500D03*
D11*
X0161031Y0293524D03*
X0147969Y0293524D03*
X0147969Y0271476D03*
X0161031Y0271476D03*
X0161031Y0191524D03*
X0147969Y0191524D03*
X0147969Y0169476D03*
X0161031Y0169476D03*
X0161031Y0089524D03*
X0147969Y0089524D03*
X0147969Y0067476D03*
X0161031Y0067476D03*
X0274969Y0067476D03*
X0288031Y0067476D03*
X0288031Y0089524D03*
X0274969Y0089524D03*
X0274969Y0169476D03*
X0288031Y0169476D03*
X0288031Y0191524D03*
X0274969Y0191524D03*
X0274969Y0271476D03*
X0288031Y0271476D03*
X0288031Y0293524D03*
X0274969Y0293524D03*
X0401969Y0293524D03*
X0401969Y0271476D03*
X0401969Y0191524D03*
X0401969Y0169476D03*
X0401969Y0089524D03*
X0401969Y0067476D03*
X0034031Y0067476D03*
X0034031Y0089524D03*
X0034031Y0169476D03*
X0034031Y0191524D03*
X0034031Y0271476D03*
X0034031Y0293524D03*
D12*
X0048500Y0288406D03*
X0048500Y0284469D03*
X0048500Y0280531D03*
X0048500Y0276594D03*
X0133500Y0276594D03*
X0133500Y0280531D03*
X0133500Y0284469D03*
X0133500Y0288406D03*
X0175500Y0288406D03*
X0175500Y0284469D03*
X0175500Y0280531D03*
X0175500Y0276594D03*
X0260500Y0276594D03*
X0260500Y0280531D03*
X0260500Y0284469D03*
X0260500Y0288406D03*
X0302500Y0288406D03*
X0302500Y0284469D03*
X0302500Y0280531D03*
X0302500Y0276594D03*
X0387500Y0276594D03*
X0387500Y0280531D03*
X0387500Y0284469D03*
X0387500Y0288406D03*
X0387500Y0186406D03*
X0387500Y0182469D03*
X0387500Y0178531D03*
X0387500Y0174594D03*
X0302500Y0174594D03*
X0302500Y0178531D03*
X0302500Y0182469D03*
X0302500Y0186406D03*
X0260500Y0186406D03*
X0260500Y0182469D03*
X0260500Y0178531D03*
X0260500Y0174594D03*
X0175500Y0174594D03*
X0175500Y0178531D03*
X0175500Y0182469D03*
X0175500Y0186406D03*
X0133500Y0186406D03*
X0133500Y0182469D03*
X0133500Y0178531D03*
X0133500Y0174594D03*
X0048500Y0174594D03*
X0048500Y0178531D03*
X0048500Y0182469D03*
X0048500Y0186406D03*
X0048500Y0084406D03*
X0048500Y0080469D03*
X0048500Y0076531D03*
X0048500Y0072594D03*
X0133500Y0072594D03*
X0133500Y0076531D03*
X0133500Y0080469D03*
X0133500Y0084406D03*
X0175500Y0084406D03*
X0175500Y0080469D03*
X0175500Y0076531D03*
X0175500Y0072594D03*
X0260500Y0072594D03*
X0260500Y0076531D03*
X0260500Y0080469D03*
X0260500Y0084406D03*
X0302500Y0084406D03*
X0302500Y0080469D03*
X0302500Y0076531D03*
X0302500Y0072594D03*
X0387500Y0072594D03*
X0387500Y0076531D03*
X0387500Y0080469D03*
X0387500Y0084406D03*
D13*
X0387500Y0123500D03*
X0377500Y0123500D03*
X0367500Y0123500D03*
X0357500Y0123500D03*
X0347500Y0123500D03*
X0337500Y0123500D03*
X0327500Y0123500D03*
X0317500Y0123500D03*
X0307500Y0123500D03*
X0322500Y0135500D03*
X0332500Y0135500D03*
X0342500Y0135500D03*
X0352500Y0135500D03*
X0362500Y0135500D03*
X0372500Y0135500D03*
X0367500Y0225500D03*
X0377500Y0225500D03*
X0387500Y0225500D03*
X0372500Y0237500D03*
X0362500Y0237500D03*
X0352500Y0237500D03*
X0342500Y0237500D03*
X0332500Y0237500D03*
X0322500Y0237500D03*
X0317500Y0225500D03*
X0307500Y0225500D03*
X0327500Y0225500D03*
X0337500Y0225500D03*
X0347500Y0225500D03*
X0357500Y0225500D03*
X0260500Y0225500D03*
X0250500Y0225500D03*
X0240500Y0225500D03*
X0230500Y0225500D03*
X0220500Y0225500D03*
X0210500Y0225500D03*
X0200500Y0225500D03*
X0190500Y0225500D03*
X0180500Y0225500D03*
X0195500Y0237500D03*
X0205500Y0237500D03*
X0215500Y0237500D03*
X0225500Y0237500D03*
X0235500Y0237500D03*
X0245500Y0237500D03*
X0240500Y0327500D03*
X0250500Y0327500D03*
X0260500Y0327500D03*
X0230500Y0327500D03*
X0220500Y0327500D03*
X0210500Y0327500D03*
X0200500Y0327500D03*
X0190500Y0327500D03*
X0180500Y0327500D03*
X0133500Y0327500D03*
X0123500Y0327500D03*
X0113500Y0327500D03*
X0103500Y0327500D03*
X0093500Y0327500D03*
X0083500Y0327500D03*
X0073500Y0327500D03*
X0063500Y0327500D03*
X0053500Y0327500D03*
X0068500Y0237500D03*
X0078500Y0237500D03*
X0088500Y0237500D03*
X0098500Y0237500D03*
X0108500Y0237500D03*
X0118500Y0237500D03*
X0113500Y0225500D03*
X0123500Y0225500D03*
X0133500Y0225500D03*
X0103500Y0225500D03*
X0093500Y0225500D03*
X0083500Y0225500D03*
X0073500Y0225500D03*
X0063500Y0225500D03*
X0053500Y0225500D03*
X0068500Y0135500D03*
X0078500Y0135500D03*
X0088500Y0135500D03*
X0098500Y0135500D03*
X0108500Y0135500D03*
X0118500Y0135500D03*
X0113500Y0123500D03*
X0123500Y0123500D03*
X0133500Y0123500D03*
X0103500Y0123500D03*
X0093500Y0123500D03*
X0083500Y0123500D03*
X0073500Y0123500D03*
X0063500Y0123500D03*
X0053500Y0123500D03*
X0068500Y0033500D03*
X0078500Y0033500D03*
X0088500Y0033500D03*
X0098500Y0033500D03*
X0108500Y0033500D03*
X0118500Y0033500D03*
X0195500Y0033500D03*
X0205500Y0033500D03*
X0215500Y0033500D03*
X0225500Y0033500D03*
X0235500Y0033500D03*
X0245500Y0033500D03*
X0322500Y0033500D03*
X0332500Y0033500D03*
X0342500Y0033500D03*
X0352500Y0033500D03*
X0362500Y0033500D03*
X0372500Y0033500D03*
X0260500Y0123500D03*
X0250500Y0123500D03*
X0240500Y0123500D03*
X0230500Y0123500D03*
X0220500Y0123500D03*
X0210500Y0123500D03*
X0200500Y0123500D03*
X0190500Y0123500D03*
X0180500Y0123500D03*
X0195500Y0135500D03*
X0205500Y0135500D03*
X0215500Y0135500D03*
X0225500Y0135500D03*
X0235500Y0135500D03*
X0245500Y0135500D03*
X0307500Y0327500D03*
X0317500Y0327500D03*
X0327500Y0327500D03*
X0337500Y0327500D03*
X0347500Y0327500D03*
X0357500Y0327500D03*
X0367500Y0327500D03*
X0377500Y0327500D03*
X0387500Y0327500D03*
D14*
X0380846Y0257500D03*
X0374154Y0257500D03*
X0340846Y0257500D03*
X0334154Y0257500D03*
X0315846Y0257500D03*
X0309154Y0257500D03*
X0253846Y0257500D03*
X0247154Y0257500D03*
X0213846Y0257500D03*
X0207154Y0257500D03*
X0188846Y0257500D03*
X0182154Y0257500D03*
X0126846Y0257500D03*
X0120154Y0257500D03*
X0086846Y0257500D03*
X0080154Y0257500D03*
X0061846Y0257500D03*
X0055154Y0257500D03*
X0055154Y0155500D03*
X0061846Y0155500D03*
X0080154Y0155500D03*
X0086846Y0155500D03*
X0120154Y0155500D03*
X0126846Y0155500D03*
X0182154Y0155500D03*
X0188846Y0155500D03*
X0207154Y0155500D03*
X0213846Y0155500D03*
X0247154Y0155500D03*
X0253846Y0155500D03*
X0309154Y0155500D03*
X0315846Y0155500D03*
X0334154Y0155500D03*
X0340846Y0155500D03*
X0374154Y0155500D03*
X0380846Y0155500D03*
X0380846Y0053500D03*
X0374154Y0053500D03*
X0340846Y0053500D03*
X0334154Y0053500D03*
X0315846Y0053500D03*
X0309154Y0053500D03*
X0253846Y0053500D03*
X0247154Y0053500D03*
X0213846Y0053500D03*
X0207154Y0053500D03*
X0188846Y0053500D03*
X0182154Y0053500D03*
X0126846Y0053500D03*
X0120154Y0053500D03*
X0086846Y0053500D03*
X0080154Y0053500D03*
X0061846Y0053500D03*
X0055154Y0053500D03*
D15*
X0033500Y0100154D03*
X0033500Y0106846D03*
X0128500Y0106846D03*
X0128500Y0100154D03*
X0148500Y0100154D03*
X0148500Y0106846D03*
X0160500Y0106846D03*
X0160500Y0100154D03*
X0255500Y0100154D03*
X0255500Y0106846D03*
X0275500Y0106846D03*
X0275500Y0100154D03*
X0287500Y0100154D03*
X0287500Y0106846D03*
X0382500Y0106846D03*
X0382500Y0100154D03*
X0402500Y0100154D03*
X0402500Y0106846D03*
X0402500Y0202154D03*
X0402500Y0208846D03*
X0382500Y0208846D03*
X0382500Y0202154D03*
X0287500Y0202154D03*
X0287500Y0208846D03*
X0275500Y0208846D03*
X0275500Y0202154D03*
X0255500Y0202154D03*
X0255500Y0208846D03*
X0160500Y0208846D03*
X0160500Y0202154D03*
X0148500Y0202154D03*
X0148500Y0208846D03*
X0128500Y0208846D03*
X0128500Y0202154D03*
X0033500Y0202154D03*
X0033500Y0208846D03*
X0033500Y0304154D03*
X0033500Y0310846D03*
X0128500Y0310846D03*
X0128500Y0304154D03*
X0148500Y0304154D03*
X0148500Y0310846D03*
X0160500Y0310846D03*
X0160500Y0304154D03*
X0255500Y0304154D03*
X0255500Y0310846D03*
X0275500Y0310846D03*
X0275500Y0304154D03*
X0287500Y0304154D03*
X0287500Y0310846D03*
X0382500Y0310846D03*
X0382500Y0304154D03*
X0402500Y0304154D03*
X0402500Y0310846D03*
D16*
X0395700Y0307500D03*
X0392500Y0307500D03*
X0389300Y0307500D03*
X0354100Y0257500D03*
X0350900Y0257500D03*
X0389300Y0205500D03*
X0392500Y0205500D03*
X0395700Y0205500D03*
X0354100Y0155500D03*
X0350900Y0155500D03*
X0389300Y0103500D03*
X0392500Y0103500D03*
X0395700Y0103500D03*
X0354100Y0053500D03*
X0350900Y0053500D03*
X0268700Y0103500D03*
X0265500Y0103500D03*
X0262300Y0103500D03*
X0227100Y0053500D03*
X0223900Y0053500D03*
X0141700Y0103500D03*
X0138500Y0103500D03*
X0135300Y0103500D03*
X0100100Y0053500D03*
X0096900Y0053500D03*
X0096900Y0155500D03*
X0100100Y0155500D03*
X0135300Y0205500D03*
X0138500Y0205500D03*
X0141700Y0205500D03*
X0100100Y0257500D03*
X0096900Y0257500D03*
X0135300Y0307500D03*
X0138500Y0307500D03*
X0141700Y0307500D03*
X0223900Y0257500D03*
X0227100Y0257500D03*
X0262300Y0307500D03*
X0265500Y0307500D03*
X0268700Y0307500D03*
X0268700Y0205500D03*
X0265500Y0205500D03*
X0262300Y0205500D03*
X0227100Y0155500D03*
X0223900Y0155500D03*
D17*
X0225500Y0169476D03*
X0220500Y0169476D03*
X0215500Y0169476D03*
X0210500Y0169476D03*
X0205500Y0169476D03*
X0205500Y0191524D03*
X0210500Y0191524D03*
X0215500Y0191524D03*
X0220500Y0191524D03*
X0225500Y0191524D03*
X0230500Y0191524D03*
X0235500Y0191524D03*
X0235500Y0169476D03*
X0230500Y0169476D03*
X0230500Y0089524D03*
X0225500Y0089524D03*
X0220500Y0089524D03*
X0215500Y0089524D03*
X0210500Y0089524D03*
X0205500Y0089524D03*
X0205500Y0067476D03*
X0210500Y0067476D03*
X0215500Y0067476D03*
X0220500Y0067476D03*
X0225500Y0067476D03*
X0230500Y0067476D03*
X0235500Y0067476D03*
X0235500Y0089524D03*
X0332500Y0089524D03*
X0337500Y0089524D03*
X0342500Y0089524D03*
X0347500Y0089524D03*
X0352500Y0089524D03*
X0357500Y0089524D03*
X0362500Y0089524D03*
X0362500Y0067476D03*
X0357500Y0067476D03*
X0352500Y0067476D03*
X0347500Y0067476D03*
X0342500Y0067476D03*
X0337500Y0067476D03*
X0332500Y0067476D03*
X0332500Y0169476D03*
X0337500Y0169476D03*
X0342500Y0169476D03*
X0347500Y0169476D03*
X0352500Y0169476D03*
X0357500Y0169476D03*
X0362500Y0169476D03*
X0362500Y0191524D03*
X0357500Y0191524D03*
X0352500Y0191524D03*
X0347500Y0191524D03*
X0342500Y0191524D03*
X0337500Y0191524D03*
X0332500Y0191524D03*
X0332500Y0271476D03*
X0337500Y0271476D03*
X0342500Y0271476D03*
X0347500Y0271476D03*
X0352500Y0271476D03*
X0357500Y0271476D03*
X0362500Y0271476D03*
X0362500Y0293524D03*
X0357500Y0293524D03*
X0352500Y0293524D03*
X0347500Y0293524D03*
X0342500Y0293524D03*
X0337500Y0293524D03*
X0332500Y0293524D03*
X0235500Y0293524D03*
X0230500Y0293524D03*
X0225500Y0293524D03*
X0220500Y0293524D03*
X0215500Y0293524D03*
X0210500Y0293524D03*
X0205500Y0293524D03*
X0205500Y0271476D03*
X0210500Y0271476D03*
X0215500Y0271476D03*
X0220500Y0271476D03*
X0225500Y0271476D03*
X0230500Y0271476D03*
X0235500Y0271476D03*
X0108500Y0271476D03*
X0103500Y0271476D03*
X0098500Y0271476D03*
X0093500Y0271476D03*
X0088500Y0271476D03*
X0083500Y0271476D03*
X0078500Y0271476D03*
X0078500Y0293524D03*
X0083500Y0293524D03*
X0088500Y0293524D03*
X0093500Y0293524D03*
X0098500Y0293524D03*
X0103500Y0293524D03*
X0108500Y0293524D03*
X0108500Y0191524D03*
X0103500Y0191524D03*
X0098500Y0191524D03*
X0093500Y0191524D03*
X0088500Y0191524D03*
X0083500Y0191524D03*
X0078500Y0191524D03*
X0078500Y0169476D03*
X0083500Y0169476D03*
X0088500Y0169476D03*
X0093500Y0169476D03*
X0098500Y0169476D03*
X0103500Y0169476D03*
X0108500Y0169476D03*
X0108500Y0089524D03*
X0103500Y0089524D03*
X0098500Y0089524D03*
X0093500Y0089524D03*
X0088500Y0089524D03*
X0083500Y0089524D03*
X0078500Y0089524D03*
X0078500Y0067476D03*
X0083500Y0067476D03*
X0088500Y0067476D03*
X0093500Y0067476D03*
X0098500Y0067476D03*
X0103500Y0067476D03*
X0108500Y0067476D03*
D18*
X0101000Y0098500D03*
X0101000Y0108500D03*
X0091000Y0108500D03*
X0081000Y0108500D03*
X0081000Y0098500D03*
X0091000Y0098500D03*
X0091000Y0200500D03*
X0091000Y0210500D03*
X0081000Y0210500D03*
X0081000Y0200500D03*
X0101000Y0200500D03*
X0101000Y0210500D03*
X0101000Y0302500D03*
X0101000Y0312500D03*
X0091000Y0312500D03*
X0081000Y0312500D03*
X0081000Y0302500D03*
X0091000Y0302500D03*
X0208000Y0302500D03*
X0208000Y0312500D03*
X0218000Y0312500D03*
X0228000Y0312500D03*
X0228000Y0302500D03*
X0218000Y0302500D03*
X0218000Y0210500D03*
X0218000Y0200500D03*
X0228000Y0200500D03*
X0228000Y0210500D03*
X0208000Y0210500D03*
X0208000Y0200500D03*
X0208000Y0108500D03*
X0208000Y0098500D03*
X0218000Y0098500D03*
X0228000Y0098500D03*
X0228000Y0108500D03*
X0218000Y0108500D03*
X0335000Y0108500D03*
X0335000Y0098500D03*
X0345000Y0098500D03*
X0355000Y0098500D03*
X0355000Y0108500D03*
X0345000Y0108500D03*
X0345000Y0200500D03*
X0345000Y0210500D03*
X0355000Y0210500D03*
X0355000Y0200500D03*
X0335000Y0200500D03*
X0335000Y0210500D03*
X0335000Y0302500D03*
X0335000Y0312500D03*
X0345000Y0312500D03*
X0355000Y0312500D03*
X0355000Y0302500D03*
X0345000Y0302500D03*
D19*
X0309158Y0305705D02*
X0305842Y0305705D01*
X0309158Y0305705D02*
X0309158Y0302389D01*
X0305842Y0302389D01*
X0305842Y0305705D01*
X0305842Y0303809D02*
X0309158Y0303809D01*
X0309158Y0305229D02*
X0305842Y0305229D01*
X0305842Y0312611D02*
X0309158Y0312611D01*
X0309158Y0309295D01*
X0305842Y0309295D01*
X0305842Y0312611D01*
X0305842Y0310715D02*
X0309158Y0310715D01*
X0309158Y0312135D02*
X0305842Y0312135D01*
X0305842Y0210611D02*
X0309158Y0210611D01*
X0309158Y0207295D01*
X0305842Y0207295D01*
X0305842Y0210611D01*
X0305842Y0208715D02*
X0309158Y0208715D01*
X0309158Y0210135D02*
X0305842Y0210135D01*
X0305842Y0203705D02*
X0309158Y0203705D01*
X0309158Y0200389D01*
X0305842Y0200389D01*
X0305842Y0203705D01*
X0305842Y0201809D02*
X0309158Y0201809D01*
X0309158Y0203229D02*
X0305842Y0203229D01*
X0305842Y0108611D02*
X0309158Y0108611D01*
X0309158Y0105295D01*
X0305842Y0105295D01*
X0305842Y0108611D01*
X0305842Y0106715D02*
X0309158Y0106715D01*
X0309158Y0108135D02*
X0305842Y0108135D01*
X0305842Y0101705D02*
X0309158Y0101705D01*
X0309158Y0098389D01*
X0305842Y0098389D01*
X0305842Y0101705D01*
X0305842Y0099809D02*
X0309158Y0099809D01*
X0309158Y0101229D02*
X0305842Y0101229D01*
X0182158Y0101705D02*
X0178842Y0101705D01*
X0182158Y0101705D02*
X0182158Y0098389D01*
X0178842Y0098389D01*
X0178842Y0101705D01*
X0178842Y0099809D02*
X0182158Y0099809D01*
X0182158Y0101229D02*
X0178842Y0101229D01*
X0178842Y0108611D02*
X0182158Y0108611D01*
X0182158Y0105295D01*
X0178842Y0105295D01*
X0178842Y0108611D01*
X0178842Y0106715D02*
X0182158Y0106715D01*
X0182158Y0108135D02*
X0178842Y0108135D01*
X0178842Y0203705D02*
X0182158Y0203705D01*
X0182158Y0200389D01*
X0178842Y0200389D01*
X0178842Y0203705D01*
X0178842Y0201809D02*
X0182158Y0201809D01*
X0182158Y0203229D02*
X0178842Y0203229D01*
X0178842Y0210611D02*
X0182158Y0210611D01*
X0182158Y0207295D01*
X0178842Y0207295D01*
X0178842Y0210611D01*
X0178842Y0208715D02*
X0182158Y0208715D01*
X0182158Y0210135D02*
X0178842Y0210135D01*
X0178842Y0305705D02*
X0182158Y0305705D01*
X0182158Y0302389D01*
X0178842Y0302389D01*
X0178842Y0305705D01*
X0178842Y0303809D02*
X0182158Y0303809D01*
X0182158Y0305229D02*
X0178842Y0305229D01*
X0178842Y0312611D02*
X0182158Y0312611D01*
X0182158Y0309295D01*
X0178842Y0309295D01*
X0178842Y0312611D01*
X0178842Y0310715D02*
X0182158Y0310715D01*
X0182158Y0312135D02*
X0178842Y0312135D01*
X0055158Y0312611D02*
X0051842Y0312611D01*
X0055158Y0312611D02*
X0055158Y0309295D01*
X0051842Y0309295D01*
X0051842Y0312611D01*
X0051842Y0310715D02*
X0055158Y0310715D01*
X0055158Y0312135D02*
X0051842Y0312135D01*
X0051842Y0305705D02*
X0055158Y0305705D01*
X0055158Y0302389D01*
X0051842Y0302389D01*
X0051842Y0305705D01*
X0051842Y0303809D02*
X0055158Y0303809D01*
X0055158Y0305229D02*
X0051842Y0305229D01*
X0051842Y0210611D02*
X0055158Y0210611D01*
X0055158Y0207295D01*
X0051842Y0207295D01*
X0051842Y0210611D01*
X0051842Y0208715D02*
X0055158Y0208715D01*
X0055158Y0210135D02*
X0051842Y0210135D01*
X0051842Y0203705D02*
X0055158Y0203705D01*
X0055158Y0200389D01*
X0051842Y0200389D01*
X0051842Y0203705D01*
X0051842Y0201809D02*
X0055158Y0201809D01*
X0055158Y0203229D02*
X0051842Y0203229D01*
X0051842Y0108611D02*
X0055158Y0108611D01*
X0055158Y0105295D01*
X0051842Y0105295D01*
X0051842Y0108611D01*
X0051842Y0106715D02*
X0055158Y0106715D01*
X0055158Y0108135D02*
X0051842Y0108135D01*
X0051842Y0101705D02*
X0055158Y0101705D01*
X0055158Y0098389D01*
X0051842Y0098389D01*
X0051842Y0101705D01*
X0051842Y0099809D02*
X0055158Y0099809D01*
X0055158Y0101229D02*
X0051842Y0101229D01*
D20*
X0055500Y0340750D03*
X0380500Y0340750D03*
D21*
X0051935Y0020250D02*
X0051937Y0020369D01*
X0051943Y0020488D01*
X0051953Y0020607D01*
X0051967Y0020725D01*
X0051985Y0020843D01*
X0052006Y0020960D01*
X0052032Y0021076D01*
X0052062Y0021192D01*
X0052095Y0021306D01*
X0052132Y0021419D01*
X0052173Y0021531D01*
X0052218Y0021642D01*
X0052266Y0021751D01*
X0052318Y0021858D01*
X0052374Y0021963D01*
X0052433Y0022067D01*
X0052495Y0022168D01*
X0052561Y0022268D01*
X0052630Y0022365D01*
X0052702Y0022459D01*
X0052778Y0022552D01*
X0052856Y0022641D01*
X0052937Y0022728D01*
X0053022Y0022813D01*
X0053109Y0022894D01*
X0053198Y0022972D01*
X0053291Y0023048D01*
X0053385Y0023120D01*
X0053482Y0023189D01*
X0053582Y0023255D01*
X0053683Y0023317D01*
X0053787Y0023376D01*
X0053892Y0023432D01*
X0053999Y0023484D01*
X0054108Y0023532D01*
X0054219Y0023577D01*
X0054331Y0023618D01*
X0054444Y0023655D01*
X0054558Y0023688D01*
X0054674Y0023718D01*
X0054790Y0023744D01*
X0054907Y0023765D01*
X0055025Y0023783D01*
X0055143Y0023797D01*
X0055262Y0023807D01*
X0055381Y0023813D01*
X0055500Y0023815D01*
X0055619Y0023813D01*
X0055738Y0023807D01*
X0055857Y0023797D01*
X0055975Y0023783D01*
X0056093Y0023765D01*
X0056210Y0023744D01*
X0056326Y0023718D01*
X0056442Y0023688D01*
X0056556Y0023655D01*
X0056669Y0023618D01*
X0056781Y0023577D01*
X0056892Y0023532D01*
X0057001Y0023484D01*
X0057108Y0023432D01*
X0057213Y0023376D01*
X0057317Y0023317D01*
X0057418Y0023255D01*
X0057518Y0023189D01*
X0057615Y0023120D01*
X0057709Y0023048D01*
X0057802Y0022972D01*
X0057891Y0022894D01*
X0057978Y0022813D01*
X0058063Y0022728D01*
X0058144Y0022641D01*
X0058222Y0022552D01*
X0058298Y0022459D01*
X0058370Y0022365D01*
X0058439Y0022268D01*
X0058505Y0022168D01*
X0058567Y0022067D01*
X0058626Y0021963D01*
X0058682Y0021858D01*
X0058734Y0021751D01*
X0058782Y0021642D01*
X0058827Y0021531D01*
X0058868Y0021419D01*
X0058905Y0021306D01*
X0058938Y0021192D01*
X0058968Y0021076D01*
X0058994Y0020960D01*
X0059015Y0020843D01*
X0059033Y0020725D01*
X0059047Y0020607D01*
X0059057Y0020488D01*
X0059063Y0020369D01*
X0059065Y0020250D01*
X0059063Y0020131D01*
X0059057Y0020012D01*
X0059047Y0019893D01*
X0059033Y0019775D01*
X0059015Y0019657D01*
X0058994Y0019540D01*
X0058968Y0019424D01*
X0058938Y0019308D01*
X0058905Y0019194D01*
X0058868Y0019081D01*
X0058827Y0018969D01*
X0058782Y0018858D01*
X0058734Y0018749D01*
X0058682Y0018642D01*
X0058626Y0018537D01*
X0058567Y0018433D01*
X0058505Y0018332D01*
X0058439Y0018232D01*
X0058370Y0018135D01*
X0058298Y0018041D01*
X0058222Y0017948D01*
X0058144Y0017859D01*
X0058063Y0017772D01*
X0057978Y0017687D01*
X0057891Y0017606D01*
X0057802Y0017528D01*
X0057709Y0017452D01*
X0057615Y0017380D01*
X0057518Y0017311D01*
X0057418Y0017245D01*
X0057317Y0017183D01*
X0057213Y0017124D01*
X0057108Y0017068D01*
X0057001Y0017016D01*
X0056892Y0016968D01*
X0056781Y0016923D01*
X0056669Y0016882D01*
X0056556Y0016845D01*
X0056442Y0016812D01*
X0056326Y0016782D01*
X0056210Y0016756D01*
X0056093Y0016735D01*
X0055975Y0016717D01*
X0055857Y0016703D01*
X0055738Y0016693D01*
X0055619Y0016687D01*
X0055500Y0016685D01*
X0055381Y0016687D01*
X0055262Y0016693D01*
X0055143Y0016703D01*
X0055025Y0016717D01*
X0054907Y0016735D01*
X0054790Y0016756D01*
X0054674Y0016782D01*
X0054558Y0016812D01*
X0054444Y0016845D01*
X0054331Y0016882D01*
X0054219Y0016923D01*
X0054108Y0016968D01*
X0053999Y0017016D01*
X0053892Y0017068D01*
X0053787Y0017124D01*
X0053683Y0017183D01*
X0053582Y0017245D01*
X0053482Y0017311D01*
X0053385Y0017380D01*
X0053291Y0017452D01*
X0053198Y0017528D01*
X0053109Y0017606D01*
X0053022Y0017687D01*
X0052937Y0017772D01*
X0052856Y0017859D01*
X0052778Y0017948D01*
X0052702Y0018041D01*
X0052630Y0018135D01*
X0052561Y0018232D01*
X0052495Y0018332D01*
X0052433Y0018433D01*
X0052374Y0018537D01*
X0052318Y0018642D01*
X0052266Y0018749D01*
X0052218Y0018858D01*
X0052173Y0018969D01*
X0052132Y0019081D01*
X0052095Y0019194D01*
X0052062Y0019308D01*
X0052032Y0019424D01*
X0052006Y0019540D01*
X0051985Y0019657D01*
X0051967Y0019775D01*
X0051953Y0019893D01*
X0051943Y0020012D01*
X0051937Y0020131D01*
X0051935Y0020250D01*
D22*
X0055500Y0020250D03*
M02*
